<?xml version="1.0" standalone="no"?><!DOCTYPE svg PUBLIC "-//W3C//DTD SVG 1.1//EN" "http://www.w3.org/Graphics/SVG/1.1/DTD/svg11.dtd" ><svg xmlns="http://www.w3.org/2000/svg"><metadata></metadata><defs><font id="Geometric 706 Medium:1179327040" horiz-adv-x="1267"><font-face font-family="Geometric 706" font-weight="500" font-stretch="normal" units-per-em="1000" panose-1="0 0 0 0 0 0 0 0 0 0" ascent="759" descent="-218" x-height="0" bbox="-167 -323 1207 1068" underline-thickness="63" underline-position="-109" unicode-range="U+0009-fb04" /><missing-glyph horiz-adv-x="278"  /><glyph glyph-name="" unicode=" " d="" /><glyph glyph-name="" unicode="!" d="M187 759 l-97 0 l0 -583 l97 0 l0 583 ZM75 51 q1 -27 19 -45 q18 -18 45 -19 q27 1 45 19 q18 18 19 45 q-1 28 -18 45 q-18 17 -46 18 q-27 -1 -45 -18 q-18 -18 -19 -45 l0 0 Z" /><glyph glyph-name="" unicode="&quot;" d="M122 429 l0 272 l-80 0 l0 -272 l80 0 ZM273 429 l0 272 l-80 0 l0 -272 l80 0 Z" /><glyph glyph-name="" unicode="#" d="M129 500 l-30 -84 l154 0 l-44 -123 l-145 0 l-30 -84 l146 0 l-76 -212 l93 0 l77 212 l123 0 l-76 -212 l93 0 l76 212 l150 0 l30 84 l-151 0 l44 123 l143 0 l29 84 l-142 0 l75 213 l-93 0 l-76 -213 l-122 0 l75 213 l-93 0 l-76 -213 l-154 0 ZM427 292 l-125 0 l44 124 l125 0 l-44 -124 Z" /><glyph glyph-name="" unicode="$" d="M58 213 q9 -94 58 -148 q50 -54 135 -64 l0 -91 l51 0 l0 91 q94 12 145 65 q50 52 51 132 q0 78 -48 130 q-48 52 -148 84 l0 244 q41 -8 66 -41 q24 -34 31 -93 l88 0 q-6 94 -53 148 q-47 54 -132 64 l0 76 l-51 0 l0 -75 q-88 -7 -136 -56 q-47 -50 -48 -135 q0 -79 44 -129 q45 -50 140 -80 l0 -250 q-103 20 -105 132 l-88 -4 ZM251 430 q-52 17 -76 43 q-24 26 -24 70 q1 48 27 79 q27 30 73 36 l0 -228 ZM302 318 q107 -36 107 -125 q0 -46 -28 -75 q-28 -29 -79 -35 l0 235 Z" /><glyph glyph-name="" unicode="%" d="M49 517 q1 -64 41 -101 q40 -37 108 -38 q68 1 108 38 q41 37 42 101 l0 86 q-1 67 -39 105 q-38 37 -108 38 q-69 0 -110 -38 q-42 -39 -42 -102 l0 -89 ZM299 -9 l354 755 l-75 0 l-354 -755 l75 0 ZM131 578 q0 97 67 97 q68 0 68 -97 l0 -34 q0 -97 -68 -97 q-67 0 -67 97 l0 34 ZM530 130 q1 -64 42 -101 q40 -37 108 -38 q68 1 108 38 q41 37 42 101 l0 86 q-1 67 -39 104 q-38 37 -108 38 q-35 0 -63 -10 q-28 -10 -48 -28 q-42 -39 -42 -101 l0 -89 ZM612 190 q0 97 68 97 q67 0 67 -97 l0 -33 q0 -49 -16 -73 q-16 -24 -51 -24 q-68 0 -68 97 l0 33 Z" /><glyph glyph-name="" unicode="&amp;" d="M539 181 l126 108 l-60 67 l-114 -104 l-122 182 q109 74 109 165 q0 63 -42 105 q-40 41 -108 41 q-32 0 -59 -10 q-27 -11 -47 -31 q-20 -20 -32 -48 q-11 -27 -11 -60 q0 -29 16 -64 q15 -35 46 -75 q-108 -56 -160 -116 q-53 -60 -53 -139 q0 -46 16 -84 q15 -38 43 -67 q27 -29 65 -45 q37 -16 82 -16 q62 0 120 32 q58 31 120 94 l80 -116 l119 0 l-134 181 ZM316 501 q-47 62 -47 102 q0 30 17 48 q16 18 44 18 q27 0 44 -17 q17 -17 17 -47 q0 -64 -75 -104 l0 0 ZM427 190 q-60 -54 -107 -80 q-48 -27 -87 -27 q-23 0 -44 10 q-20 9 -35 25 q-15 16 -23 37 q-9 20 -9 42 q0 54 42 98 q41 43 125 91 l138 -196 Z" /><glyph glyph-name="" unicode="&#x2019;" d="M95 496 l121 243 l-97 40 l-92 -257 l68 -26 Z" /><glyph glyph-name="" unicode="(" d="M341 -170 q-79 102 -117 211 q-38 109 -38 237 q0 128 38 238 q38 109 117 211 l-70 52 q-93 -113 -136 -236 q-44 -123 -44 -265 q0 -142 44 -265 q44 -123 136 -235 l70 52 Z" /><glyph glyph-name="" unicode=")" d="M127 -222 q92 112 136 235 q44 123 44 265 q0 142 -43 265 q-44 123 -137 236 l-70 -52 q79 -102 117 -211 q38 -110 38 -238 q0 -128 -38 -237 q-38 -109 -117 -211 l70 -52 Z" /><glyph glyph-name="" unicode="*" d="M413 434 l-124 125 l173 29 l-32 96 l-156 -80 l23 175 l-94 0 l23 -175 l-156 80 l-32 -96 l173 -29 l-124 -125 l82 -61 l81 157 l81 -157 l82 61 Z" /><glyph glyph-name="" unicode="+" d="M124 339 l0 -81 l251 0 l0 -258 l83 0 l0 258 l251 0 l0 81 l-251 0 l0 257 l-83 0 l0 -257 l-251 0 Z" /><glyph glyph-name="" unicode="," d="M84 -168 l125 254 l-91 43 l-95 -267 l61 -30 Z" /><glyph glyph-name="" unicode="-" d="M280 304 l-241 0 l0 -83 l241 0 l0 83 Z" /><glyph glyph-name="" unicode="." d="M75 51 q1 -27 19 -45 q18 -18 45 -19 q27 1 45 19 q18 18 19 45 q-1 28 -18 45 q-18 17 -46 18 q-27 -1 -45 -18 q-18 -18 -19 -45 l0 0 Z" /><glyph glyph-name="" unicode="/" d="M57 -93 l237 872 l-74 0 l-236 -872 l73 0 Z" /><glyph glyph-name="" unicode="0" d="M498 509 q-1 115 -57 176 q-57 61 -163 61 q-48 0 -88 -16 q-40 -17 -69 -47 q-30 -30 -46 -72 q-17 -43 -17 -97 l0 -291 q0 -54 17 -96 q16 -43 46 -73 q29 -30 69 -46 q40 -17 88 -17 q48 0 88 17 q40 16 70 46 q29 30 46 73 q16 42 16 96 l0 286 ZM405 254 q0 -182 -127 -182 q-128 0 -128 182 l0 228 q0 183 128 183 q127 0 127 -183 l0 -228 Z" /><glyph glyph-name="" unicode="1" d="M351 746 l-233 -131 l0 -93 l140 79 l0 -601 l93 0 l0 746 Z" /><glyph glyph-name="" unicode="2" d="M477 93 l-259 0 l210 307 q30 44 47 84 q17 39 17 84 q-1 82 -55 129 q-54 47 -152 48 q-48 0 -87 -14 q-39 -15 -66 -41 q-28 -27 -43 -64 q-16 -37 -16 -85 l96 0 l0 4 q1 55 33 86 q31 31 86 31 q52 -1 82 -27 q29 -27 30 -73 q0 -45 -46 -112 l-302 -450 l425 0 l0 93 Z" /><glyph glyph-name="" unicode="3" d="M42 120 q72 -129 220 -129 q54 0 100 19 q45 18 78 51 q33 32 52 77 q18 45 18 99 q0 98 -59 156 q-29 29 -69 46 q-39 16 -87 17 l195 280 l-409 0 l0 -88 l255 5 l-221 -302 l17 -11 q31 23 62 35 q31 11 63 11 q35 0 65 -11 q29 -12 51 -33 q21 -21 33 -50 q12 -29 12 -64 q0 -33 -12 -61 q-12 -29 -33 -50 q-21 -21 -50 -33 q-29 -12 -63 -12 q-42 0 -77 24 q-36 23 -60 69 l-81 -45 Z" /><glyph glyph-name="" unicode="4" d="M429 178 l78 0 l0 84 l-78 0 l0 483 l-19 0 l-367 -524 l0 -43 l302 0 l0 -178 l84 0 l0 178 ZM348 259 l-186 0 l186 276 l0 -276 Z" /><glyph glyph-name="" unicode="5" d="M53 121 q38 -65 93 -98 q54 -32 125 -32 q52 0 96 18 q44 18 76 50 q32 33 50 76 q17 44 17 96 q0 52 -17 95 q-17 44 -47 76 q-60 65 -164 65 q-49 0 -97 -21 l0 202 l270 0 l0 88 l-354 0 l0 -405 l12 -9 q63 64 153 64 q32 0 60 -11 q27 -12 48 -33 q20 -21 32 -49 q11 -29 11 -62 q0 -70 -41 -114 q-20 -21 -47 -33 q-27 -12 -59 -12 q-91 0 -145 98 l-72 -49 Z" /><glyph glyph-name="" unicode="6" d="M123 400 q-31 -48 -47 -93 q-17 -46 -17 -96 q0 -49 17 -89 q16 -41 46 -70 q29 -29 71 -45 q41 -16 92 -16 q50 0 97 21 q22 10 46 27 q24 18 43 44 q19 26 31 61 q13 35 13 80 q0 48 -16 88 q-16 39 -45 69 q-29 29 -68 46 q-39 16 -84 16 q-24 0 -58 -6 l201 299 l-108 0 l-214 -336 ZM285 72 q-63 1 -98 38 q-35 37 -36 104 q0 33 11 60 q10 27 28 47 q38 40 96 40 q64 0 100 -38 q35 -38 36 -107 q-1 -63 -38 -103 q-38 -40 -99 -41 l0 0 Z" /><glyph glyph-name="" unicode="7" d="M528 736 l-432 0 l0 -83 l303 0 l-277 -653 l98 0 l308 736 Z" /><glyph glyph-name="" unicode="8" d="M173 407 q-124 -57 -124 -198 q0 -48 17 -87 q16 -40 47 -69 q30 -29 72 -46 q42 -16 93 -16 q51 0 93 16 q42 17 72 46 q30 29 47 69 q16 39 16 87 q0 141 -124 198 q94 45 94 150 q0 42 -14 76 q-15 34 -41 59 q-26 25 -62 39 q-36 14 -81 14 q-45 0 -81 -14 q-37 -14 -63 -39 q-26 -25 -41 -59 q-14 -34 -14 -76 q0 -105 94 -150 l0 0 ZM387 557 q-1 -52 -30 -81 q-30 -29 -79 -30 q-50 1 -79 30 q-30 29 -31 81 q1 49 31 79 q30 30 79 31 q49 -1 79 -31 q29 -30 30 -79 l0 0 ZM414 214 q0 -63 -38 -101 q-18 -19 -43 -29 q-25 -11 -55 -11 q-30 0 -55 11 q-25 10 -43 29 q-18 18 -28 44 q-11 26 -11 57 q0 33 11 60 q10 27 29 46 q18 19 43 29 q25 11 54 11 q29 0 54 -11 q25 -10 43 -29 q18 -19 29 -46 q10 -27 10 -60 l0 0 Z" /><glyph glyph-name="" unicode="9" d="M433 336 q32 51 48 95 q16 44 16 86 q0 52 -17 94 q-17 42 -47 72 q-31 31 -72 46 q-41 16 -91 16 q-48 0 -96 -20 q-23 -11 -46 -28 q-23 -18 -43 -44 q-20 -26 -32 -61 q-12 -35 -12 -80 q0 -48 16 -87 q16 -40 45 -69 q29 -30 68 -46 q38 -17 83 -17 q12 0 26 2 q15 2 32 5 l-201 -300 l108 0 l215 336 ZM271 664 q63 -1 98 -38 q35 -37 35 -104 q0 -32 -10 -59 q-9 -27 -28 -47 q-36 -41 -96 -41 q-64 0 -99 38 q-36 38 -37 107 q1 64 38 104 q37 39 99 40 l0 0 Z" /><glyph glyph-name="" unicode=":" d="M75 475 q1 -27 19 -45 q18 -18 45 -19 q27 1 45 19 q18 18 19 45 q-1 28 -18 45 q-18 17 -46 18 q-27 -1 -45 -18 q-18 -18 -19 -45 l0 0 ZM75 51 q1 -27 19 -45 q18 -18 45 -19 q27 1 45 19 q18 18 19 45 q-1 28 -18 45 q-18 17 -46 18 q-27 -1 -45 -18 q-18 -18 -19 -45 l0 0 Z" /><glyph glyph-name="" unicode=";" d="M73 475 q1 -27 18 -45 q18 -18 45 -19 q27 1 45 19 q18 18 19 45 q-1 28 -18 45 q-18 17 -46 18 q-27 -1 -45 -18 q-17 -18 -18 -45 l0 0 ZM80 -168 l126 254 l-92 43 l-94 -267 l60 -30 Z" /><glyph glyph-name="" unicode="&lt;" d="M129 259 l575 -236 l0 89 l-456 186 l456 186 l0 90 l-575 -237 l0 -78 Z" /><glyph glyph-name="" unicode="=" d="M709 358 l0 82 l-585 0 l0 -82 l585 0 ZM709 157 l0 81 l-585 0 l0 -81 l585 0 Z" /><glyph glyph-name="" unicode="&gt;" d="M585 298 l-456 -186 l0 -89 l575 236 l0 78 l-575 237 l0 -90 l456 -186 Z" /><glyph glyph-name="" unicode="?" d="M258 215 l0 15 q0 11 1 15 q0 32 13 60 q5 16 16 32 q11 15 34 34 q11 8 26 20 q14 11 33 27 q45 35 65 74 q20 40 20 90 q0 43 -15 79 q-15 37 -42 63 q-28 26 -66 41 q-39 14 -87 14 q-48 0 -87 -15 q-39 -15 -67 -42 q-28 -28 -43 -67 q-16 -40 -17 -89 l100 0 l0 9 q1 55 32 87 q30 31 82 32 q50 -1 79 -31 q30 -31 31 -83 q0 -21 -6 -36 q-5 -14 -15 -27 q-10 -13 -25 -26 q-14 -12 -30 -25 q-15 -13 -30 -25 q-16 -13 -30 -27 q-16 -16 -27 -33 q-12 -18 -20 -38 q-14 -33 -16 -65 q-3 -31 -2 -63 l0 -35 l93 0 l0 35 ZM147 50 q1 -27 19 -45 q18 -17 45 -18 q27 1 45 18 q18 18 19 45 q-1 28 -18 46 q-18 17 -46 18 q-27 -1 -45 -19 q-18 -18 -19 -45 l0 0 Z" /><glyph glyph-name="" unicode="@" d="M806 10 q-24 -16 -53 -32 q-30 -17 -62 -30 q-32 -13 -65 -21 q-33 -9 -63 -9 q-48 -1 -93 1 q-45 2 -93 13 q-65 15 -109 44 q-43 28 -70 64 q-27 36 -42 72 q-16 36 -22 69 q-2 6 -4 17 q-2 11 -3 24 q-1 13 -1 26 q-1 12 -1 21 q0 57 20 113 q20 56 56 104 q36 48 85 85 q48 36 105 55 l28 8 q7 1 14 4 q7 2 14 6 q2 -1 6 -1 q2 0 6 1 q3 0 7 1 q8 2 12 2 l4 0 q15 0 29 3 q12 3 27 3 q20 0 40 -3 q20 -3 39 -3 q14 -6 30 -9 l31 -8 q16 -4 33 -10 q16 -7 32 -18 q18 -14 35 -28 q17 -13 32 -28 q15 -16 27 -34 q12 -19 21 -43 q10 -27 13 -62 q4 -34 0 -73 q-4 -38 -15 -74 q-11 -35 -31 -65 q-20 -30 -48 -47 q-29 -18 -67 -19 l0 359 l-68 0 q-1 -10 -1 -19 q-1 -9 0 -18 q1 -9 0 -19 q0 -9 -1 -19 q-9 20 -26 35 q-18 15 -42 26 q-24 11 -48 16 q-25 4 -47 4 q-37 0 -75 -12 q-39 -12 -70 -38 q-31 -26 -51 -67 q-19 -40 -20 -100 q4 -53 22 -99 q17 -45 63 -82 q20 -20 57 -32 q17 -6 35 -10 q17 -4 32 -4 q57 0 96 18 q40 19 66 54 q0 -18 -1 -34 q-1 -17 3 -32 l74 0 q52 1 97 29 q46 28 79 75 q33 46 52 100 q19 54 19 109 q0 67 -22 126 q-23 59 -65 105 q-25 25 -57 47 q-33 22 -70 38 q-37 16 -76 26 q-40 9 -77 10 q-69 12 -136 1 q-67 -11 -127 -41 q-60 -29 -111 -73 q-51 -44 -89 -100 q-38 -56 -59 -120 q-21 -63 -21 -132 q0 -51 13 -103 q13 -51 39 -97 q26 -46 65 -84 q39 -38 91 -63 q9 -5 23 -12 q14 -6 32 -13 q17 -7 37 -13 q20 -6 40 -9 q39 -5 78 -8 q40 -3 87 -3 q77 0 148 30 q35 14 70 34 q34 20 71 46 q-4 6 -8 12 q-4 6 -8 13 q-10 12 -17 24 l0 0 ZM489 430 q9 -2 18 -4 q9 -2 17 -3 q17 -2 33 -10 q42 -23 64 -63 q21 -40 21 -83 q0 -21 -4 -36 q-4 -16 -6 -31 q-25 -37 -57 -60 q-33 -24 -82 -25 q-45 0 -75 17 q-30 16 -47 43 q-17 27 -24 56 q-6 29 -6 54 q2 27 13 53 q11 26 30 47 q19 21 45 33 q27 12 60 12 l0 0 Z" /><glyph glyph-name="" unicode="a" d="M180 177 l359 0 l68 -177 l116 0 l-322 765 l-83 0 l-312 -765 l106 0 l68 177 ZM337 574 l8 24 l15 47 q9 -31 15 -48 l8 -23 l120 -307 l-288 0 l122 307 Z" /><glyph glyph-name="" unicode="b" d="M316 0 q54 0 100 17 q45 16 78 46 q33 29 52 68 q18 38 18 83 q0 149 -145 195 q45 25 68 64 q23 38 23 84 q0 115 -101 175 q-33 20 -80 26 q-48 7 -111 6 l-130 0 l0 -764 l228 0 ZM262 678 q150 0 150 -122 q0 -57 -37 -89 q-36 -32 -106 -32 l-82 0 l0 243 l75 0 ZM292 347 q170 0 170 -128 q0 -63 -43 -96 q-43 -33 -131 -33 l-101 0 l0 257 l105 0 Z" /><glyph glyph-name="" unicode="c" d="M707 681 q-53 49 -120 73 q-68 25 -148 25 q-169 0 -277 -105 q-58 -57 -88 -131 q-30 -73 -30 -161 q0 -88 30 -161 q30 -74 88 -131 q108 -105 277 -105 q165 0 275 105 l-66 71 q-77 -86 -209 -86 q-63 0 -116 22 q-54 23 -93 64 q-40 41 -62 97 q-22 55 -22 124 q0 69 23 125 q22 56 62 97 q39 41 92 63 q53 22 116 22 q66 0 116 -21 q49 -21 88 -59 l64 72 Z" /><glyph glyph-name="" unicode="d" d="M246 0 q218 1 329 98 q110 97 110 284 q0 187 -110 284 q-111 97 -329 98 l-158 0 l0 -764 l158 0 ZM261 674 q323 0 323 -292 q0 -292 -323 -292 l-73 0 l0 584 l73 0 Z" /><glyph glyph-name="" unicode="e" d="M485 90 l-298 0 l0 257 l298 0 l0 88 l-298 0 l0 239 l298 0 l0 90 l-397 0 l0 -764 l397 0 l0 90 Z" /><glyph glyph-name="" unicode="f" d="M187 347 l298 0 l0 88 l-298 0 l0 239 l298 0 l0 90 l-397 0 l0 -764 l99 0 l0 347 Z" /><glyph glyph-name="" unicode="g" d="M713 676 q-52 52 -120 77 q-69 26 -154 26 q-169 0 -277 -105 q-58 -57 -88 -131 q-30 -73 -30 -161 q0 -88 30 -161 q30 -74 88 -131 q108 -105 277 -105 q117 0 202 49 q87 48 139 140 q52 93 53 230 l0 22 l-377 0 l0 -91 l273 0 q-9 -61 -34 -109 q-25 -49 -63 -82 q-78 -69 -196 -69 q-63 0 -115 22 q-53 23 -92 64 q-39 41 -61 97 q-22 55 -22 124 q0 69 23 125 q22 56 65 101 q79 81 202 81 q63 0 115 -20 q53 -21 91 -63 l71 70 Z" /><glyph glyph-name="" unicode="h" d="M187 349 l401 0 l0 -349 l99 0 l0 764 l-99 0 l0 -325 l-401 0 l0 325 l-99 0 l0 -764 l99 0 l0 349 Z" /><glyph glyph-name="" unicode="i" d="M187 764 l-99 0 l0 -764 l99 0 l0 764 Z" /><glyph glyph-name="" unicode="j" d="M54 -15 q3 -1 8 -1 l8 0 q319 0 319 273 l0 507 l-340 0 l0 -90 l241 0 l0 -378 q0 -30 -1 -55 q-1 -26 -6 -47 q-5 -21 -15 -38 q-10 -17 -28 -31 q-33 -26 -77 -36 q-45 -10 -105 -10 l-20 0 l0 -94 l16 0 Z" /><glyph glyph-name="" unicode="k" d="M188 292 q0 24 -2 52 q7 -8 12 -14 q5 -6 9 -11 l9 -12 l278 -307 l139 0 l-332 358 l-5 5 q-2 2 -3 4 q-1 2 -2 3 q-4 6 -15 11 l28 27 l321 356 l-129 0 l-280 -322 l-30 -36 q1 14 1 27 q1 12 1 24 l0 307 l-100 0 l0 -764 l100 0 l0 292 Z" /><glyph glyph-name="" unicode="l" d="M450 93 l-263 0 l0 671 l-99 0 l0 -764 l362 0 l0 93 Z" /><glyph glyph-name="" unicode="m" d="M182 533 q0 38 -14 87 q6 -20 15 -39 q9 -19 20 -41 l294 -549 l286 535 q23 43 42 101 q-13 -70 -13 -108 l-7 -519 l100 0 l0 764 l-101 0 l-290 -545 q-15 -28 -18 -63 q-4 38 -19 63 l-291 545 l-98 0 l0 -764 l99 0 l-5 533 Z" /><glyph glyph-name="" unicode="n" d="M185 504 q0 66 -16 137 q9 -29 22 -50 q13 -21 26 -39 l387 -552 l81 0 l0 764 l-97 0 l0 -509 q0 -24 5 -54 q4 -31 14 -67 q-26 60 -55 102 l-371 528 l-93 0 l0 -764 l97 0 l0 504 Z" /><glyph glyph-name="" unicode="o" d="M439 -15 q168 0 277 106 q58 57 88 130 q30 73 30 161 q0 88 -31 161 q-30 74 -88 131 q-108 105 -276 105 q-168 0 -276 -105 q-58 -57 -88 -131 q-31 -73 -31 -161 q0 -88 30 -161 q30 -73 88 -130 q109 -106 277 -106 l0 0 ZM438 75 q-124 0 -204 81 q-45 45 -66 102 q-22 57 -22 124 q3 140 83 223 q81 82 209 84 q127 -2 209 -86 q82 -84 85 -221 q0 -67 -21 -124 q-22 -57 -67 -102 q-80 -81 -206 -81 l0 0 Z" /><glyph glyph-name="" unicode="p" d="M187 263 l83 0 q60 0 109 19 q50 18 85 51 q35 33 55 79 q19 46 19 100 q0 57 -20 103 q-19 46 -56 79 q-37 33 -90 52 q-54 18 -121 18 l-163 0 l0 -764 l99 0 l0 263 ZM250 674 q186 0 186 -158 q0 -78 -44 -120 q-44 -42 -126 -42 l-79 0 l0 320 l63 0 Z" /><glyph glyph-name="" unicode="q" d="M740 121 q94 101 94 261 q0 88 -31 161 q-30 74 -88 131 q-108 105 -276 105 q-168 0 -276 -105 q-58 -57 -88 -131 q-31 -73 -31 -161 q0 -88 31 -162 q30 -74 88 -131 q107 -104 276 -104 q156 0 239 78 l84 -87 l61 64 l-83 81 ZM613 128 q-41 -26 -85 -40 q-44 -13 -90 -13 q-63 0 -115 22 q-53 23 -92 64 q-40 41 -62 97 q-23 55 -23 124 q0 69 22 125 q22 56 61 97 q39 41 93 63 q53 22 116 22 q63 0 117 -22 q53 -22 93 -63 q39 -41 61 -97 q22 -56 22 -125 q0 -97 -57 -194 l-83 87 l-63 -65 l85 -82 Z" /><glyph glyph-name="" unicode="r" d="M187 311 l272 -311 l125 0 l-269 297 l6 0 q51 0 94 17 q42 18 73 50 q30 32 47 75 q16 42 16 93 q0 110 -73 170 q-73 61 -216 62 l-174 0 l0 -764 l99 0 l0 311 ZM254 674 q99 0 147 -38 q48 -37 48 -107 q0 -75 -48 -116 q-48 -41 -142 -41 l-72 0 l0 302 l67 0 Z" /><glyph glyph-name="" unicode="s" d="M47 215 q10 -110 76 -169 q65 -60 178 -61 q55 0 100 16 q46 17 79 46 q33 29 52 68 q18 38 18 83 q0 45 -14 82 q-14 35 -43 62 q-28 27 -71 48 q-44 21 -89 37 q-45 16 -78 27 q-17 5 -35 13 q-17 8 -32 22 q-15 14 -24 34 q-10 19 -10 49 q1 56 37 89 q35 34 99 35 q130 0 148 -147 l100 0 q-6 110 -71 169 q-65 60 -178 61 q-54 0 -96 -15 q-43 -15 -73 -42 q-30 -27 -46 -64 q-16 -38 -16 -86 q0 -100 65 -153 q40 -32 82 -48 q42 -17 84 -30 q39 -12 69 -25 q30 -13 50 -30 q20 -17 31 -39 q10 -22 10 -54 q0 -53 -38 -85 q-38 -33 -108 -34 q-73 0 -113 38 q-41 38 -42 107 l-101 -4 Z" /><glyph glyph-name="" unicode="t" d="M303 674 l195 0 l0 90 l-489 0 l0 -90 l195 0 l0 -674 l99 0 l0 674 Z" /><glyph glyph-name="" unicode="u" d="M81 287 q0 -70 22 -126 q21 -56 60 -95 q38 -39 92 -60 q53 -21 119 -21 q66 0 119 21 q53 21 92 60 q39 39 60 95 q21 56 21 126 l0 477 l-100 0 l0 -471 q0 -109 -49 -163 q-49 -54 -143 -54 q-91 0 -142 56 q-50 55 -51 161 l0 471 l-100 0 l0 -477 Z" /><glyph glyph-name="" unicode="v" d="M542 764 l-183 -523 q-9 -26 -19 -58 q-10 -31 -18 -70 q-7 34 -17 66 q-10 31 -21 62 l-184 523 l-105 0 l282 -764 l84 0 l283 764 l-102 0 Z" /><glyph glyph-name="" unicode="w" d="M463 556 q5 17 11 38 q6 21 11 48 q2 -19 7 -40 q5 -21 12 -45 l165 -557 l84 0 l228 764 l-101 0 l-146 -527 q-1 -10 -5 -21 l-6 -22 q-7 -23 -12 -50 l-9 36 q-2 8 -3 15 q-2 6 -4 12 q-7 21 -9 31 l-153 526 l-93 0 l-157 -536 q-12 -40 -19 -84 q-4 25 -8 48 q-5 24 -12 47 l-148 525 l-105 0 l235 -764 l74 0 l163 556 Z" /><glyph glyph-name="" unicode="x" d="M300 268 q9 13 17 26 q8 13 13 28 q5 -15 13 -28 q7 -13 16 -26 l182 -268 l112 0 l-266 390 l253 374 l-111 0 l-170 -248 q-19 -28 -29 -54 q-5 14 -13 27 q-8 13 -17 27 l-169 248 l-111 0 l253 -375 l-267 -389 l113 0 l181 268 Z" /><glyph glyph-name="" unicode="y" d="M359 308 l255 456 l-112 0 l-177 -330 q-12 -18 -16 -37 q-4 11 -8 20 q-4 9 -8 17 l-178 330 l-116 0 l260 -455 l0 -309 l100 0 l0 308 Z" /><glyph glyph-name="" unicode="z" d="M575 90 l-412 0 q18 19 32 38 q13 19 25 38 l376 598 l-551 0 l0 -90 l391 0 q-15 -14 -27 -30 q-12 -17 -23 -34 l-381 -610 l570 0 l0 90 Z" /><glyph glyph-name="" unicode="[" d="M291 -218 l0 79 l-106 0 l0 825 l106 0 l0 78 l-203 0 l0 -982 l203 0 Z" /><glyph glyph-name="" unicode="\" d="M220 -93 l74 0 l-236 872 l-74 0 l236 -872 Z" /><glyph glyph-name="" unicode="]" d="M17 686 l106 0 l0 -825 l-106 0 l0 -79 l203 0 l0 982 l-203 0 l0 -78 Z" /><glyph glyph-name="" unicode="^" d="M305 439 l195 194 l194 -194 l101 0 l-242 274 l-106 0 l-243 -274 l101 0 Z" /><glyph glyph-name="" unicode="_" d="M500 -236 l0 84 l-500 0 l0 -84 l500 0 Z" /><glyph glyph-name="" unicode="&#x2018;" d="M149 779 l-122 -243 l98 -40 l91 257 l-67 26 Z" /><glyph glyph-name="" unicode="a" d="M501 525 l0 -86 q-72 96 -197 96 q-60 0 -109 -19 q-49 -20 -84 -55 q-35 -36 -54 -86 q-19 -50 -19 -111 q0 -56 19 -104 q18 -48 55 -86 q39 -39 88 -60 q49 -21 104 -21 q124 0 190 93 l0 -86 l93 0 l0 525 l-86 0 ZM317 73 q-40 0 -73 14 q-34 14 -58 39 q-24 25 -37 60 q-14 35 -14 77 q0 42 14 77 q13 35 37 60 q24 25 58 39 q33 14 73 14 q40 0 73 -13 q34 -14 58 -40 q24 -26 38 -61 q13 -34 13 -76 q0 -42 -13 -76 q-14 -34 -38 -60 q-49 -54 -131 -54 l0 0 Z" /><glyph glyph-name="" unicode="b" d="M170 86 q66 -93 190 -93 q55 0 105 21 q49 21 88 60 q73 76 73 190 q0 61 -19 111 q-19 50 -54 86 q-35 35 -84 55 q-49 19 -109 19 q-125 0 -197 -96 l0 320 l-85 0 l0 -759 l92 0 l0 86 ZM347 73 q-82 0 -131 54 q-24 26 -37 60 q-14 34 -14 76 q0 42 14 76 q13 35 37 61 q50 53 131 53 q40 0 73 -14 q34 -14 58 -39 q24 -25 38 -60 q13 -35 13 -77 q0 -42 -13 -77 q-14 -35 -38 -60 q-24 -25 -58 -39 q-33 -14 -73 -14 l0 0 Z" /><glyph glyph-name="" unicode="c" d="M493 471 q-73 67 -183 67 q-60 0 -109 -21 q-50 -20 -86 -57 q-36 -37 -56 -87 q-20 -51 -20 -111 q0 -120 78 -199 q36 -37 85 -56 q48 -20 108 -20 q56 0 102 17 q45 17 86 55 l-60 69 q-45 -58 -128 -58 q-76 0 -124 54 q-23 26 -36 61 q-13 34 -13 77 q0 43 13 78 q13 36 36 62 q48 54 124 54 q38 0 70 -13 q31 -14 54 -40 l59 68 Z" /><glyph glyph-name="" unicode="d" d="M503 450 q-32 40 -80 62 q-47 23 -113 23 q-57 0 -107 -21 q-51 -21 -90 -60 q-75 -75 -75 -190 q0 -60 20 -110 q19 -50 55 -86 q36 -36 86 -55 q50 -20 111 -20 q125 0 201 86 l0 -79 l85 0 l0 759 l-93 0 l0 -309 ZM322 454 q42 0 76 -14 q33 -14 58 -39 q25 -25 38 -59 q14 -35 14 -77 q0 -42 -14 -76 q-13 -34 -38 -60 q-51 -54 -134 -54 q-83 0 -134 54 q-25 26 -38 60 q-14 34 -14 76 q0 42 14 77 q13 34 38 59 q25 25 58 39 q34 14 76 14 l0 0 Z" /><glyph glyph-name="" unicode="e" d="M585 239 q0 69 -20 124 q-20 55 -56 94 q-37 39 -87 60 q-51 21 -112 21 q-60 0 -109 -20 q-50 -20 -85 -56 q-36 -37 -56 -88 q-20 -52 -20 -115 q0 -54 18 -102 q18 -47 52 -84 q39 -42 92 -64 q53 -22 116 -22 q75 0 135 27 q59 27 110 87 l-67 54 q-73 -85 -175 -85 q-80 0 -131 45 q-25 21 -40 51 q-15 30 -17 66 l452 0 l0 7 ZM133 306 q4 33 19 60 q15 28 39 48 q48 42 118 42 q69 0 116 -41 q47 -39 57 -109 l-349 0 Z" /><glyph glyph-name="" unicode="f" d="M283 764 q-95 -2 -136 -45 q-42 -44 -41 -137 l0 -57 l-79 0 l0 -78 l79 0 l0 -447 l95 0 l0 447 l82 0 l0 78 l-82 0 l0 61 q0 25 2 42 q3 18 11 29 q8 11 24 16 q15 4 41 4 l4 0 l0 87 Z" /><glyph glyph-name="" unicode="g" d="M501 56 q0 -196 -185 -196 q-115 0 -187 90 l-75 -54 q93 -118 258 -118 q284 0 284 297 l0 450 l-85 0 l0 -86 q-72 96 -197 96 q-60 0 -109 -19 q-49 -20 -84 -55 q-36 -36 -55 -86 q-19 -50 -19 -111 q0 -57 19 -104 q19 -48 55 -86 q39 -39 88 -60 q50 -21 105 -21 q125 0 187 93 l0 -30 ZM327 73 q-40 0 -73 14 q-34 14 -58 39 q-24 25 -37 60 q-14 35 -14 77 q0 42 14 77 q13 35 37 60 q24 25 58 39 q33 14 73 14 q40 0 73 -13 q34 -14 58 -40 q24 -26 38 -61 q13 -34 13 -76 q0 -42 -13 -76 q-14 -34 -38 -60 q-49 -54 -131 -54 l0 0 Z" /><glyph glyph-name="" unicode="h" d="M522 304 q-1 112 -52 171 q-51 60 -143 60 q-89 0 -152 -70 l0 294 l-95 0 l0 -759 l95 0 l0 291 q0 163 136 163 q62 0 90 -39 q27 -39 26 -120 l0 -295 l95 0 l0 304 Z" /><glyph glyph-name="" unicode="i" d="M61 700 q1 -27 19 -45 q18 -17 45 -18 q27 1 45 18 q18 18 19 45 q-1 28 -18 46 q-18 17 -46 18 q-27 -1 -45 -19 q-18 -18 -19 -45 l0 0 ZM171 525 l-95 0 l0 -525 l95 0 l0 525 Z" /><glyph glyph-name="" unicode="j" d="M70 700 q1 -27 18 -45 q18 -17 45 -18 q27 1 45 18 q18 18 19 45 q-1 28 -18 46 q-18 17 -46 18 q-27 -1 -45 -19 q-17 -18 -18 -45 l0 0 ZM85 -54 q0 -82 -63 -83 l0 -85 q83 3 121 54 q38 50 37 152 l0 541 l-95 0 l0 -579 Z" /><glyph glyph-name="" unicode="k" d="M172 255 l230 -255 l122 0 l-276 285 l266 240 l-112 0 l-230 -222 l0 456 l-92 0 l0 -759 l92 0 l0 255 Z" /><glyph glyph-name="" unicode="l" d="M171 759 l-92 0 l0 -759 l92 0 l0 759 Z" /><glyph glyph-name="" unicode="m" d="M80 525 l0 -525 l92 0 l0 291 q0 84 32 124 q31 39 98 39 q112 0 112 -159 l0 -295 l89 0 l0 291 q0 84 32 124 q31 39 98 39 q111 0 111 -159 l0 -295 l92 0 l0 304 q0 55 -14 98 q-14 44 -39 73 q-51 60 -139 60 q-103 0 -175 -85 q-58 85 -150 85 q-45 0 -80 -17 q-36 -18 -68 -53 l0 60 l-91 0 Z" /><glyph glyph-name="" unicode="n" d="M172 291 q0 163 139 163 q63 0 91 -39 q28 -39 27 -120 l0 -295 l93 0 l0 304 q-1 112 -52 171 q-51 60 -143 60 q-86 0 -155 -70 l0 60 l-92 0 l0 -525 l92 0 l0 291 Z" /><glyph glyph-name="" unicode="o" d="M309 538 q-57 0 -106 -20 q-49 -21 -87 -59 q-77 -77 -77 -197 q0 -59 19 -108 q20 -50 58 -88 q38 -38 87 -59 q49 -20 106 -20 q57 0 106 20 q49 21 87 59 q38 38 58 88 q19 49 19 108 q0 60 -20 109 q-19 50 -56 88 q-38 39 -88 59 q-49 20 -106 20 l0 0 ZM309 69 q-37 0 -68 14 q-32 15 -55 41 q-23 26 -36 61 q-13 35 -13 77 q0 43 13 78 q13 36 36 62 q48 54 123 54 q75 0 123 -53 q23 -26 36 -62 q13 -36 13 -79 q0 -43 -13 -78 q-13 -35 -36 -61 q-48 -54 -123 -54 l0 0 Z" /><glyph glyph-name="" unicode="p" d="M170 86 q66 -93 190 -93 q55 0 105 21 q49 21 88 60 q73 76 73 190 q0 61 -19 111 q-19 50 -54 86 q-35 35 -84 55 q-49 19 -109 19 q-125 0 -197 -96 l0 86 l-85 0 l0 -743 l92 0 l0 304 ZM347 73 q-82 0 -131 54 q-24 26 -37 60 q-14 34 -14 76 q0 42 14 76 q13 35 37 61 q50 53 131 53 q40 0 73 -14 q34 -14 58 -39 q24 -25 38 -60 q13 -35 13 -77 q0 -42 -13 -77 q-14 -35 -38 -60 q-24 -25 -58 -39 q-33 -14 -73 -14 l0 0 Z" /><glyph glyph-name="" unicode="q" d="M501 525 l0 -86 q-72 96 -197 96 q-60 0 -109 -19 q-49 -20 -84 -55 q-35 -36 -54 -86 q-19 -50 -19 -111 q0 -56 19 -104 q18 -48 55 -86 q39 -39 88 -60 q49 -21 104 -21 q124 0 190 93 l0 -304 l93 0 l0 743 l-86 0 ZM317 73 q-40 0 -73 14 q-34 14 -58 39 q-24 25 -37 60 q-14 35 -14 77 q0 42 14 77 q13 35 37 60 q24 25 58 39 q33 14 73 14 q40 0 73 -13 q34 -14 58 -40 q24 -26 38 -61 q13 -34 13 -76 q0 -42 -13 -76 q-14 -34 -38 -60 q-49 -54 -131 -54 l0 0 Z" /><glyph glyph-name="" unicode="r" d="M172 294 q0 150 119 150 q19 0 46 -6 l0 94 q-10 2 -16 2 l-16 0 q-90 0 -137 -80 l0 71 l-88 0 l0 -525 l92 0 l0 294 Z" /><glyph glyph-name="" unicode="s" d="M44 153 q3 -79 51 -122 q49 -43 140 -44 q43 0 78 12 q34 12 59 34 q50 44 50 116 q0 68 -51 110 q-22 17 -54 28 q-33 11 -75 22 q-52 13 -78 29 q-26 16 -26 50 q0 31 25 51 q24 20 69 21 q84 0 89 -86 l87 0 l0 4 q-1 76 -48 118 q-47 41 -132 42 q-39 0 -72 -11 q-33 -12 -56 -32 q-24 -21 -37 -48 q-13 -28 -13 -60 q0 -59 38 -95 q38 -37 117 -59 l54 -15 q5 -2 11 -3 q6 -2 11 -4 q11 -4 18 -8 q17 -9 26 -21 q8 -13 8 -34 q0 -37 -25 -60 q-26 -22 -74 -23 q-93 0 -99 88 l-91 0 Z" /><glyph glyph-name="" unicode="t" d="M87 109 q-1 -65 29 -94 q31 -29 101 -28 l52 0 l0 88 l-49 0 q-40 0 -40 45 l0 327 l89 0 l0 78 l-89 0 l0 128 l-93 0 l0 -128 l-69 0 l0 -78 l69 0 l0 -338 Z" /><glyph glyph-name="" unicode="u" d="M70 228 q1 -115 58 -178 q57 -62 161 -63 q104 1 161 63 q58 63 59 178 l0 297 l-93 0 l0 -291 q0 -81 -33 -123 q-34 -42 -94 -42 q-60 0 -93 42 q-34 42 -34 123 l0 291 l-92 0 l0 -297 Z" /><glyph glyph-name="" unicode="v" d="M549 525 l-99 0 l-150 -369 q-4 -10 -8 -24 q-5 -14 -11 -34 q-7 23 -13 39 q-6 15 -10 25 l-144 363 l-103 0 l232 -525 l76 0 l230 525 Z" /><glyph glyph-name="" unicode="w" d="M410 381 q5 14 8 26 q3 12 5 23 q2 -12 5 -25 q3 -12 8 -25 l131 -380 l71 0 l196 525 l-94 0 l-116 -338 q-6 -17 -11 -35 q-5 -17 -7 -35 q-9 38 -21 75 l-114 333 l-93 0 l-113 -338 q-9 -31 -18 -70 q-5 23 -10 43 q-5 19 -10 33 l-115 332 l-98 0 l197 -525 l69 0 l130 381 Z" /><glyph glyph-name="" unicode="x" d="M278 203 l152 -203 l121 0 l-224 268 l214 257 l-123 0 l-143 -193 l-146 193 l-117 0 l213 -255 l-223 -270 l121 0 l155 203 Z" /><glyph glyph-name="" unicode="y" d="M229 -218 l326 743 l-102 0 l-137 -332 l-12 -34 q-2 -7 -5 -14 q-3 -8 -5 -17 l-14 -42 q-25 94 -33 107 l-135 332 l-104 0 l219 -525 l-92 -218 l94 0 Z" /><glyph glyph-name="" unicode="z" d="M52 447 l240 0 l-270 -447 l409 0 l0 79 l-262 0 l272 446 l-389 0 l0 -78 Z" /><glyph glyph-name="" unicode="{" d="M405 721 q-48 0 -82 -4 q-34 -5 -60 -20 q-33 -20 -42 -55 q-9 -36 -8 -92 l0 -121 q1 -68 -25 -98 q-26 -30 -88 -29 q-4 0 -6 0 q-3 0 -4 1 l-11 0 l0 -87 q8 0 11 1 l10 0 q62 1 88 -29 q26 -31 25 -99 l0 -121 q-1 -56 9 -91 q9 -35 41 -55 q24 -14 56 -19 q32 -5 77 -5 l31 0 l0 86 l-11 0 q-3 -1 -11 -1 q-57 0 -75 24 q-10 12 -13 32 q-4 20 -4 50 l0 117 q0 34 -4 59 q-4 25 -15 44 q-20 33 -80 50 q31 7 50 19 q19 13 30 31 q11 18 15 44 q4 25 4 59 l0 118 q0 30 4 50 q3 20 13 32 q17 23 74 23 l11 0 q3 -1 12 -1 l0 87 l-22 0 Z" /><glyph glyph-name="" unicode="|" d="M294 -236 l0 1000 l-87 0 l0 -1000 l87 0 Z" /><glyph glyph-name="" unicode="}" d="M74 634 q9 0 12 1 l11 0 q54 0 74 -23 q9 -12 13 -32 q3 -20 3 -50 l0 -118 q0 -34 4 -59 q4 -25 15 -43 q11 -19 31 -31 q19 -13 50 -20 q-61 -17 -81 -50 q-11 -19 -15 -44 q-4 -25 -4 -59 l0 -117 q0 -30 -3 -50 q-4 -20 -13 -32 q-18 -24 -75 -24 q-4 0 -6 0 q-3 0 -4 1 l-12 0 l0 -86 l22 0 q48 0 82 5 q35 4 59 19 q33 20 42 56 q9 36 8 90 l0 121 q-1 68 25 99 q26 30 88 29 l11 0 q1 -1 4 -1 q2 0 6 0 l0 87 l-10 0 q-3 -1 -11 -1 q-62 -1 -88 29 q-26 30 -25 98 l0 121 q1 55 -8 91 q-9 36 -42 56 q-26 15 -60 20 q-33 4 -81 4 l-22 0 l0 -87 Z" /><glyph glyph-name="" unicode="~" d="M747 383 q-51 -37 -95 -56 q-45 -19 -90 -19 q-36 1 -71 12 q-35 11 -72 24 q-30 12 -65 20 q-35 9 -78 9 q-85 0 -189 -70 l0 -91 q53 38 99 58 q45 19 89 19 q48 0 95 -15 q46 -16 98 -33 q53 -17 93 -17 q45 0 91 18 q46 17 95 51 l0 90 Z" /><glyph glyph-name="" unicode="¡" d="M203 709 q-1 27 -19 45 q-18 17 -45 18 q-27 -1 -45 -18 q-18 -18 -19 -45 q1 -28 19 -45 q17 -18 45 -19 q27 1 45 19 q18 18 19 45 l0 0 ZM90 0 l97 0 l0 583 l-97 0 l0 -583 Z" /><glyph glyph-name="" unicode="¢" d="M508 576 q-34 32 -74 48 q-40 17 -88 20 l0 143 l-51 0 l0 -145 q-57 -6 -101 -28 q-44 -23 -75 -59 q-31 -36 -48 -83 q-17 -47 -17 -104 q0 -113 66 -187 q32 -36 76 -58 q44 -23 99 -29 l0 -144 l51 0 l0 144 q87 0 167 71 l-60 69 q-20 -26 -47 -41 q-26 -14 -60 -17 l0 384 q63 -7 103 -52 l59 68 ZM295 178 q-32 4 -58 20 q-26 16 -45 41 q-19 25 -29 58 q-11 33 -11 71 q0 77 39 128 q19 25 45 41 q27 17 59 22 l0 -381 Z" /><glyph glyph-name="" unicode="£" d="M98 -2 q53 43 123 43 q15 0 30 -3 q14 -4 27 -9 l43 -18 q18 -8 37 -13 q20 -5 46 -5 q31 0 59 9 q28 9 57 28 l-34 79 q-37 -21 -72 -21 q-17 0 -34 6 q-16 5 -34 12 q-18 6 -37 12 q-20 5 -44 5 q-17 0 -38 -3 q-21 -4 -46 -9 q75 71 75 153 q0 12 -2 28 q-3 15 -8 33 l114 0 l0 65 l-139 0 q-14 33 -26 61 q-12 27 -20 49 q-16 39 -16 62 q1 46 31 73 q29 26 81 27 q55 0 86 -31 q31 -30 32 -85 l0 -5 l96 0 q0 48 -15 85 q-16 37 -43 64 q-28 26 -67 41 q-39 14 -87 14 q-98 -1 -152 -48 q-54 -47 -55 -129 q1 -38 16 -81 q16 -43 40 -97 l-74 0 l0 -65 l102 0 q16 -31 16 -67 q0 -91 -113 -189 l45 -71 Z" /><glyph glyph-name="" unicode="&#x2044;" d="M-87 -9 l420 754 l-79 0 l-421 -754 l80 0 Z" /><glyph glyph-name="" unicode="¥" d="M127 485 l-143 0 l0 -50 l171 0 l59 -103 l-230 0 l0 -50 l251 0 l0 -282 l90 0 l0 282 l246 0 l0 50 l-227 0 l59 103 l168 0 l0 50 l-141 0 l139 246 l-99 0 l-175 -320 q-5 -8 -9 -16 q-4 -9 -6 -20 q-7 24 -15 36 l-175 320 l-104 0 l141 -246 Z" /><glyph glyph-name="" unicode="&#x192;" d="M119 476 l0 -80 l103 0 l-87 -406 q-7 -32 -14 -56 q-8 -24 -19 -40 q-12 -16 -27 -23 q-16 -8 -39 -8 q-19 0 -61 9 l-18 -84 q27 -5 50 -9 q22 -3 41 -3 q73 0 115 50 q21 25 36 63 q16 38 27 89 l91 418 l133 0 l0 79 l-117 0 l12 56 q7 32 15 56 q8 24 19 40 q11 15 27 23 q16 8 39 8 q18 0 60 -9 l18 85 q-54 11 -91 11 q-74 0 -116 -50 q-41 -49 -62 -152 l-14 -67 l-121 0 Z" /><glyph glyph-name="" unicode="§" d="M85 35 q32 -45 74 -66 q41 -22 89 -22 q67 0 105 35 q38 35 39 98 q0 66 -52 118 q107 20 107 116 q0 39 -21 78 q-22 39 -67 81 l-90 89 q-30 30 -46 50 q-17 20 -17 37 q0 22 13 36 q14 15 37 15 q20 0 39 -13 q18 -13 41 -39 l69 50 q-63 81 -157 81 q-61 0 -99 -34 q-19 -17 -29 -40 q-11 -22 -11 -49 q0 -29 13 -54 q12 -26 37 -53 q-51 -10 -79 -41 q-29 -32 -29 -78 q0 -40 23 -75 q22 -35 62 -76 l100 -103 q27 -27 43 -48 q16 -22 16 -46 q0 -24 -15 -38 q-14 -14 -39 -14 q-37 0 -87 58 l-69 -53 ZM144 441 q0 18 11 29 q10 12 28 12 q20 0 44 -19 q25 -20 58 -56 q33 -33 51 -56 q18 -24 18 -45 q0 -18 -11 -29 q-10 -11 -25 -11 q-23 0 -47 20 q-25 19 -59 55 q-32 33 -50 56 q-18 24 -18 44 l0 0 Z" /><glyph glyph-name="" unicode="&#39;" d="M122 429 l0 272 l-80 0 l0 -272 l80 0 Z" /><glyph glyph-name="" unicode="&#x201c;" d="M149 779 l-122 -243 l98 -40 l91 257 l-67 26 ZM362 779 l-122 -243 l97 -40 l92 257 l-67 26 Z" /><glyph glyph-name="" unicode="«" d="M64 263 l112 -195 l95 0 l-111 195 l111 194 l-95 0 l-112 -194 ZM280 263 l112 -195 l95 0 l-111 195 l111 194 l-95 0 l-112 -194 Z" /><glyph glyph-name="" unicode="&#x2039;" d="M64 263 l112 -195 l95 0 l-111 195 l111 194 l-95 0 l-112 -194 Z" /><glyph glyph-name="" unicode="&#x203a;" d="M258 263 l-112 194 l-96 0 l112 -194 l-112 -195 l96 0 l112 195 Z" /><glyph glyph-name="" unicode="&#x2013;" d="M500 294 l-500 0 l0 -63 l500 0 l0 63 Z" /><glyph glyph-name="" unicode=" &#x2020;" d="M267 -55 q5 131 12 233 q8 103 26 183 q-20 66 -38 175 l164 -34 l0 104 l-163 -31 l35 204 l-107 0 l35 -204 l-163 31 l0 -104 l163 34 q-5 -48 -15 -92 q-9 -43 -22 -83 q11 -37 22 -141 q11 -104 15 -275 l36 0 Z" /><glyph glyph-name="" unicode="&#x2021;" d="M306 367 q-9 22 -18 64 q-10 42 -21 105 l165 -34 l0 104 l-164 -31 l35 204 l-107 0 l36 -204 l-163 31 l0 -104 l163 34 q-8 -58 -17 -100 q-9 -42 -21 -68 q9 -22 18 -63 q10 -42 21 -105 l-165 34 l0 -105 l164 32 l-35 -204 l107 0 l-36 204 l163 -32 l0 105 l-163 -34 q8 60 18 102 q9 42 20 65 l0 0 Z" /><glyph glyph-name="" unicode="·" d="M75 368 q1 -27 19 -45 q18 -18 45 -19 q27 1 45 19 q18 18 19 45 q-1 28 -18 46 q-18 17 -46 18 q-27 -1 -45 -19 q-18 -18 -19 -45 l0 0 Z" /><glyph glyph-name="" unicode="¶" d="M302 399 q2 -109 0 -216 q-1 -108 0 -217 l78 0 l0 812 l-51 0 q-13 -1 -25 -1 q-12 0 -25 0 q-18 0 -43 -1 q-26 -2 -55 -8 q-29 -6 -56 -18 q-28 -12 -51 -32 q-24 -21 -37 -50 q-14 -30 -14 -72 q0 -69 22 -108 q21 -40 60 -59 q39 -20 89 -25 q50 -6 108 -5 l0 0 ZM403 778 l0 -812 l78 0 l0 812 l-78 0 ZM301 474 q-34 -1 -68 2 q-35 2 -65 13 q-30 11 -48 36 q-18 26 -18 73 q0 42 18 65 q17 23 45 32 q28 9 64 11 q35 2 72 2 l0 -234 Z" /><glyph glyph-name="" unicode="&#x2022;" d="M150 372 q0 -60 42 -102 q20 -20 46 -32 q26 -11 56 -11 q30 0 56 11 q27 12 47 32 q42 42 42 102 q0 60 -42 102 q-42 42 -102 42 q-60 0 -102 -42 q-20 -20 -32 -46 q-11 -26 -11 -56 l0 0 Z" /><glyph glyph-name="" unicode="&#x201a;" d="M95 -162 l121 243 l-97 40 l-92 -257 l68 -26 Z" /><glyph glyph-name="" unicode="&#x201e;" d="M95 -162 l121 243 l-97 40 l-92 -257 l68 -26 ZM308 -162 l121 243 l-97 40 l-92 -257 l68 -26 Z" /><glyph glyph-name="" unicode="&#x201d;" d="M95 496 l121 243 l-97 40 l-92 -257 l68 -26 ZM308 496 l121 243 l-97 40 l-92 -257 l68 -26 Z" /><glyph glyph-name="" unicode="»" d="M234 263 l-112 194 l-95 0 l111 -194 l-111 -195 l95 0 l112 195 ZM450 263 l-112 194 l-95 0 l111 -194 l-111 -195 l95 0 l112 195 Z" /><glyph glyph-name="" unicode="&#x2026;" d="M103 51 q1 -27 19 -45 q18 -18 45 -19 q27 1 45 19 q18 18 19 45 q-1 28 -18 45 q-18 17 -46 18 q-27 -1 -45 -18 q-18 -18 -19 -45 l0 0 ZM436 51 q1 -27 19 -45 q18 -18 45 -19 q27 1 45 19 q18 18 19 45 q-1 28 -18 45 q-18 17 -46 18 q-27 -1 -45 -18 q-18 -18 -19 -45 l0 0 ZM770 51 q1 -27 19 -45 q18 -18 45 -19 q27 1 45 19 q18 18 19 45 q-1 28 -18 45 q-18 17 -46 18 q-27 -1 -45 -18 q-18 -18 -19 -45 l0 0 Z" /><glyph glyph-name="" unicode="&#x2030;" d="M49 517 q1 -64 41 -101 q40 -37 108 -38 q68 1 108 38 q41 37 42 101 l0 86 q-1 67 -39 105 q-38 37 -108 38 q-69 0 -110 -38 q-42 -39 -42 -102 l0 -89 ZM299 -9 l354 755 l-75 0 l-354 -755 l75 0 ZM131 578 q0 97 67 97 q68 0 68 -97 l0 -34 q0 -97 -68 -97 q-67 0 -67 97 l0 34 ZM530 130 q1 -64 42 -101 q40 -37 108 -38 q68 1 108 38 q41 37 42 101 l0 86 q-1 67 -39 104 q-38 37 -108 38 q-35 0 -63 -10 q-28 -10 -48 -28 q-42 -39 -42 -101 l0 -89 ZM907 130 q1 -64 42 -101 q40 -37 108 -38 q68 1 108 38 q41 37 42 101 l0 86 q-1 67 -39 104 q-38 37 -108 38 q-35 0 -63 -10 q-28 -10 -48 -28 q-42 -39 -42 -101 l0 -89 ZM612 190 q0 97 68 97 q67 0 67 -97 l0 -33 q0 -49 -16 -73 q-16 -24 -51 -24 q-68 0 -68 97 l0 33 ZM990 190 q0 97 67 97 q68 0 68 -97 l0 -33 q0 -97 -68 -97 q-67 0 -67 97 l0 33 Z" /><glyph glyph-name="" unicode="¿" d="M343 715 q-1 27 -18 45 q-18 18 -45 19 q-27 -1 -45 -19 q-18 -18 -19 -45 q1 -28 19 -45 q17 -18 45 -19 q27 1 45 19 q17 18 18 45 l0 0 ZM232 554 q0 -9 1 -13 l0 -20 q0 -49 -22 -81 q-23 -31 -53 -55 q-31 -24 -55 -41 q-24 -17 -44 -44 q-17 -22 -26 -49 q-8 -27 -8 -61 q1 -95 57 -148 q56 -54 157 -55 q46 0 84 15 q38 15 66 43 q27 27 43 66 q15 39 16 88 l-99 0 l0 -9 q-1 -55 -31 -87 q-31 -31 -83 -32 q-50 1 -79 31 q-30 31 -31 83 q0 22 8 43 q8 17 22 33 q14 17 40 35 q12 8 27 21 q15 12 32 28 q39 38 56 86 q17 49 17 117 l0 18 l0 10 q0 6 -1 9 l-94 0 l0 -16 l0 -15 Z" /><glyph glyph-name="" unicode="`" d="M122 762 l139 -171 l59 0 l-100 171 l-98 0 Z" /><glyph glyph-name="" unicode="´" d="M378 762 l-98 0 l-100 -171 l59 0 l139 171 Z" /><glyph glyph-name="" unicode="&#x2c6;" d="M250 703 l84 -112 l60 0 l-96 171 l-96 0 l-96 -171 l59 0 l85 112 Z" /><glyph glyph-name="" unicode="&#x2dc;" d="M350 727 q-14 -36 -46 -36 q-2 0 -8 1 q-7 2 -18 4 l-48 14 q-9 4 -29 4 q-36 0 -60 -26 q-25 -25 -34 -74 l43 0 q13 33 44 33 q5 0 11 0 q5 -1 13 -3 l47 -14 q11 -2 19 -4 q8 -1 13 -1 q77 0 96 102 l-43 0 Z" /><glyph glyph-name="" unicode="¯" d="M382 705 l-264 0 l0 -68 l264 0 l0 68 Z" /><glyph glyph-name="" unicode="&#x2d8;" d="M108 744 q5 -71 39 -104 q34 -32 103 -32 q69 0 103 32 q34 33 39 104 l-53 0 q-5 -68 -89 -68 q-84 0 -89 68 l-53 0 Z" /><glyph glyph-name="" unicode="&#x2d9;" d="M193 671 q0 -25 16 -41 q16 -16 41 -17 q25 1 41 17 q16 16 17 41 q-1 24 -17 41 q-17 16 -41 17 q-24 -1 -40 -17 q-16 -17 -17 -41 l0 0 Z" /><glyph glyph-name="" unicode="¨" d="M106 671 q1 -24 16 -39 q16 -16 40 -16 q24 0 39 16 q15 15 15 39 q0 24 -15 39 q-15 15 -39 16 q-24 -1 -40 -17 q-15 -16 -16 -38 l0 0 ZM284 671 q1 -24 16 -39 q15 -16 39 -16 q24 0 40 16 q15 15 15 39 q-1 24 -16 39 q-15 15 -39 16 q-24 -1 -39 -17 q-15 -16 -16 -38 l0 0 Z" /><glyph glyph-name="" unicode="&#x2da;" d="M127 706 q0 -52 36 -88 q35 -36 87 -36 q53 1 88 36 q35 35 36 88 q0 53 -36 88 q-17 17 -39 26 q-23 9 -49 9 q-52 0 -87 -35 q-36 -36 -36 -88 l0 0 ZM184 705 q1 28 19 47 q19 18 47 19 q28 -1 47 -19 q18 -19 19 -47 q-1 -28 -19 -47 q-19 -18 -47 -19 q-28 1 -47 19 q-18 19 -19 47 l0 0 Z" /><glyph glyph-name="" unicode="¸" d="M143 -208 q39 -11 71 -17 q32 -5 55 -5 q60 0 92 24 q31 23 31 68 q0 88 -109 88 l-14 0 l0 50 l-38 0 l0 -97 q3 1 8 1 l6 0 l12 0 q65 0 65 -42 q0 -40 -58 -40 q-16 0 -46 4 q-30 4 -75 15 l0 -49 Z" /><glyph glyph-name="" unicode="&#x2dd;" d="M306 762 l-87 0 l-67 -171 l47 0 l107 171 ZM445 762 l-86 0 l-81 -171 l47 0 l120 171 Z" /><glyph glyph-name="" unicode="&#x2db;" d="M263 0 q-45 -35 -68 -67 q-23 -32 -23 -67 q0 -82 110 -82 l42 0 l0 70 l-41 0 q-26 0 -37 8 q-10 9 -10 30 q0 26 17 53 q17 26 50 55 l-40 0 Z" /><glyph glyph-name="" unicode="&#x2c7;" d="M298 591 l96 171 l-60 0 l-84 -112 l-85 112 l-59 0 l96 -171 l96 0 Z" /><glyph glyph-name="" unicode="&#x2014;" d="M1000 294 l-1000 0 l0 -63 l1000 0 l0 63 Z" /><glyph glyph-name="" unicode="æ" d="M800 90 l-298 0 l0 257 l298 0 l0 88 l-298 0 l0 239 l298 0 l0 90 l-448 0 l-383 -764 l101 0 l86 177 l253 0 l0 -177 l391 0 l0 90 ZM409 260 l-212 0 l212 440 l0 -440 Z" /><glyph glyph-name="" unicode="ª" d="M376 763 l0 -60 q-52 67 -148 67 q-45 0 -81 -14 q-37 -13 -63 -38 q-27 -25 -41 -60 q-14 -35 -14 -77 q0 -40 15 -74 q15 -35 42 -61 q27 -26 64 -41 q36 -14 78 -14 q93 0 143 65 l0 -60 l69 0 l0 367 l-64 0 ZM238 447 q-30 0 -55 10 q-25 10 -43 28 q-39 36 -39 95 q0 59 39 96 q18 17 43 27 q25 10 55 10 q30 0 55 -10 q25 -10 43 -27 q18 -18 28 -42 q10 -25 10 -54 q0 -59 -38 -95 q-18 -18 -43 -28 q-25 -10 -55 -10 l0 0 Z" /><glyph glyph-name="" unicode="ø" d="M635 730 q-43 26 -91 38 q-48 11 -105 11 q-169 0 -276 -104 q-60 -57 -89 -131 q-30 -74 -30 -162 q0 -196 145 -309 l-82 -120 l56 -38 l79 119 q43 -26 91 -38 q49 -11 106 -11 q85 0 153 27 q69 26 123 77 q60 57 90 131 q29 74 29 162 q0 195 -146 309 l82 120 l-56 38 l-79 -119 ZM239 145 q-45 47 -69 108 q-24 62 -24 129 q0 69 22 125 q22 56 61 97 q39 41 93 63 q53 22 116 22 q42 0 80 -9 q37 -9 67 -23 l-346 -512 ZM639 617 q93 -101 93 -235 q0 -69 -21 -124 q-22 -55 -61 -97 q-40 -42 -95 -64 q-56 -22 -123 -22 q-78 0 -141 31 l348 511 Z" /><glyph glyph-name="" unicode="&#x152;" d="M715 625 q-82 154 -282 154 q-163 0 -271 -105 q-58 -57 -88 -131 q-30 -73 -30 -161 q0 -88 30 -161 q30 -74 88 -131 q108 -105 277 -105 q103 0 173 42 q69 42 103 120 l0 -147 l386 0 l0 90 l-297 0 l0 257 l297 0 l0 88 l-297 0 l0 239 l297 0 l0 90 l-386 0 l0 -139 ZM438 689 q117 -2 194 -86 q76 -84 79 -221 q0 -136 -83 -228 q-36 -39 -84 -59 q-49 -20 -106 -20 q-63 0 -115 22 q-53 23 -92 64 q-40 41 -62 97 q-23 55 -23 124 q0 69 23 125 q22 55 65 100 q81 82 204 82 l0 0 Z" /><glyph glyph-name="" unicode="º" d="M232 773 q-43 0 -80 -14 q-37 -14 -64 -40 q-28 -26 -43 -62 q-16 -36 -16 -78 q2 -84 60 -137 q57 -53 143 -55 q42 0 79 14 q37 15 65 41 q27 26 43 61 q15 34 15 76 q0 42 -15 77 q-16 36 -43 62 q-27 26 -64 41 q-37 14 -80 14 l0 0 ZM232 444 q-57 1 -93 38 q-35 36 -36 97 q1 61 36 98 q36 37 93 38 q56 0 92 -38 q17 -18 27 -43 q10 -25 10 -55 q0 -30 -10 -55 q-10 -25 -27 -42 q-36 -38 -92 -38 l0 0 Z" /><glyph glyph-name="" unicode="æ" d="M501 439 q-72 96 -197 96 q-60 0 -109 -19 q-49 -20 -84 -55 q-35 -36 -54 -86 q-19 -50 -19 -111 q0 -117 73 -190 q39 -39 88 -60 q50 -21 105 -21 q68 0 117 26 q49 27 80 80 l0 -99 l70 0 l0 94 q30 -51 83 -79 q53 -28 122 -28 q134 0 233 114 l-68 54 q-73 -85 -174 -85 q-39 0 -73 12 q-34 11 -59 33 q-25 21 -40 51 q-15 30 -17 66 l453 0 l0 9 q0 67 -20 121 q-20 55 -56 94 q-36 39 -84 61 q-48 21 -105 21 q-121 0 -195 -99 l0 86 l-70 0 l0 -86 ZM578 306 q4 33 19 60 q15 28 39 48 q48 42 119 42 q69 0 116 -41 q47 -39 57 -109 l-350 0 ZM317 73 q-40 0 -73 14 q-34 14 -58 39 q-24 25 -37 60 q-14 35 -14 77 q0 42 14 77 q13 35 37 60 q24 25 58 39 q33 14 73 14 q40 0 73 -13 q34 -14 58 -40 q24 -26 38 -61 q13 -34 13 -76 q0 -42 -13 -76 q-14 -34 -38 -60 q-49 -54 -131 -54 l0 0 Z" /><glyph glyph-name="" unicode="&#x131;" d="M171 525 l-92 0 l0 -525 l92 0 l0 525 Z" /><glyph glyph-name="" unicode="ø" d="M434 506 q-59 32 -125 32 q-57 0 -106 -20 q-49 -21 -87 -59 q-77 -77 -77 -197 q0 -63 22 -113 q23 -50 71 -94 l-79 -116 l51 -34 l79 114 q59 -32 126 -32 q57 0 106 20 q49 21 87 59 q38 38 58 88 q19 49 19 108 q0 63 -23 113 q-22 51 -71 95 l79 116 l-51 34 l-79 -114 ZM180 127 q-23 29 -33 62 q-10 33 -10 73 q0 42 13 78 q13 36 36 62 q48 54 123 54 q27 0 80 -17 l-209 -312 ZM438 399 q23 -30 33 -64 q10 -34 10 -73 q0 -45 -13 -80 q-13 -35 -36 -60 q-24 -25 -58 -39 q-33 -14 -73 -14 q-39 0 -75 17 l212 313 Z" /><glyph glyph-name="" unicode="&#x153;" d="M1021 239 q0 69 -20 124 q-20 55 -56 94 q-37 39 -87 60 q-51 21 -112 21 q-139 0 -219 -129 q-39 63 -95 96 q-56 33 -123 33 q-117 -2 -192 -78 q-75 -76 -78 -198 q0 -59 19 -108 q20 -50 58 -88 q38 -39 86 -59 q48 -20 102 -20 q146 0 223 132 q37 -63 98 -97 q61 -35 140 -35 q135 0 234 114 l-67 54 q-73 -85 -175 -85 q-80 0 -131 45 q-25 21 -40 51 q-15 30 -17 66 l452 0 l0 7 ZM309 69 q-37 0 -68 14 q-32 15 -55 41 q-23 26 -36 61 q-13 35 -13 77 q0 43 13 78 q13 36 36 62 q48 54 123 54 q75 0 123 -53 q23 -26 36 -62 q13 -36 13 -79 q0 -43 -13 -78 q-13 -35 -36 -61 q-48 -54 -123 -54 l0 0 ZM569 306 q4 33 19 60 q15 28 39 48 q48 42 119 42 q35 0 64 -10 q29 -10 52 -30 q23 -20 37 -48 q14 -28 19 -62 l-349 0 Z" /><glyph glyph-name="" unicode="ß" d="M194 533 q-1 75 20 113 q22 38 80 38 q43 -1 71 -29 q27 -29 28 -78 q0 -51 -28 -79 q-27 -29 -76 -29 l-21 0 l0 -79 l29 0 q39 0 72 -12 q32 -12 56 -33 q48 -44 48 -116 q-1 -69 -42 -111 q-41 -42 -108 -43 q-40 0 -73 16 l-22 -84 q47 -20 96 -20 q54 0 99 19 q45 18 78 51 q33 33 51 78 q18 45 18 99 q0 83 -47 138 q-23 27 -56 45 q-32 18 -72 25 q43 17 66 52 q23 35 23 86 q0 39 -14 73 q-14 33 -39 58 q-25 24 -60 38 q-35 14 -77 14 q-91 -1 -141 -56 q-50 -55 -51 -158 l0 -24 l-71 0 l0 -78 l71 0 l0 -447 l92 0 l0 533 Z" /><glyph glyph-name="" unicode="¬" d="M628 340 l0 -164 l81 0 l0 245 l-585 0 l0 -81 l504 0 Z" /><glyph glyph-name="" unicode="µ" d="M459 517 l-112 0 l0 -337 q0 -23 -11 -43 q-12 -19 -30 -34 q-19 -15 -42 -24 q-23 -10 -45 -12 q-3 0 -7 2 l-9 3 q-37 5 -57 30 q-19 26 -26 60 q-8 34 -8 73 l0 70 q0 26 1 62 l0 69 l0 57 l0 24 q0 -1 -17 -1 l-38 0 q-11 0 -21 0 q-9 0 -18 1 l-18 0 l0 -31 l0 -82 l0 -117 l0 -133 q0 -34 0 -67 q0 -34 1 -66 l0 -117 l0 -83 l0 -32 l15 0 q8 -1 17 -1 q8 0 18 0 l36 0 q15 -1 15 0 q1 0 0 17 q0 8 0 19 q0 11 1 24 l0 57 q0 30 1 56 q0 26 1 44 l0 17 q17 -19 41 -30 q23 -11 51 -11 q35 0 61 7 q26 8 45 22 q36 26 55 69 l4 -45 l3 -43 l99 0 q-5 12 -6 24 q-1 12 -1 23 l1 479 Z" /><glyph glyph-name="" unicode="&#x2122;" d="M193 667 l0 -219 l63 0 l0 219 l82 0 l0 46 l-228 0 l0 -46 l83 0 ZM451 448 l0 209 l81 -209 l29 0 l78 209 l0 -209 l56 0 l0 265 l-83 0 l-65 -176 l-69 176 l-83 0 l0 -265 l56 0 Z" /><glyph glyph-name="" unicode="±" d="M124 426 l0 -81 l251 0 l0 -163 l83 0 l0 163 l251 0 l0 81 l-251 0 l0 163 l-83 0 l0 -163 l-251 0 ZM709 7 l0 82 l-585 0 l0 -82 l585 0 Z" /><glyph glyph-name="" unicode="÷" d="M417 551 q-28 -1 -47 -20 q-19 -19 -20 -48 q1 -28 19 -47 q18 -18 48 -19 q30 1 48 20 q18 18 19 46 q-1 29 -20 48 q-19 19 -47 20 l0 0 ZM709 258 l0 81 l-585 0 l0 -81 l585 0 ZM417 179 q-28 -1 -47 -20 q-19 -19 -20 -47 q1 -28 19 -47 q18 -18 48 -19 q30 1 48 20 q18 18 19 46 q-1 28 -20 47 q-19 19 -47 20 l0 0 Z" /><glyph glyph-name="" unicode="°" d="M165 713 q-60 0 -102 -42 q-42 -42 -42 -103 q0 -60 42 -102 q42 -42 101 -42 q30 0 56 11 q27 12 47 32 q42 42 42 101 q0 61 -42 103 q-42 42 -102 42 l0 0 ZM165 659 q39 -1 64 -26 q25 -25 26 -64 q0 -37 -26 -63 q-12 -13 -29 -20 q-16 -8 -35 -8 q-39 1 -65 26 q-25 26 -26 65 q1 39 26 64 q26 25 65 26 l0 0 Z" /><glyph glyph-name="" unicode="®" d="M416 718 q-148 0 -252 -103 q-54 -54 -81 -120 q-28 -66 -28 -138 q0 -72 27 -137 q27 -64 78 -116 q52 -54 118 -81 q65 -28 138 -28 q72 0 137 27 q65 27 119 79 q52 51 79 116 q27 65 27 140 q0 73 -26 137 q-26 65 -77 116 q-107 108 -259 108 l0 0 ZM417 665 q64 0 120 -24 q56 -25 98 -67 q42 -42 66 -99 q24 -57 24 -123 q0 -61 -22 -116 q-23 -55 -68 -97 q-93 -90 -223 -90 q-61 0 -114 23 q-54 23 -100 69 q-45 45 -67 100 q-22 55 -22 116 q0 61 24 118 q24 56 69 102 q44 44 98 66 q53 22 117 22 l0 0 ZM356 161 l0 169 l63 0 l80 -169 l97 0 l-90 183 q90 19 90 112 q0 110 -171 110 l-156 0 l0 -405 l87 0 ZM409 511 q51 0 75 -15 q23 -15 23 -50 q0 -33 -23 -47 q-23 -15 -71 -15 l-57 0 l0 127 l53 0 Z" /><glyph glyph-name="" unicode="©" d="M416 718 q-150 0 -253 -105 q-52 -54 -80 -119 q-28 -65 -28 -137 q0 -72 28 -138 q27 -65 79 -117 q52 -52 117 -79 q65 -28 137 -28 q72 0 138 27 q66 27 120 81 q104 102 104 254 q0 75 -27 140 q-27 64 -78 115 q-53 53 -117 80 q-64 26 -140 26 l0 0 ZM417 665 q63 0 119 -22 q55 -23 100 -68 q45 -45 67 -100 q22 -55 22 -118 q0 -129 -89 -216 q-46 -45 -102 -68 q-56 -24 -117 -24 q-61 0 -116 23 q-56 23 -101 68 q-91 91 -91 217 q0 61 23 117 q23 57 68 102 q44 44 99 67 q54 22 118 22 l0 0 ZM589 441 q-4 60 -51 98 q-23 17 -53 27 q-30 10 -66 10 q-89 -1 -142 -58 q-53 -58 -54 -164 q1 -103 52 -159 q50 -56 142 -57 q38 0 70 10 q31 11 54 31 q47 41 52 105 l-81 0 q-6 -40 -29 -61 q-24 -21 -63 -21 q-51 0 -79 40 q-29 40 -29 115 q0 78 28 119 q27 40 75 40 q39 0 63 -19 q24 -20 30 -56 l81 0 Z" /><glyph glyph-name="" unicode="á" d="M492 1004 l-98 0 l-100 -171 l59 0 l139 171 ZM180 177 l359 0 l68 -177 l116 0 l-322 765 l-83 0 l-312 -765 l106 0 l68 177 ZM337 574 l8 24 l15 47 q9 -31 15 -48 l8 -23 l120 -307 l-288 0 l122 307 Z" /><glyph glyph-name="" unicode="â" d="M364 945 l84 -112 l60 0 l-96 171 l-96 0 l-96 -171 l59 0 l85 112 ZM180 177 l359 0 l68 -177 l116 0 l-322 765 l-83 0 l-312 -765 l106 0 l68 177 ZM337 574 l8 24 l15 47 q9 -31 15 -48 l8 -23 l120 -307 l-288 0 l122 307 Z" /><glyph glyph-name="" unicode="ä" d="M220 913 q1 -24 16 -39 q16 -16 40 -16 q24 0 39 16 q15 15 15 39 q0 24 -15 39 q-15 15 -39 16 q-24 -1 -40 -17 q-15 -16 -16 -38 l0 0 ZM398 913 q1 -24 16 -39 q15 -16 39 -16 q24 0 40 16 q15 15 15 39 q-1 24 -16 39 q-15 15 -39 16 q-24 -1 -39 -17 q-15 -16 -16 -38 l0 0 ZM180 177 l359 0 l68 -177 l116 0 l-322 765 l-83 0 l-312 -765 l106 0 l68 177 ZM337 574 l8 24 l15 47 q9 -31 15 -48 l8 -23 l120 -307 l-288 0 l122 307 Z" /><glyph glyph-name="" unicode="à" d="M236 1004 l139 -171 l59 0 l-100 171 l-98 0 ZM180 177 l359 0 l68 -177 l116 0 l-322 765 l-83 0 l-312 -765 l106 0 l68 177 ZM337 574 l8 24 l15 47 q9 -31 15 -48 l8 -23 l120 -307 l-288 0 l122 307 Z" /><glyph glyph-name="" unicode="å" d="M236 920 q1 -53 36 -88 q35 -35 88 -36 q53 0 88 36 q17 17 26 40 q9 22 9 48 q0 26 -9 49 q-9 22 -26 39 q-17 17 -39 26 q-23 9 -49 9 q-26 0 -48 -9 q-23 -9 -40 -26 q-36 -35 -36 -88 l0 0 ZM294 920 q1 28 19 47 q19 18 47 19 q28 -1 47 -19 q18 -19 19 -47 q-1 -28 -19 -47 q-19 -18 -47 -19 q-28 1 -47 19 q-18 19 -19 47 l0 0 ZM180 177 l359 0 l68 -177 l116 0 l-322 765 l-83 0 l-312 -765 l106 0 l68 177 ZM337 574 l8 24 l15 47 q9 -31 15 -48 l8 -23 l120 -307 l-288 0 l122 307 Z" /><glyph glyph-name="" unicode="ã" d="M464 969 q-14 -36 -46 -36 q-2 0 -8 1 q-7 2 -18 4 l-48 14 q-9 4 -29 4 q-36 0 -60 -26 q-25 -25 -34 -74 l43 0 q13 33 44 33 q5 0 11 0 q5 -1 13 -3 l47 -14 q11 -2 19 -4 q8 -1 13 -1 q77 0 96 102 l-43 0 ZM180 177 l359 0 l68 -177 l116 0 l-322 765 l-83 0 l-312 -765 l106 0 l68 177 ZM337 574 l8 24 l15 47 q9 -31 15 -48 l8 -23 l120 -307 l-288 0 l122 307 Z" /><glyph glyph-name="" unicode="ç" d="M445 -50 l0 35 q161 2 269 105 l-66 71 q-77 -86 -209 -86 q-63 0 -116 22 q-54 23 -93 64 q-40 41 -62 97 q-22 55 -22 124 q0 69 23 125 q22 56 62 97 q39 41 92 63 q53 22 116 22 q66 0 116 -21 q49 -21 88 -59 l64 72 q-53 49 -120 73 q-68 25 -148 25 q-169 0 -277 -105 q-58 -57 -88 -131 q-30 -73 -30 -161 q0 -88 30 -161 q29 -78 108 -150 q79 -72 225 -85 l0 -83 q3 1 8 1 l6 0 l12 0 q65 0 65 -42 q0 -40 -58 -40 q-16 0 -46 4 q-30 4 -75 15 l0 -49 q39 -11 71 -17 q32 -5 55 -5 q60 0 92 24 q31 23 31 68 q0 88 -109 88 l-14 0 Z" /><glyph glyph-name="" unicode="é" d="M428 1004 l-98 0 l-100 -171 l59 0 l139 171 ZM485 90 l-298 0 l0 257 l298 0 l0 88 l-298 0 l0 239 l298 0 l0 90 l-397 0 l0 -764 l397 0 l0 90 Z" /><glyph glyph-name="" unicode="ê" d="M300 945 l84 -112 l60 0 l-96 171 l-96 0 l-96 -171 l59 0 l85 112 ZM485 90 l-298 0 l0 257 l298 0 l0 88 l-298 0 l0 239 l298 0 l0 90 l-397 0 l0 -764 l397 0 l0 90 Z" /><glyph glyph-name="" unicode="ë" d="M156 913 q1 -24 16 -39 q16 -16 40 -16 q24 0 39 16 q15 15 15 39 q0 24 -15 39 q-15 15 -39 16 q-24 -1 -40 -17 q-15 -16 -16 -38 l0 0 ZM334 913 q1 -24 16 -39 q15 -16 39 -16 q24 0 40 16 q15 15 15 39 q-1 24 -16 39 q-15 15 -39 16 q-24 -1 -39 -17 q-15 -16 -16 -38 l0 0 ZM485 90 l-298 0 l0 257 l298 0 l0 88 l-298 0 l0 239 l298 0 l0 90 l-397 0 l0 -764 l397 0 l0 90 Z" /><glyph glyph-name="" unicode="è" d="M172 1004 l139 -171 l59 0 l-100 171 l-98 0 ZM485 90 l-298 0 l0 257 l298 0 l0 88 l-298 0 l0 239 l298 0 l0 90 l-397 0 l0 -764 l397 0 l0 90 Z" /><glyph glyph-name="" unicode="í" d="M267 1004 l-98 0 l-100 -171 l59 0 l139 171 ZM187 764 l-99 0 l0 -764 l99 0 l0 764 Z" /><glyph glyph-name="" unicode="î" d="M139 945 l84 -112 l60 0 l-96 171 l-96 0 l-96 -171 l59 0 l85 112 ZM187 764 l-99 0 l0 -764 l99 0 l0 764 Z" /><glyph glyph-name="" unicode="ï" d="M-5 913 q1 -24 16 -39 q16 -16 40 -16 q24 0 39 16 q15 15 15 39 q0 24 -15 39 q-15 15 -39 16 q-24 -1 -40 -17 q-15 -16 -16 -38 l0 0 ZM173 913 q1 -24 16 -39 q15 -16 39 -16 q24 0 40 16 q15 15 15 39 q-1 24 -16 39 q-15 15 -39 16 q-24 -1 -39 -17 q-15 -16 -16 -38 l0 0 ZM187 764 l-99 0 l0 -764 l99 0 l0 764 Z" /><glyph glyph-name="" unicode="ì" d="M11 1004 l139 -171 l59 0 l-100 171 l-98 0 ZM187 764 l-99 0 l0 -764 l99 0 l0 764 Z" /><glyph glyph-name="" unicode="ñ" d="M487 969 q-14 -36 -46 -36 q-2 0 -8 1 q-7 2 -18 4 l-48 14 q-9 4 -29 4 q-36 0 -60 -26 q-25 -25 -34 -74 l43 0 q13 33 44 33 q5 0 11 0 q5 -1 13 -3 l47 -14 q11 -2 19 -4 q8 -1 13 -1 q77 0 96 102 l-43 0 ZM185 504 q0 66 -16 137 q9 -29 22 -50 q13 -21 26 -39 l387 -552 l81 0 l0 764 l-97 0 l0 -509 q0 -24 5 -54 q4 -31 14 -67 q-26 60 -55 102 l-371 528 l-93 0 l0 -764 l97 0 l0 504 Z" /><glyph glyph-name="" unicode="ó" d="M574 1004 l-98 0 l-100 -171 l59 0 l139 171 ZM439 -15 q168 0 277 106 q58 57 88 130 q30 73 30 161 q0 88 -31 161 q-30 74 -88 131 q-108 105 -276 105 q-168 0 -276 -105 q-58 -57 -88 -131 q-31 -73 -31 -161 q0 -88 30 -161 q30 -73 88 -130 q109 -106 277 -106 l0 0 ZM438 75 q-124 0 -204 81 q-45 45 -66 102 q-22 57 -22 124 q3 140 83 223 q81 82 209 84 q127 -2 209 -86 q82 -84 85 -221 q0 -67 -21 -124 q-22 -57 -67 -102 q-80 -81 -206 -81 l0 0 Z" /><glyph glyph-name="" unicode="ô" d="M446 945 l84 -112 l60 0 l-96 171 l-96 0 l-96 -171 l59 0 l85 112 ZM439 -15 q168 0 277 106 q58 57 88 130 q30 73 30 161 q0 88 -31 161 q-30 74 -88 131 q-108 105 -276 105 q-168 0 -276 -105 q-58 -57 -88 -131 q-31 -73 -31 -161 q0 -88 30 -161 q30 -73 88 -130 q109 -106 277 -106 l0 0 ZM438 75 q-124 0 -204 81 q-45 45 -66 102 q-22 57 -22 124 q3 140 83 223 q81 82 209 84 q127 -2 209 -86 q82 -84 85 -221 q0 -67 -21 -124 q-22 -57 -67 -102 q-80 -81 -206 -81 l0 0 Z" /><glyph glyph-name="" unicode="ö" d="M302 913 q1 -24 16 -39 q16 -16 40 -16 q24 0 39 16 q15 15 15 39 q0 24 -15 39 q-15 15 -39 16 q-24 -1 -40 -17 q-15 -16 -16 -38 l0 0 ZM480 913 q1 -24 16 -39 q15 -16 39 -16 q24 0 40 16 q15 15 15 39 q-1 24 -16 39 q-15 15 -39 16 q-24 -1 -39 -17 q-15 -16 -16 -38 l0 0 ZM439 -15 q168 0 277 106 q58 57 88 130 q30 73 30 161 q0 88 -31 161 q-30 74 -88 131 q-108 105 -276 105 q-168 0 -276 -105 q-58 -57 -88 -131 q-31 -73 -31 -161 q0 -88 30 -161 q30 -73 88 -130 q109 -106 277 -106 l0 0 ZM438 75 q-124 0 -204 81 q-45 45 -66 102 q-22 57 -22 124 q3 140 83 223 q81 82 209 84 q127 -2 209 -86 q82 -84 85 -221 q0 -67 -21 -124 q-22 -57 -67 -102 q-80 -81 -206 -81 l0 0 Z" /><glyph glyph-name="" unicode="ò" d="M318 1004 l139 -171 l59 0 l-100 171 l-98 0 ZM439 -15 q168 0 277 106 q58 57 88 130 q30 73 30 161 q0 88 -31 161 q-30 74 -88 131 q-108 105 -276 105 q-168 0 -276 -105 q-58 -57 -88 -131 q-31 -73 -31 -161 q0 -88 30 -161 q30 -73 88 -130 q109 -106 277 -106 l0 0 ZM438 75 q-124 0 -204 81 q-45 45 -66 102 q-22 57 -22 124 q3 140 83 223 q81 82 209 84 q127 -2 209 -86 q82 -84 85 -221 q0 -67 -21 -124 q-22 -57 -67 -102 q-80 -81 -206 -81 l0 0 Z" /><glyph glyph-name="" unicode="õ" d="M546 969 q-14 -36 -46 -36 q-2 0 -8 1 q-7 2 -18 4 l-48 14 q-9 4 -29 4 q-36 0 -60 -26 q-25 -25 -34 -74 l43 0 q13 33 44 33 q5 0 11 0 q5 -1 13 -3 l47 -14 q11 -2 19 -4 q8 -1 13 -1 q77 0 96 102 l-43 0 ZM439 -15 q168 0 277 106 q58 57 88 130 q30 73 30 161 q0 88 -31 161 q-30 74 -88 131 q-108 105 -276 105 q-168 0 -276 -105 q-58 -57 -88 -131 q-31 -73 -31 -161 q0 -88 30 -161 q30 -73 88 -130 q109 -106 277 -106 l0 0 ZM438 75 q-124 0 -204 81 q-45 45 -66 102 q-22 57 -22 124 q3 140 83 223 q81 82 209 84 q127 -2 209 -86 q82 -84 85 -221 q0 -67 -21 -124 q-22 -57 -67 -102 q-80 -81 -206 -81 l0 0 Z" /><glyph glyph-name="" unicode="ú" d="M502 1004 l-98 0 l-100 -171 l59 0 l139 171 ZM81 287 q0 -70 22 -126 q21 -56 60 -95 q38 -39 92 -60 q53 -21 119 -21 q66 0 119 21 q53 21 92 60 q39 39 60 95 q21 56 21 126 l0 477 l-100 0 l0 -471 q0 -109 -49 -163 q-49 -54 -143 -54 q-91 0 -142 56 q-50 55 -51 161 l0 471 l-100 0 l0 -477 Z" /><glyph glyph-name="" unicode="û" d="M374 945 l84 -112 l60 0 l-96 171 l-96 0 l-96 -171 l59 0 l85 112 ZM81 287 q0 -70 22 -126 q21 -56 60 -95 q38 -39 92 -60 q53 -21 119 -21 q66 0 119 21 q53 21 92 60 q39 39 60 95 q21 56 21 126 l0 477 l-100 0 l0 -471 q0 -109 -49 -163 q-49 -54 -143 -54 q-91 0 -142 56 q-50 55 -51 161 l0 471 l-100 0 l0 -477 Z" /><glyph glyph-name="" unicode="ü" d="M230 913 q1 -24 16 -39 q16 -16 40 -16 q24 0 39 16 q15 15 15 39 q0 24 -15 39 q-15 15 -39 16 q-24 -1 -40 -17 q-15 -16 -16 -38 l0 0 ZM408 913 q1 -24 16 -39 q15 -16 39 -16 q24 0 40 16 q15 15 15 39 q-1 24 -16 39 q-15 15 -39 16 q-24 -1 -39 -17 q-15 -16 -16 -38 l0 0 ZM81 287 q0 -70 22 -126 q21 -56 60 -95 q38 -39 92 -60 q53 -21 119 -21 q66 0 119 21 q53 21 92 60 q39 39 60 95 q21 56 21 126 l0 477 l-100 0 l0 -471 q0 -109 -49 -163 q-49 -54 -143 -54 q-91 0 -142 56 q-50 55 -51 161 l0 471 l-100 0 l0 -477 Z" /><glyph glyph-name="" unicode="ù" d="M246 1004 l139 -171 l59 0 l-100 171 l-98 0 ZM81 287 q0 -70 22 -126 q21 -56 60 -95 q38 -39 92 -60 q53 -21 119 -21 q66 0 119 21 q53 21 92 60 q39 39 60 95 q21 56 21 126 l0 477 l-100 0 l0 -471 q0 -109 -49 -163 q-49 -54 -143 -54 q-91 0 -142 56 q-50 55 -51 161 l0 471 l-100 0 l0 -477 Z" /><glyph glyph-name="" unicode="&#x178;" d="M163 913 q1 -24 16 -39 q16 -16 40 -16 q24 0 39 16 q15 15 15 39 q0 24 -15 39 q-15 15 -39 16 q-24 -1 -40 -17 q-15 -16 -16 -38 l0 0 ZM341 913 q1 -24 16 -39 q15 -16 39 -16 q24 0 40 16 q15 15 15 39 q-1 24 -16 39 q-15 15 -39 16 q-24 -1 -39 -17 q-15 -16 -16 -38 l0 0 ZM359 308 l255 456 l-112 0 l-177 -330 q-12 -18 -16 -37 q-4 11 -8 20 q-4 9 -8 17 l-178 330 l-116 0 l260 -455 l0 -309 l100 0 l0 308 Z" /><glyph glyph-name="" unicode="á" d="M435 762 l-98 0 l-100 -171 l59 0 l139 171 ZM501 525 l0 -86 q-72 96 -197 96 q-60 0 -109 -19 q-49 -20 -84 -55 q-35 -36 -54 -86 q-19 -50 -19 -111 q0 -56 19 -104 q18 -48 55 -86 q39 -39 88 -60 q49 -21 104 -21 q124 0 190 93 l0 -86 l93 0 l0 525 l-86 0 ZM317 73 q-40 0 -73 14 q-34 14 -58 39 q-24 25 -37 60 q-14 35 -14 77 q0 42 14 77 q13 35 37 60 q24 25 58 39 q33 14 73 14 q40 0 73 -13 q34 -14 58 -40 q24 -26 38 -61 q13 -34 13 -76 q0 -42 -13 -76 q-14 -34 -38 -60 q-49 -54 -131 -54 l0 0 Z" /><glyph glyph-name="" unicode="â" d="M307 703 l84 -112 l60 0 l-96 171 l-96 0 l-96 -171 l59 0 l85 112 ZM501 525 l0 -86 q-72 96 -197 96 q-60 0 -109 -19 q-49 -20 -84 -55 q-35 -36 -54 -86 q-19 -50 -19 -111 q0 -56 19 -104 q18 -48 55 -86 q39 -39 88 -60 q49 -21 104 -21 q124 0 190 93 l0 -86 l93 0 l0 525 l-86 0 ZM317 73 q-40 0 -73 14 q-34 14 -58 39 q-24 25 -37 60 q-14 35 -14 77 q0 42 14 77 q13 35 37 60 q24 25 58 39 q33 14 73 14 q40 0 73 -13 q34 -14 58 -40 q24 -26 38 -61 q13 -34 13 -76 q0 -42 -13 -76 q-14 -34 -38 -60 q-49 -54 -131 -54 l0 0 Z" /><glyph glyph-name="" unicode="ä" d="M163 671 q1 -24 16 -39 q16 -16 40 -16 q24 0 39 16 q15 15 15 39 q0 24 -15 39 q-15 15 -39 16 q-24 -1 -40 -17 q-15 -16 -16 -38 l0 0 ZM341 671 q1 -24 16 -39 q15 -16 39 -16 q24 0 40 16 q15 15 15 39 q-1 24 -16 39 q-15 15 -39 16 q-24 -1 -39 -17 q-15 -16 -16 -38 l0 0 ZM501 525 l0 -86 q-72 96 -197 96 q-60 0 -109 -19 q-49 -20 -84 -55 q-35 -36 -54 -86 q-19 -50 -19 -111 q0 -56 19 -104 q18 -48 55 -86 q39 -39 88 -60 q49 -21 104 -21 q124 0 190 93 l0 -86 l93 0 l0 525 l-86 0 ZM317 73 q-40 0 -73 14 q-34 14 -58 39 q-24 25 -37 60 q-14 35 -14 77 q0 42 14 77 q13 35 37 60 q24 25 58 39 q33 14 73 14 q40 0 73 -13 q34 -14 58 -40 q24 -26 38 -61 q13 -34 13 -76 q0 -42 -13 -76 q-14 -34 -38 -60 q-49 -54 -131 -54 l0 0 Z" /><glyph glyph-name="" unicode="à" d="M179 762 l139 -171 l59 0 l-100 171 l-98 0 ZM501 525 l0 -86 q-72 96 -197 96 q-60 0 -109 -19 q-49 -20 -84 -55 q-35 -36 -54 -86 q-19 -50 -19 -111 q0 -56 19 -104 q18 -48 55 -86 q39 -39 88 -60 q49 -21 104 -21 q124 0 190 93 l0 -86 l93 0 l0 525 l-86 0 ZM317 73 q-40 0 -73 14 q-34 14 -58 39 q-24 25 -37 60 q-14 35 -14 77 q0 42 14 77 q13 35 37 60 q24 25 58 39 q33 14 73 14 q40 0 73 -13 q34 -14 58 -40 q24 -26 38 -61 q13 -34 13 -76 q0 -42 -13 -76 q-14 -34 -38 -60 q-49 -54 -131 -54 l0 0 Z" /><glyph glyph-name="" unicode="å" d="M204 691 q0 -52 36 -88 q35 -36 87 -36 q53 0 88 36 q17 17 26 40 q9 22 9 48 q0 26 -9 49 q-9 22 -26 39 q-17 17 -39 26 q-23 9 -49 9 q-52 0 -87 -35 q-36 -36 -36 -88 l0 0 ZM261 691 q1 28 19 46 q19 18 47 19 q28 -1 47 -19 q18 -18 19 -46 q-1 -28 -19 -47 q-19 -18 -47 -19 q-28 1 -47 19 q-18 19 -19 47 l0 0 ZM501 525 l0 -86 q-72 96 -197 96 q-60 0 -109 -19 q-49 -20 -84 -55 q-35 -36 -54 -86 q-19 -50 -19 -111 q0 -56 19 -104 q18 -48 55 -86 q39 -39 88 -60 q49 -21 104 -21 q124 0 190 93 l0 -86 l93 0 l0 525 l-86 0 ZM317 73 q-40 0 -73 14 q-34 14 -58 39 q-24 25 -37 60 q-14 35 -14 77 q0 42 14 77 q13 35 37 60 q24 25 58 39 q33 14 73 14 q40 0 73 -13 q34 -14 58 -40 q24 -26 38 -61 q13 -34 13 -76 q0 -42 -13 -76 q-14 -34 -38 -60 q-49 -54 -131 -54 l0 0 Z" /><glyph glyph-name="" unicode="ã" d="M407 727 q-14 -36 -46 -36 q-2 0 -8 1 q-7 2 -18 4 l-48 14 q-9 4 -29 4 q-36 0 -60 -26 q-25 -25 -34 -74 l43 0 q13 33 44 33 q5 0 11 0 q5 -1 13 -3 l47 -14 q11 -2 19 -4 q8 -1 13 -1 q77 0 96 102 l-43 0 ZM501 525 l0 -86 q-72 96 -197 96 q-60 0 -109 -19 q-49 -20 -84 -55 q-35 -36 -54 -86 q-19 -50 -19 -111 q0 -56 19 -104 q18 -48 55 -86 q39 -39 88 -60 q49 -21 104 -21 q124 0 190 93 l0 -86 l93 0 l0 525 l-86 0 ZM317 73 q-40 0 -73 14 q-34 14 -58 39 q-24 25 -37 60 q-14 35 -14 77 q0 42 14 77 q13 35 37 60 q24 25 58 39 q33 14 73 14 q40 0 73 -13 q34 -14 58 -40 q24 -26 38 -61 q13 -34 13 -76 q0 -42 -13 -76 q-14 -34 -38 -60 q-49 -54 -131 -54 l0 0 Z" /><glyph glyph-name="" unicode="ç" d="M321 -50 l0 37 q53 2 96 19 q42 17 81 53 l-60 69 q-45 -58 -128 -58 q-76 0 -124 54 q-23 26 -36 61 q-13 34 -13 77 q0 43 13 78 q13 36 36 62 q48 54 124 54 q38 0 70 -13 q31 -14 54 -40 l59 68 q-73 67 -183 67 q-60 0 -109 -21 q-50 -20 -86 -57 q-36 -37 -56 -87 q-20 -51 -20 -111 q3 -120 71 -192 q69 -73 173 -82 l0 -85 q3 1 8 1 l6 0 l12 0 q65 0 65 -42 q0 -40 -58 -40 q-16 0 -46 4 q-30 4 -75 15 l0 -49 q39 -11 71 -17 q32 -5 55 -5 q60 0 92 24 q31 23 31 68 q0 88 -109 88 l-14 0 Z" /><glyph glyph-name="" unicode="é" d="M441 762 l-98 0 l-100 -171 l59 0 l139 171 ZM585 239 q0 69 -20 124 q-20 55 -56 94 q-37 39 -87 60 q-51 21 -112 21 q-60 0 -109 -20 q-50 -20 -85 -56 q-36 -37 -56 -88 q-20 -52 -20 -115 q0 -54 18 -102 q18 -47 52 -84 q39 -42 92 -64 q53 -22 116 -22 q75 0 135 27 q59 27 110 87 l-67 54 q-73 -85 -175 -85 q-80 0 -131 45 q-25 21 -40 51 q-15 30 -17 66 l452 0 l0 7 ZM133 306 q4 33 19 60 q15 28 39 48 q48 42 118 42 q69 0 116 -41 q47 -39 57 -109 l-349 0 Z" /><glyph glyph-name="" unicode="ê" d="M313 703 l84 -112 l60 0 l-96 171 l-96 0 l-96 -171 l59 0 l85 112 ZM585 239 q0 69 -20 124 q-20 55 -56 94 q-37 39 -87 60 q-51 21 -112 21 q-60 0 -109 -20 q-50 -20 -85 -56 q-36 -37 -56 -88 q-20 -52 -20 -115 q0 -54 18 -102 q18 -47 52 -84 q39 -42 92 -64 q53 -22 116 -22 q75 0 135 27 q59 27 110 87 l-67 54 q-73 -85 -175 -85 q-80 0 -131 45 q-25 21 -40 51 q-15 30 -17 66 l452 0 l0 7 ZM133 306 q4 33 19 60 q15 28 39 48 q48 42 118 42 q69 0 116 -41 q47 -39 57 -109 l-349 0 Z" /><glyph glyph-name="" unicode="ë" d="M169 671 q1 -24 16 -39 q16 -16 40 -16 q24 0 39 16 q15 15 15 39 q0 24 -15 39 q-15 15 -39 16 q-24 -1 -40 -17 q-15 -16 -16 -38 l0 0 ZM347 671 q1 -24 16 -39 q15 -16 39 -16 q24 0 40 16 q15 15 15 39 q-1 24 -16 39 q-15 15 -39 16 q-24 -1 -39 -17 q-15 -16 -16 -38 l0 0 ZM585 239 q0 69 -20 124 q-20 55 -56 94 q-37 39 -87 60 q-51 21 -112 21 q-60 0 -109 -20 q-50 -20 -85 -56 q-36 -37 -56 -88 q-20 -52 -20 -115 q0 -54 18 -102 q18 -47 52 -84 q39 -42 92 -64 q53 -22 116 -22 q75 0 135 27 q59 27 110 87 l-67 54 q-73 -85 -175 -85 q-80 0 -131 45 q-25 21 -40 51 q-15 30 -17 66 l452 0 l0 7 ZM133 306 q4 33 19 60 q15 28 39 48 q48 42 118 42 q69 0 116 -41 q47 -39 57 -109 l-349 0 Z" /><glyph glyph-name="" unicode="è" d="M185 762 l139 -171 l59 0 l-100 171 l-98 0 ZM585 239 q0 69 -20 124 q-20 55 -56 94 q-37 39 -87 60 q-51 21 -112 21 q-60 0 -109 -20 q-50 -20 -85 -56 q-36 -37 -56 -88 q-20 -52 -20 -115 q0 -54 18 -102 q18 -47 52 -84 q39 -42 92 -64 q53 -22 116 -22 q75 0 135 27 q59 27 110 87 l-67 54 q-73 -85 -175 -85 q-80 0 -131 45 q-25 21 -40 51 q-15 30 -17 66 l452 0 l0 7 ZM133 306 q4 33 19 60 q15 28 39 48 q48 42 118 42 q69 0 116 -41 q47 -39 57 -109 l-349 0 Z" /><glyph glyph-name="" unicode="í" d="M253 762 l-98 0 l-100 -171 l59 0 l139 171 ZM171 525 l-92 0 l0 -525 l92 0 l0 525 Z" /><glyph glyph-name="" unicode="î" d="M125 703 l84 -112 l60 0 l-96 171 l-96 0 l-96 -171 l59 0 l85 112 ZM171 525 l-92 0 l0 -525 l92 0 l0 525 Z" /><glyph glyph-name="" unicode="ï" d="M-19 671 q1 -24 16 -39 q16 -16 40 -16 q24 0 39 16 q15 15 15 39 q0 24 -15 39 q-15 15 -39 16 q-24 -1 -40 -17 q-15 -16 -16 -38 l0 0 ZM159 671 q1 -24 16 -39 q15 -16 39 -16 q24 0 40 16 q15 15 15 39 q-1 24 -16 39 q-15 15 -39 16 q-24 -1 -39 -17 q-15 -16 -16 -38 l0 0 ZM171 525 l-92 0 l0 -525 l92 0 l0 525 Z" /><glyph glyph-name="" unicode="ì" d="M-3 762 l139 -171 l59 0 l-100 171 l-98 0 ZM171 525 l-92 0 l0 -525 l92 0 l0 525 Z" /><glyph glyph-name="" unicode="ñ" d="M422 727 q-14 -36 -46 -36 q-2 0 -8 1 q-7 2 -18 4 l-48 14 q-9 4 -29 4 q-36 0 -60 -26 q-25 -25 -34 -74 l43 0 q13 33 44 33 q5 0 11 0 q5 -1 13 -3 l47 -14 q11 -2 19 -4 q8 -1 13 -1 q77 0 96 102 l-43 0 ZM172 291 q0 163 139 163 q63 0 91 -39 q28 -39 27 -120 l0 -295 l93 0 l0 304 q-1 112 -52 171 q-51 60 -143 60 q-86 0 -155 -70 l0 60 l-92 0 l0 -525 l92 0 l0 291 Z" /><glyph glyph-name="" unicode="ó" d="M437 762 l-98 0 l-100 -171 l59 0 l139 171 ZM309 538 q-57 0 -106 -20 q-49 -21 -87 -59 q-77 -77 -77 -197 q0 -59 19 -108 q20 -50 58 -88 q38 -38 87 -59 q49 -20 106 -20 q57 0 106 20 q49 21 87 59 q38 38 58 88 q19 49 19 108 q0 60 -20 109 q-19 50 -56 88 q-38 39 -88 59 q-49 20 -106 20 l0 0 ZM309 69 q-37 0 -68 14 q-32 15 -55 41 q-23 26 -36 61 q-13 35 -13 77 q0 43 13 78 q13 36 36 62 q48 54 123 54 q75 0 123 -53 q23 -26 36 -62 q13 -36 13 -79 q0 -43 -13 -78 q-13 -35 -36 -61 q-48 -54 -123 -54 l0 0 Z" /><glyph glyph-name="" unicode="ô" d="M309 703 l84 -112 l60 0 l-96 171 l-96 0 l-96 -171 l59 0 l85 112 ZM309 538 q-57 0 -106 -20 q-49 -21 -87 -59 q-77 -77 -77 -197 q0 -59 19 -108 q20 -50 58 -88 q38 -38 87 -59 q49 -20 106 -20 q57 0 106 20 q49 21 87 59 q38 38 58 88 q19 49 19 108 q0 60 -20 109 q-19 50 -56 88 q-38 39 -88 59 q-49 20 -106 20 l0 0 ZM309 69 q-37 0 -68 14 q-32 15 -55 41 q-23 26 -36 61 q-13 35 -13 77 q0 43 13 78 q13 36 36 62 q48 54 123 54 q75 0 123 -53 q23 -26 36 -62 q13 -36 13 -79 q0 -43 -13 -78 q-13 -35 -36 -61 q-48 -54 -123 -54 l0 0 Z" /><glyph glyph-name="" unicode="ö" d="M165 671 q1 -24 16 -39 q16 -16 40 -16 q24 0 39 16 q15 15 15 39 q0 24 -15 39 q-15 15 -39 16 q-24 -1 -40 -17 q-15 -16 -16 -38 l0 0 ZM343 671 q1 -24 16 -39 q15 -16 39 -16 q24 0 40 16 q15 15 15 39 q-1 24 -16 39 q-15 15 -39 16 q-24 -1 -39 -17 q-15 -16 -16 -38 l0 0 ZM309 538 q-57 0 -106 -20 q-49 -21 -87 -59 q-77 -77 -77 -197 q0 -59 19 -108 q20 -50 58 -88 q38 -38 87 -59 q49 -20 106 -20 q57 0 106 20 q49 21 87 59 q38 38 58 88 q19 49 19 108 q0 60 -20 109 q-19 50 -56 88 q-38 39 -88 59 q-49 20 -106 20 l0 0 ZM309 69 q-37 0 -68 14 q-32 15 -55 41 q-23 26 -36 61 q-13 35 -13 77 q0 43 13 78 q13 36 36 62 q48 54 123 54 q75 0 123 -53 q23 -26 36 -62 q13 -36 13 -79 q0 -43 -13 -78 q-13 -35 -36 -61 q-48 -54 -123 -54 l0 0 Z" /><glyph glyph-name="" unicode="ò" d="M181 762 l139 -171 l59 0 l-100 171 l-98 0 ZM309 538 q-57 0 -106 -20 q-49 -21 -87 -59 q-77 -77 -77 -197 q0 -59 19 -108 q20 -50 58 -88 q38 -38 87 -59 q49 -20 106 -20 q57 0 106 20 q49 21 87 59 q38 38 58 88 q19 49 19 108 q0 60 -20 109 q-19 50 -56 88 q-38 39 -88 59 q-49 20 -106 20 l0 0 ZM309 69 q-37 0 -68 14 q-32 15 -55 41 q-23 26 -36 61 q-13 35 -13 77 q0 43 13 78 q13 36 36 62 q48 54 123 54 q75 0 123 -53 q23 -26 36 -62 q13 -36 13 -79 q0 -43 -13 -78 q-13 -35 -36 -61 q-48 -54 -123 -54 l0 0 Z" /><glyph glyph-name="" unicode="õ" d="M409 727 q-14 -36 -46 -36 q-2 0 -8 1 q-7 2 -18 4 l-48 14 q-9 4 -29 4 q-36 0 -60 -26 q-25 -25 -34 -74 l43 0 q13 33 44 33 q5 0 11 0 q5 -1 13 -3 l47 -14 q11 -2 19 -4 q8 -1 13 -1 q77 0 96 102 l-43 0 ZM309 538 q-57 0 -106 -20 q-49 -21 -87 -59 q-77 -77 -77 -197 q0 -59 19 -108 q20 -50 58 -88 q38 -38 87 -59 q49 -20 106 -20 q57 0 106 20 q49 21 87 59 q38 38 58 88 q19 49 19 108 q0 60 -20 109 q-19 50 -56 88 q-38 39 -88 59 q-49 20 -106 20 l0 0 ZM309 69 q-37 0 -68 14 q-32 15 -55 41 q-23 26 -36 61 q-13 35 -13 77 q0 43 13 78 q13 36 36 62 q48 54 123 54 q75 0 123 -53 q23 -26 36 -62 q13 -36 13 -79 q0 -43 -13 -78 q-13 -35 -36 -61 q-48 -54 -123 -54 l0 0 Z" /><glyph glyph-name="" unicode="ú" d="M418 762 l-98 0 l-100 -171 l59 0 l139 171 ZM70 228 q1 -115 58 -178 q57 -62 161 -63 q104 1 161 63 q58 63 59 178 l0 297 l-93 0 l0 -291 q0 -81 -33 -123 q-34 -42 -94 -42 q-60 0 -93 42 q-34 42 -34 123 l0 291 l-92 0 l0 -297 Z" /><glyph glyph-name="" unicode="û" d="M290 703 l84 -112 l60 0 l-96 171 l-96 0 l-96 -171 l59 0 l85 112 ZM70 228 q1 -115 58 -178 q57 -62 161 -63 q104 1 161 63 q58 63 59 178 l0 297 l-93 0 l0 -291 q0 -81 -33 -123 q-34 -42 -94 -42 q-60 0 -93 42 q-34 42 -34 123 l0 291 l-92 0 l0 -297 Z" /><glyph glyph-name="" unicode="ü" d="M146 671 q1 -24 16 -39 q16 -16 40 -16 q24 0 39 16 q15 15 15 39 q0 24 -15 39 q-15 15 -39 16 q-24 -1 -40 -17 q-15 -16 -16 -38 l0 0 ZM324 671 q1 -24 16 -39 q15 -16 39 -16 q24 0 40 16 q15 15 15 39 q-1 24 -16 39 q-15 15 -39 16 q-24 -1 -39 -17 q-15 -16 -16 -38 l0 0 ZM70 228 q1 -115 58 -178 q57 -62 161 -63 q104 1 161 63 q58 63 59 178 l0 297 l-93 0 l0 -291 q0 -81 -33 -123 q-34 -42 -94 -42 q-60 0 -93 42 q-34 42 -34 123 l0 291 l-92 0 l0 -297 Z" /><glyph glyph-name="" unicode="ù" d="M162 762 l139 -171 l59 0 l-100 171 l-98 0 ZM70 228 q1 -115 58 -178 q57 -62 161 -63 q104 1 161 63 q58 63 59 178 l0 297 l-93 0 l0 -291 q0 -81 -33 -123 q-34 -42 -94 -42 q-60 0 -93 42 q-34 42 -34 123 l0 291 l-92 0 l0 -297 Z" /><glyph glyph-name="" unicode="ÿ" d="M134 671 q1 -24 16 -39 q16 -16 40 -16 q24 0 39 16 q15 15 15 39 q0 24 -15 39 q-15 15 -39 16 q-24 -1 -40 -17 q-15 -16 -16 -38 l0 0 ZM312 671 q1 -24 16 -39 q15 -16 39 -16 q24 0 40 16 q15 15 15 39 q-1 24 -16 39 q-15 15 -39 16 q-24 -1 -39 -17 q-15 -16 -16 -38 l0 0 ZM229 -218 l326 743 l-102 0 l-137 -332 l-12 -34 q-2 -7 -5 -14 q-3 -8 -5 -17 l-14 -42 q-25 94 -33 107 l-135 332 l-104 0 l219 -525 l-92 -218 l94 0 Z" /><glyph glyph-name="" unicode="&#xfb01;" d="M277 764 q-95 -2 -136 -45 q-41 -44 -40 -137 l0 -57 l-80 0 l0 -78 l80 0 l0 -447 l90 0 l0 447 l86 0 l0 78 l-86 0 l0 61 q0 25 3 42 q3 18 12 29 q9 11 25 16 q16 4 42 4 l4 0 l0 87 ZM348 700 q1 -27 19 -45 q18 -17 45 -18 q27 1 45 18 q18 18 19 45 q-1 28 -18 46 q-18 17 -46 18 q-27 -1 -45 -19 q-18 -18 -19 -45 l0 0 ZM458 525 l-92 0 l0 -525 l92 0 l0 525 Z" /><glyph glyph-name="" unicode="&#xfb02;" d="M277 764 q-95 -2 -136 -45 q-41 -44 -40 -137 l0 -57 l-80 0 l0 -78 l80 0 l0 -447 l90 0 l0 447 l86 0 l0 78 l-86 0 l0 61 q0 25 3 42 q3 18 12 29 q9 11 25 16 q16 4 42 4 l4 0 l0 87 ZM458 759 l-92 0 l0 -759 l92 0 l0 759 Z" /><glyph glyph-name="" unicode="&#x20ac;" d="M108 326 l-72 0 l-16 -50 l88 0 l0 -53 q0 -54 17 -96 q16 -43 46 -73 q29 -30 69 -46 q40 -17 88 -17 q72 0 123 28 q51 28 86 82 l-52 59 q-24 -48 -65 -68 q-40 -21 -92 -20 q-128 0 -128 183 l0 21 l186 0 l16 50 l-202 0 l0 103 l236 0 l16 50 l-252 0 l0 3 q0 183 128 183 q46 1 86 -18 q40 -19 65 -64 l53 60 q-35 51 -84 77 q-49 26 -120 26 q-48 0 -88 -16 q-40 -17 -69 -47 q-30 -30 -46 -72 q-17 -43 -17 -97 l0 -35 l-72 0 l-16 -50 l88 0 l0 -103 Z" /><glyph glyph-name="" unicode="&#x2206;" d="M288 715 l-280 -662 l0 -49 l-4 -5 l673 -2 l-2 3 l2 0 l2 53 l-291 662 l-100 0 ZM307 537 q2 3 5 9 q3 5 5 14 l20 71 l12 -39 q3 -11 6 -20 q3 -9 5 -13 l11 -22 l188 -463 l-436 2 l184 461 Z" /><glyph glyph-name="" unicode="&#x2265;" d="M427 498 l0 78 l-575 237 l0 -90 l456 -186 l-456 -186 l0 -11 l-5 0 l0 -83 l585 0 l0 83 l-390 0 l385 158 Z" /><glyph glyph-name="" unicode="&#x2264;" d="M427 351 l-456 186 l456 186 l0 90 l-575 -237 l0 -78 l385 -158 l-390 0 l0 -83 l585 0 l0 83 l-5 0 l0 11 Z" /><glyph glyph-name="" unicode="­&#x2260;" d="M709 440 l-167 0 l91 157 l-79 0 l-91 -157 l-339 0 l0 -82 l291 0 l-70 -120 l-221 0 l0 -81 l174 0 l-89 -154 l80 0 l89 154 l331 0 l0 81 l-284 0 l70 120 l214 0 l0 82 Z" /><glyph glyph-name="" unicode="&#x221e;" d="M377 285 q-18 19 -38 38 q-21 19 -44 34 q-23 15 -48 24 q-24 9 -51 9 q-30 0 -58 -13 q-28 -12 -49 -34 q-22 -22 -35 -50 q-14 -29 -14 -60 q0 -28 11 -55 q11 -28 30 -50 q19 -22 45 -35 q27 -14 59 -14 q29 0 55 8 q26 9 50 23 q23 14 45 33 q22 19 43 40 q13 -11 24 -21 q12 -9 23 -18 q22 -19 43 -33 q21 -14 45 -22 q23 -8 53 -9 q31 0 58 14 q27 14 48 38 q20 24 32 50 q11 27 11 53 q0 30 -8 58 q-8 28 -26 50 q-18 21 -46 34 q-28 13 -70 13 q-31 0 -55 -10 q-25 -10 -47 -26 q-22 -16 -43 -34 q-11 -10 -21 -18 q-11 -9 -22 -17 l0 0 ZM331 236 q-30 -39 -64 -63 q-19 -13 -36 -19 q-18 -6 -34 -6 q-36 1 -59 24 q-23 24 -24 61 q0 36 24 62 q23 26 65 27 q17 0 35 -9 q17 -8 34 -21 q17 -13 32 -28 q15 -15 27 -28 l0 0 ZM424 235 q14 15 30 31 q16 15 34 28 q17 12 36 20 q19 8 40 8 q29 0 54 -24 q12 -12 20 -29 q7 -16 7 -35 q0 -33 -24 -59 q-12 -12 -28 -19 q-16 -8 -35 -8 q-10 0 -19 2 q-9 2 -19 6 q-18 8 -34 21 q-16 12 -31 28 l-31 30 Z" /><glyph glyph-name="" unicode="&#x2248;" d="M370 371 q46 -16 98 -33 q53 -17 93 -17 q45 0 91 18 q46 17 95 51 l0 90 q-51 -37 -95 -56 q-45 -19 -90 -19 q-36 1 -71 12 q-35 11 -72 24 q-30 12 -65 20 q-35 9 -78 9 q-85 0 -189 -70 l0 -91 q53 38 99 58 q45 19 89 19 q48 0 95 -15 l0 0 ZM563 233 q-36 1 -71 12 q-35 11 -72 24 q-30 12 -65 20 q-35 9 -78 9 q-85 0 -189 -70 l0 -91 q53 38 99 58 q45 19 89 19 q48 0 95 -15 q46 -16 98 -33 q53 -17 93 -17 q45 0 91 18 q46 17 95 51 l0 90 q-51 -37 -95 -56 q-45 -19 -90 -19 l0 0 Z" /><glyph glyph-name="" unicode="&#x222b;" d="M0 -199 q27 -13 59 -13 q36 0 66 18 q29 18 50 48 q21 30 33 66 q11 36 11 73 q0 60 -1 118 q-2 58 -4 117 q-6 115 -6 242 q0 22 1 56 q2 35 8 71 q6 36 23 61 q17 24 49 25 q6 0 16 -2 q8 -3 13 -3 q4 0 6 11 q2 11 5 24 q2 12 5 23 l2 12 q-15 2 -28 4 q-13 1 -28 1 q-48 -1 -78 -23 q-30 -22 -48 -58 q-18 -36 -25 -78 q-8 -41 -8 -81 q0 -132 5 -265 q2 -67 4 -134 q1 -67 1 -134 q0 -50 -21 -81 q-20 -31 -63 -32 q-10 0 -33 5 q-4 -18 -7 -35 q-4 -18 -7 -36 l0 0 Z" /><glyph glyph-name="" unicode="&#x3c0;" d="M399 128 q0 -27 6 -50 q7 -23 18 -47 q11 -23 36 -31 q21 -7 46 -7 q6 0 16 1 q11 1 22 4 q11 3 20 7 q9 4 14 10 l0 67 q-5 -4 -10 -6 q-12 -6 -22 -6 q-3 -1 -6 -1 q-21 0 -30 14 q-9 13 -9 37 l0 322 l78 0 l0 40 l0 19 q0 5 0 10 q0 4 -1 9 l-553 0 l0 -79 l70 0 l0 -439 l100 0 l0 439 l205 0 l0 -313 Z" /><glyph glyph-name="" unicode="&#x2211;" d="M360 319 l-300 -375 l0 -69 l613 0 l0 72 l-504 0 l294 375 l-275 355 l480 0 l0 73 l-600 0 l0 -65 l292 -366 Z" /><glyph glyph-name="" unicode="&#x221a;" d="M41 331 l20 -51 l72 28 l149 -407 l73 0 l215 893 l-74 0 l-184 -786 l-126 380 l-145 -57 Z" /><glyph glyph-name="" unicode="&#x220f;" d="M584 755 q-22 -1 -46 -1 l-52 0 l-114 0 q-14 -1 -29 -1 q-15 0 -29 0 l-57 0 l-178 0 l2 -904 l100 0 l3 815 l382 0 l0 -815 l100 0 l-1 906 l-81 0 Z" /><glyph glyph-name="" unicode="&#x25ca;" d="M23 330 l191 -346 l54 0 l204 346 l-204 348 l-54 0 l-191 -348 ZM242 40 l-156 290 l156 291 l165 -291 l-165 -290 Z" /><glyph glyph-name="" unicode="&#x2202;" d="M460 639 q-36 57 -89 90 q-54 33 -126 34 q-45 0 -87 -13 q-42 -12 -84 -34 l27 -64 q0 0 8 4 q7 2 15 6 q9 3 20 7 q22 8 47 14 q24 5 42 5 q55 -1 95 -31 q40 -30 65 -79 q25 -49 37 -107 q12 -57 12 -113 q-27 45 -72 67 q-44 21 -96 21 q-55 0 -98 -20 q-43 -19 -73 -55 q-30 -36 -46 -79 q-16 -44 -16 -90 q0 -51 18 -90 q17 -40 47 -67 q30 -27 67 -41 q38 -14 80 -14 q78 1 131 37 q53 36 86 94 q33 58 48 125 q15 67 15 131 q0 70 -18 137 q-19 68 -55 125 l0 0 ZM101 652 q-2 -1 -2 0 q0 0 2 0 l0 0 ZM389 141 q-19 -34 -47 -55 q-29 -22 -71 -23 q-74 1 -107 39 q-33 38 -32 105 q0 45 20 82 q20 36 53 60 q33 24 74 27 q41 4 84 -19 q10 -6 22 -15 q13 -10 24 -21 q11 -11 18 -24 q7 -12 7 -24 q-6 -28 -16 -63 q-11 -35 -29 -69 l0 0 Z" /><glyph glyph-name="" unicode="¤" d="M108 326 l-72 0 l-16 -50 l88 0 l0 -53 q0 -54 17 -96 q16 -43 46 -73 q29 -30 69 -46 q40 -17 88 -17 q72 0 123 28 q51 28 86 82 l-52 59 q-24 -48 -65 -68 q-40 -21 -92 -20 q-128 0 -128 183 l0 21 l186 0 l16 50 l-202 0 l0 103 l236 0 l16 50 l-252 0 l0 3 q0 183 128 183 q46 1 86 -18 q40 -19 65 -64 l53 60 q-35 51 -84 77 q-49 26 -120 26 q-48 0 -88 -16 q-40 -17 -69 -47 q-30 -30 -46 -72 q-17 -43 -17 -97 l0 -35 l-72 0 l-16 -50 l88 0 l0 -103 Z" /><glyph glyph-name="" unicode="&#x141;" d="M450 93 l-263 0 l0 271 l137 114 l0 77 l-137 -114 l0 323 l-99 0 l0 -382 l-88 -74 l0 -76 l88 74 l0 -306 l362 0 l0 93 Z" /><glyph glyph-name="" unicode="&#x142;" d="M171 401 l94 78 l-31 37 l-63 -53 l0 296 l-92 0 l0 -351 l-94 -80 l29 -37 l65 53 l0 -344 l92 0 l0 401 Z" /><glyph glyph-name="" unicode="ð" d="M0 423 l0 -58 l88 0 l0 -365 l158 0 q218 1 329 98 q110 97 110 284 q0 187 -110 284 q-111 97 -329 98 l-158 0 l0 -341 l-88 0 ZM261 674 q323 0 323 -292 q0 -292 -323 -292 l-74 0 l0 275 l195 0 l0 58 l-195 0 l0 251 l74 0 Z" /><glyph glyph-name="" unicode="½" d="M263 -9 l420 754 l-79 0 l-421 -754 l80 0 ZM221 742 l-147 -74 l0 -52 l88 45 l0 -337 l59 0 l0 418 ZM818 52 l-164 0 l133 172 q19 24 29 46 q11 22 11 48 q-1 46 -35 72 q-34 26 -95 27 q-61 0 -97 -30 q-36 -30 -37 -84 l60 0 l0 2 q0 31 21 48 q20 18 54 18 q33 0 52 -16 q19 -15 19 -40 q0 -25 -29 -63 l-190 -252 l268 0 l0 52 Z" /><glyph glyph-name="" unicode="þ" d="M270 144 q60 0 109 19 q50 18 85 52 q35 33 55 79 q19 46 19 100 q0 57 -20 103 q-19 46 -56 79 q-37 33 -90 51 q-54 18 -121 18 l-64 0 l0 119 l-99 0 l0 -764 l99 0 l0 144 l83 0 ZM250 555 q186 0 186 -157 q0 -78 -44 -120 q-44 -43 -126 -43 l-79 0 l0 320 l63 0 Z" /><glyph glyph-name="" unicode="¼" d="M263 -9 l420 754 l-79 0 l-421 -754 l80 0 ZM221 742 l-147 -74 l0 -52 l88 45 l0 -337 l59 0 l0 418 ZM787 100 l49 0 l0 47 l-49 0 l0 270 l-12 0 l-231 -293 l0 -24 l190 0 l0 -100 l53 0 l0 100 ZM736 145 l-117 0 l117 155 l0 -155 Z" /><glyph glyph-name="" unicode="¦" d="M294 329 l0 370 l-87 0 l0 -370 l87 0 ZM294 -171 l0 370 l-87 0 l0 -370 l87 0 Z" /><glyph glyph-name="" unicode="þ" d="M170 86 q66 -93 190 -93 q55 0 105 21 q49 21 88 60 q73 73 73 190 q0 60 -19 110 q-19 50 -54 86 q-35 36 -84 56 q-49 19 -109 19 q-60 0 -109 -23 q-49 -23 -80 -65 l0 312 l-93 0 l0 -977 l92 0 l0 304 ZM347 73 q-82 0 -131 54 q-24 26 -37 60 q-14 34 -14 76 q0 42 14 76 q13 35 37 61 q50 53 131 53 q40 0 73 -14 q34 -14 58 -39 q24 -25 38 -60 q13 -35 13 -77 q0 -42 -13 -77 q-14 -35 -38 -60 q-24 -25 -58 -39 q-33 -14 -73 -14 l0 0 Z" /><glyph glyph-name="" unicode="¾" d="M263 -9 l420 754 l-79 0 l-421 -754 l80 0 ZM26 391 q46 -72 139 -72 q34 0 62 11 q29 10 50 28 q44 38 44 99 q-1 55 -37 88 q-37 32 -98 34 l123 157 l-258 0 l0 -49 l161 3 l-140 -169 l11 -7 q20 13 40 19 q20 7 39 7 q46 -1 73 -24 q27 -24 28 -64 q-1 -39 -28 -63 q-28 -24 -71 -25 q-55 0 -87 52 l-51 -25 ZM787 100 l49 0 l0 47 l-49 0 l0 270 l-12 0 l-231 -293 l0 -24 l190 0 l0 -100 l53 0 l0 100 ZM736 145 l-117 0 l117 155 l0 -155 Z" /><glyph glyph-name="" unicode="&#x2212;" d="M709 257 l0 83 l-585 0 l0 -83 l585 0 Z" /><glyph glyph-name="" unicode="ð" d="M416 495 q-25 16 -53 23 q-28 8 -60 8 q-57 0 -105 -20 q-48 -21 -83 -57 q-36 -36 -56 -86 q-20 -49 -20 -107 q0 -58 20 -105 q19 -48 56 -86 q78 -78 188 -78 q58 0 106 20 q49 20 84 57 q36 37 55 89 q20 52 20 118 q0 222 -197 383 l95 54 l-22 40 l-113 -63 q-85 56 -132 79 l-33 -60 q50 -29 93 -59 l-127 -69 l22 -40 l147 80 q35 -28 64 -58 q28 -30 51 -63 l0 0 ZM303 68 q-36 0 -66 14 q-31 14 -54 39 q-48 51 -48 136 q0 85 48 136 q23 25 54 39 q30 14 66 14 q36 0 67 -14 q31 -14 54 -38 q48 -51 48 -137 q0 -86 -48 -136 q-23 -25 -54 -39 q-31 -14 -67 -14 l0 0 Z" /><glyph glyph-name="" unicode="×" d="M364 298 l-224 -224 l57 -58 l224 225 l225 -225 l57 58 l-224 224 l224 225 l-57 57 l-225 -224 l-224 224 l-57 -57 l224 -225 Z" /><glyph glyph-name="" unicode="&#x160;" d="M356 833 l96 171 l-60 0 l-84 -112 l-85 112 l-59 0 l96 -171 l96 0 ZM47 215 q10 -110 76 -169 q65 -60 178 -61 q55 0 100 16 q46 17 79 46 q33 29 52 68 q18 38 18 83 q0 45 -14 82 q-14 35 -43 62 q-28 27 -71 48 q-44 21 -89 37 q-45 16 -78 27 q-17 5 -35 13 q-17 8 -32 22 q-15 14 -24 34 q-10 19 -10 49 q1 56 37 89 q35 34 99 35 q130 0 148 -147 l100 0 q-6 110 -71 169 q-65 60 -178 61 q-54 0 -96 -15 q-43 -15 -73 -42 q-30 -27 -46 -64 q-16 -38 -16 -86 q0 -100 65 -153 q40 -32 82 -48 q42 -17 84 -30 q39 -12 69 -25 q30 -13 50 -30 q20 -17 31 -39 q10 -22 10 -54 q0 -53 -38 -85 q-38 -33 -108 -34 q-73 0 -113 38 q-41 38 -42 107 l-101 -4 Z" /><glyph glyph-name="" unicode="ý" d="M435 1004 l-98 0 l-100 -171 l59 0 l139 171 ZM359 308 l255 456 l-112 0 l-177 -330 q-12 -18 -16 -37 q-4 11 -8 20 q-4 9 -8 17 l-178 330 l-116 0 l260 -455 l0 -309 l100 0 l0 308 Z" /><glyph glyph-name="" unicode="&#x17d;" d="M358 833 l96 171 l-60 0 l-84 -112 l-85 112 l-59 0 l96 -171 l96 0 ZM575 90 l-412 0 q18 19 32 38 q13 19 25 38 l376 598 l-551 0 l0 -90 l391 0 q-15 -14 -27 -30 q-12 -17 -23 -34 l-381 -610 l570 0 l0 90 Z" /><glyph glyph-name="" unicode="&#x161;" d="M282 591 l96 171 l-60 0 l-84 -112 l-85 112 l-59 0 l96 -171 l96 0 ZM44 153 q3 -79 51 -122 q49 -43 140 -44 q43 0 78 12 q34 12 59 34 q50 44 50 116 q0 68 -51 110 q-22 17 -54 28 q-33 11 -75 22 q-52 13 -78 29 q-26 16 -26 50 q0 31 25 51 q24 20 69 21 q84 0 89 -86 l87 0 l0 4 q-1 76 -48 118 q-47 41 -132 42 q-39 0 -72 -11 q-33 -12 -56 -32 q-24 -21 -37 -48 q-13 -28 -13 -60 q0 -59 38 -95 q38 -37 117 -59 l54 -15 q5 -2 11 -3 q6 -2 11 -4 q11 -4 18 -8 q17 -9 26 -21 q8 -13 8 -34 q0 -37 -25 -60 q-26 -22 -74 -23 q-93 0 -99 88 l-91 0 Z" /><glyph glyph-name="" unicode="ý" d="M406 762 l-98 0 l-100 -171 l59 0 l139 171 ZM229 -218 l326 743 l-102 0 l-137 -332 l-12 -34 q-2 -7 -5 -14 q-3 -8 -5 -17 l-14 -42 q-25 94 -33 107 l-135 332 l-104 0 l219 -525 l-92 -218 l94 0 Z" /><glyph glyph-name="" unicode="&#x17e;" d="M287 591 l96 171 l-60 0 l-84 -112 l-85 112 l-59 0 l96 -171 l96 0 ZM52 447 l240 0 l-270 -447 l409 0 l0 79 l-262 0 l272 446 l-389 0 l0 -78 Z" /><glyph glyph-name="" unicode="&#x2025;" d="M75 51 q1 -27 19 -45 q18 -18 45 -19 q27 1 45 19 q18 18 19 45 q-1 28 -18 45 q-18 17 -46 18 q-27 -1 -45 -18 q-18 -18 -19 -45 l0 0 ZM353 51 q1 -27 19 -45 q18 -18 45 -19 q27 1 45 19 q18 18 19 45 q-1 28 -18 45 q-18 17 -46 18 q-27 -1 -45 -18 q-18 -18 -19 -45 l0 0 Z" /><glyph glyph-name="" unicode="&#x2024;" d="M75 51 q1 -27 19 -45 q18 -18 45 -19 q27 1 45 19 q18 18 19 45 q-1 28 -18 45 q-18 17 -46 18 q-27 -1 -45 -18 q-18 -18 -19 -45 l0 0 Z" /><glyph glyph-name="" unicode="&#xfb00;" d="M283 764 q-95 -2 -136 -45 q-42 -44 -41 -137 l0 -57 l-79 0 l0 -78 l79 0 l0 -447 l95 0 l0 447 l82 0 l0 78 l-82 0 l0 61 q0 25 2 42 q3 18 11 29 q8 11 24 16 q15 4 41 4 l4 0 l0 87 ZM592 764 q-95 -2 -136 -45 q-42 -44 -41 -137 l0 -57 l-79 0 l0 -78 l79 0 l0 -447 l95 0 l0 447 l82 0 l0 78 l-82 0 l0 61 q0 25 2 42 q3 18 11 29 q8 11 24 16 q15 4 41 4 l4 0 l0 87 Z" /><glyph glyph-name="" unicode="&#xfb03;" d="M283 764 q-95 -2 -136 -45 q-42 -44 -41 -137 l0 -57 l-79 0 l0 -78 l79 0 l0 -447 l95 0 l0 447 l82 0 l0 78 l-82 0 l0 61 q0 25 2 42 q3 18 11 29 q8 11 24 16 q15 4 41 4 l4 0 l0 87 ZM592 764 q-95 -2 -136 -45 q-42 -44 -41 -137 l0 -57 l-79 0 l0 -78 l79 0 l0 -447 l95 0 l0 447 l82 0 l0 78 l-82 0 l0 61 q0 25 2 42 q3 18 11 29 q8 11 24 16 q15 4 41 4 l4 0 l0 87 ZM679 700 q1 -27 19 -45 q18 -17 45 -18 q27 1 45 18 q18 18 19 45 q-1 28 -18 46 q-18 17 -46 18 q-27 -1 -45 -19 q-18 -18 -19 -45 l0 0 ZM789 525 l-95 0 l0 -525 l95 0 l0 525 Z" /><glyph glyph-name="" unicode="&#xfb04;" d="M283 764 q-95 -2 -136 -45 q-42 -44 -41 -137 l0 -57 l-79 0 l0 -78 l79 0 l0 -447 l95 0 l0 447 l82 0 l0 78 l-82 0 l0 61 q0 25 2 42 q3 18 11 29 q8 11 24 16 q15 4 41 4 l4 0 l0 87 ZM592 764 q-95 -2 -136 -45 q-42 -44 -41 -137 l0 -57 l-79 0 l0 -78 l79 0 l0 -447 l95 0 l0 447 l82 0 l0 78 l-82 0 l0 61 q0 25 2 42 q3 18 11 29 q8 11 24 16 q15 4 41 4 l4 0 l0 87 ZM789 759 l-92 0 l0 -759 l92 0 l0 759 Z" /><glyph glyph-name="" unicode="&#x20a1;" d="M438 128 q-45 -58 -127 -58 l0 386 q77 0 123 -53 l59 68 q-37 34 -82 50 q-45 17 -100 17 l0 226 l-87 0 l0 -238 q-62 -19 -109 -66 q-36 -37 -56 -87 q-20 -51 -20 -111 q0 -120 78 -199 q45 -46 107 -64 l0 -235 l87 0 l0 223 q56 0 101 17 q45 17 86 55 l-60 69 ZM186 124 q-23 26 -36 61 q-13 34 -13 77 q0 43 13 78 q13 36 36 62 q8 10 18 18 q9 7 20 14 l0 -342 q-11 7 -20 15 q-10 7 -18 17 l0 0 Z" /><glyph glyph-name="" unicode="&#x431;" d="M409 761 q-57 -30 -107 -63 q-50 -33 -95 -72 q-45 -39 -80 -86 q-35 -47 -60 -107 q-8 -24 -13 -41 q-5 -17 -8 -32 q-3 -15 -5 -33 q-3 -17 -6 -41 q-2 -60 16 -113 q18 -54 55 -96 q36 -42 90 -65 q53 -24 125 -24 q52 0 98 22 q45 22 81 61 q35 39 55 87 q19 48 19 102 q0 52 -19 100 q-19 47 -53 84 q-34 36 -80 58 q-47 21 -101 21 q-66 0 -120 -20 q25 33 53 60 q28 27 59 51 q30 23 64 45 q33 22 70 46 q-9 15 -18 28 q-9 14 -20 28 l0 0 ZM309 69 q-37 0 -70 14 q-33 14 -57 40 q-25 26 -39 61 q-14 35 -14 77 q0 43 14 78 q14 36 39 62 q24 26 57 41 q33 14 70 14 q75 0 123 -53 q23 -26 36 -62 q13 -36 13 -79 q0 -43 -13 -78 q-13 -35 -36 -61 q-48 -54 -123 -54 l0 0 Z" /><glyph glyph-name="" unicode="&#x3a9;" d="M601 82 q66 57 101 130 q34 72 34 157 q0 69 -24 128 q-24 58 -66 100 q-43 42 -102 66 q-59 24 -131 24 q-63 0 -120 -25 q-57 -25 -102 -68 q-45 -43 -70 -101 q-26 -58 -26 -124 q0 -43 10 -83 q10 -41 28 -78 q18 -37 42 -69 q24 -32 53 -57 l-147 0 l0 -79 l272 0 l0 62 q-38 19 -67 53 q-28 33 -47 76 q-19 42 -29 87 q-10 45 -10 87 q0 43 15 85 q16 42 45 76 q29 34 67 55 q38 21 86 22 q28 0 65 -9 q37 -10 72 -36 q35 -26 58 -72 q23 -47 24 -121 q0 -93 -40 -168 q-39 -75 -112 -137 l0 -60 l268 0 l0 79 l-147 0 Z" /><glyph glyph-name="" unicode="&#x212e;" d="M754 369 q2 85 -23 155 q-25 70 -73 121 q-48 51 -113 79 q-66 27 -147 27 q-78 -2 -142 -30 q-65 -28 -113 -79 q-48 -51 -74 -119 q-26 -68 -26 -149 q0 -78 24 -147 q24 -68 70 -122 q45 -54 112 -84 q66 -30 151 -30 q57 0 100 11 q42 11 77 34 q35 23 66 57 q32 34 67 82 q-13 8 -25 16 q-11 7 -22 12 q-24 -34 -49 -64 q-24 -30 -56 -52 q-32 -22 -74 -35 q-42 -13 -101 -13 q-53 0 -97 22 q-45 21 -89 60 l0 248 l557 0 ZM197 618 q23 24 45 38 q46 28 100 37 l55 9 q57 0 106 -22 q49 -21 94 -60 l0 -199 l-400 0 l0 197 Z" /><glyph glyph-name="" unicode="&#x16e;" d="M250 945 q0 -52 36 -88 q35 -36 87 -36 q53 1 88 36 q35 35 36 88 q0 53 -36 88 q-17 17 -39 26 q-23 9 -49 9 q-52 0 -87 -35 q-36 -36 -36 -88 l0 0 ZM307 944 q1 28 19 47 q19 18 47 19 q28 -1 47 -19 q18 -19 19 -47 q-1 -28 -19 -47 q-19 -18 -47 -19 q-28 1 -47 19 q-18 19 -19 47 l0 0 ZM81 287 q0 -70 22 -126 q21 -56 60 -95 q38 -39 92 -60 q53 -21 119 -21 q66 0 119 21 q53 21 92 60 q39 39 60 95 q21 56 21 126 l0 477 l-100 0 l0 -471 q0 -109 -49 -163 q-49 -54 -143 -54 q-91 0 -142 56 q-50 55 -51 161 l0 471 l-100 0 l0 -477 Z" /><glyph glyph-name="" unicode="&#x16b;" d="M421 705 l-264 0 l0 -68 l264 0 l0 68 ZM70 228 q1 -115 58 -178 q57 -62 161 -63 q104 1 161 63 q58 63 59 178 l0 297 l-93 0 l0 -291 q0 -81 -33 -123 q-34 -42 -94 -42 q-60 0 -93 42 q-34 42 -34 123 l0 291 l-92 0 l0 -297 Z" /><glyph glyph-name="" unicode="&#x16f;" d="M166 706 q0 -52 36 -88 q35 -36 87 -36 q53 1 88 36 q35 35 36 88 q0 53 -36 88 q-17 17 -39 26 q-23 9 -49 9 q-52 0 -87 -35 q-36 -36 -36 -88 l0 0 ZM223 705 q1 28 19 47 q19 18 47 19 q28 -1 47 -19 q18 -19 19 -47 q-1 -28 -19 -47 q-19 -18 -47 -19 q-28 1 -47 19 q-18 19 -19 47 l0 0 ZM70 228 q1 -115 58 -178 q57 -62 161 -63 q104 1 161 63 q58 63 59 178 l0 297 l-93 0 l0 -291 q0 -81 -33 -123 q-34 -42 -94 -42 q-60 0 -93 42 q-34 42 -34 123 l0 291 l-92 0 l0 -297 Z" /><glyph glyph-name="" unicode="&#x170;" d="M381 1001 l-87 0 l-67 -171 l47 0 l107 171 ZM520 1001 l-86 0 l-81 -171 l47 0 l120 171 ZM81 287 q0 -70 22 -126 q21 -56 60 -95 q38 -39 92 -60 q53 -21 119 -21 q66 0 119 21 q53 21 92 60 q39 39 60 95 q21 56 21 126 l0 477 l-100 0 l0 -471 q0 -109 -49 -163 q-49 -54 -143 -54 q-91 0 -142 56 q-50 55 -51 161 l0 471 l-100 0 l0 -477 Z" /><glyph glyph-name="" unicode="&#x171;" d="M297 762 l-87 0 l-67 -171 l47 0 l107 171 ZM436 762 l-86 0 l-81 -171 l47 0 l120 171 ZM70 228 q1 -115 58 -178 q57 -62 161 -63 q104 1 161 63 q58 63 59 178 l0 297 l-93 0 l0 -291 q0 -81 -33 -123 q-34 -42 -94 -42 q-60 0 -93 42 q-34 42 -34 123 l0 291 l-92 0 l0 -297 Z" /><glyph glyph-name="" unicode="&#x172;" d="M81 287 q0 -70 22 -126 q21 -56 60 -95 q38 -39 92 -60 q53 -21 119 -21 q66 0 119 21 q53 21 92 60 q39 39 60 95 q21 56 21 126 l0 477 l-100 0 l0 -471 q0 -109 -49 -163 q-49 -54 -143 -54 q-91 0 -142 56 q-50 55 -51 161 l0 471 l-100 0 l0 -477 ZM605 0 q-45 -35 -68 -67 q-23 -32 -23 -67 q0 -82 110 -82 l42 0 l0 70 l-41 0 q-26 0 -37 8 q-10 9 -10 30 q0 26 17 53 q17 26 50 55 l-40 0 Z" /><glyph glyph-name="" unicode="&#x173;" d="M70 228 q1 -115 58 -178 q57 -62 161 -63 q104 1 161 63 q58 63 59 178 l0 297 l-93 0 l0 -291 q0 -81 -33 -123 q-34 -42 -94 -42 q-60 0 -93 42 q-34 42 -34 123 l0 291 l-92 0 l0 -297 ZM448 0 q-45 -35 -68 -67 q-23 -32 -23 -67 q0 -82 110 -82 l42 0 l0 70 l-41 0 q-26 0 -37 8 q-10 9 -10 30 q0 26 17 53 q17 26 50 55 l-40 0 Z" /><glyph glyph-name="" unicode="&#x17c;" d="M181 671 q0 -25 16 -41 q16 -16 41 -17 q25 1 41 17 q16 16 17 41 q-1 24 -17 41 q-17 16 -41 17 q-24 -1 -40 -17 q-16 -17 -17 -41 l0 0 ZM52 447 l240 0 l-270 -447 l409 0 l0 79 l-262 0 l272 446 l-389 0 l0 -78 Z" /><glyph glyph-name="" unicode="&#x17b;" d="M252 910 q0 -25 16 -41 q16 -16 41 -17 q25 1 41 17 q16 16 17 41 q-1 24 -17 41 q-17 16 -41 17 q-24 -1 -40 -17 q-16 -17 -17 -41 l0 0 ZM575 90 l-412 0 q18 19 32 38 q13 19 25 38 l376 598 l-551 0 l0 -90 l391 0 q-15 -14 -27 -30 q-12 -17 -23 -34 l-381 -610 l570 0 l0 90 Z" /><glyph glyph-name="" unicode="&#x165;" d="M410 496 l121 243 l-97 40 l-92 -257 l68 -26 ZM87 109 q-1 -65 29 -94 q31 -29 101 -28 l52 0 l0 88 l-49 0 q-40 0 -40 45 l0 327 l89 0 l0 78 l-89 0 l0 128 l-93 0 l0 -128 l-69 0 l0 -78 l69 0 l0 -338 Z" /><glyph glyph-name="" unicode="&#x164;" d="M301 830 l96 171 l-60 0 l-84 -112 l-85 112 l-59 0 l96 -171 l96 0 ZM303 674 l195 0 l0 90 l-489 0 l0 -90 l195 0 l0 -674 l99 0 l0 674 Z" /><glyph glyph-name="" unicode="&#x16a;" d="M506 944 l-264 0 l0 -68 l264 0 l0 68 ZM81 287 q0 -70 22 -126 q21 -56 60 -95 q38 -39 92 -60 q53 -21 119 -21 q66 0 119 21 q53 21 92 60 q39 39 60 95 q21 56 21 126 l0 477 l-100 0 l0 -471 q0 -109 -49 -163 q-49 -54 -143 -54 q-91 0 -142 56 q-50 55 -51 161 l0 471 l-100 0 l0 -477 Z" /><glyph glyph-name="" unicode="&#x15b;" d="M333 762 l-98 0 l-100 -171 l59 0 l139 171 ZM44 153 q3 -79 51 -122 q49 -43 140 -44 q43 0 78 12 q34 12 59 34 q50 44 50 116 q0 68 -51 110 q-22 17 -54 28 q-33 11 -75 22 q-52 13 -78 29 q-26 16 -26 50 q0 31 25 51 q24 20 69 21 q84 0 89 -86 l87 0 l0 4 q-1 76 -48 118 q-47 41 -132 42 q-39 0 -72 -11 q-33 -12 -56 -32 q-24 -21 -37 -48 q-13 -28 -13 -60 q0 -59 38 -95 q38 -37 117 -59 l54 -15 q5 -2 11 -3 q6 -2 11 -4 q11 -4 18 -8 q17 -9 26 -21 q8 -13 8 -34 q0 -37 -25 -60 q-26 -22 -74 -23 q-93 0 -99 88 l-91 0 Z" /><glyph glyph-name="" unicode="&#x15a;" d="M407 1001 l-98 0 l-100 -171 l59 0 l139 171 ZM47 215 q10 -110 76 -169 q65 -60 178 -61 q55 0 100 16 q46 17 79 46 q33 29 52 68 q18 38 18 83 q0 45 -14 82 q-14 35 -43 62 q-28 27 -71 48 q-44 21 -89 37 q-45 16 -78 27 q-17 5 -35 13 q-17 8 -32 22 q-15 14 -24 34 q-10 19 -10 49 q1 56 37 89 q35 34 99 35 q130 0 148 -147 l100 0 q-6 110 -71 169 q-65 60 -178 61 q-54 0 -96 -15 q-43 -15 -73 -42 q-30 -27 -46 -64 q-16 -38 -16 -86 q0 -100 65 -153 q40 -32 82 -48 q42 -17 84 -30 q39 -12 69 -25 q30 -13 50 -30 q20 -17 31 -39 q10 -22 10 -54 q0 -53 -38 -85 q-38 -33 -108 -34 q-73 0 -113 38 q-41 38 -42 107 l-101 -4 Z" /><glyph glyph-name="" unicode="&#x159;" d="M226 591 l96 171 l-60 0 l-84 -112 l-85 112 l-59 0 l96 -171 l96 0 ZM172 294 q0 150 119 150 q19 0 46 -6 l0 94 q-10 2 -16 2 l-16 0 q-90 0 -137 -80 l0 71 l-88 0 l0 -525 l92 0 l0 294 Z" /><glyph glyph-name="" unicode="&#x158;" d="M356 830 l96 171 l-60 0 l-84 -112 l-85 112 l-59 0 l96 -171 l96 0 ZM187 311 l272 -311 l125 0 l-269 297 l6 0 q51 0 94 17 q42 18 73 50 q30 32 47 75 q16 42 16 93 q0 110 -73 170 q-73 61 -216 62 l-174 0 l0 -764 l99 0 l0 311 ZM254 674 q99 0 147 -38 q48 -37 48 -107 q0 -75 -48 -116 q-48 -41 -142 -41 l-72 0 l0 302 l67 0 Z" /><glyph glyph-name="" unicode="&#x155;" d="M277 762 l-98 0 l-100 -171 l59 0 l139 171 ZM172 294 q0 150 119 150 q19 0 46 -6 l0 94 q-10 2 -16 2 l-16 0 q-90 0 -137 -80 l0 71 l-88 0 l0 -525 l92 0 l0 294 Z" /><glyph glyph-name="" unicode="&#x154;" d="M407 1001 l-98 0 l-100 -171 l59 0 l139 171 ZM187 311 l272 -311 l125 0 l-269 297 l6 0 q51 0 94 17 q42 18 73 50 q30 32 47 75 q16 42 16 93 q0 110 -73 170 q-73 61 -216 62 l-174 0 l0 -764 l99 0 l0 311 ZM254 674 q99 0 147 -38 q48 -37 48 -107 q0 -75 -48 -116 q-48 -41 -142 -41 l-72 0 l0 302 l67 0 Z" /><glyph glyph-name="" unicode="&#x14d;" d="M441 705 l-264 0 l0 -68 l264 0 l0 68 ZM309 538 q-57 0 -106 -20 q-49 -21 -87 -59 q-77 -77 -77 -197 q0 -59 19 -108 q20 -50 58 -88 q38 -38 87 -59 q49 -20 106 -20 q57 0 106 20 q49 21 87 59 q38 38 58 88 q19 49 19 108 q0 60 -20 109 q-19 50 -56 88 q-38 39 -88 59 q-49 20 -106 20 l0 0 ZM309 69 q-37 0 -68 14 q-32 15 -55 41 q-23 26 -36 61 q-13 35 -13 77 q0 43 13 78 q13 36 36 62 q48 54 123 54 q75 0 123 -53 q23 -26 36 -62 q13 -36 13 -79 q0 -43 -13 -78 q-13 -35 -36 -61 q-48 -54 -123 -54 l0 0 Z" /><glyph glyph-name="" unicode="&#x14c;" d="M577 944 l-264 0 l0 -68 l264 0 l0 68 ZM439 -15 q168 0 277 106 q58 57 88 130 q30 73 30 161 q0 88 -31 161 q-30 74 -88 131 q-108 105 -276 105 q-168 0 -276 -105 q-58 -57 -88 -131 q-31 -73 -31 -161 q0 -88 30 -161 q30 -73 88 -130 q109 -106 277 -106 l0 0 ZM438 75 q-124 0 -204 81 q-45 45 -66 102 q-22 57 -22 124 q3 140 83 223 q81 82 209 84 q127 -2 209 -86 q82 -84 85 -221 q0 -67 -21 -124 q-22 -57 -67 -102 q-80 -81 -206 -81 l0 0 Z" /><glyph glyph-name="" unicode="&#x151;" d="M316 762 l-87 0 l-67 -171 l47 0 l107 171 ZM455 762 l-86 0 l-81 -171 l47 0 l120 171 ZM309 538 q-57 0 -106 -20 q-49 -21 -87 -59 q-77 -77 -77 -197 q0 -59 19 -108 q20 -50 58 -88 q38 -38 87 -59 q49 -20 106 -20 q57 0 106 20 q49 21 87 59 q38 38 58 88 q19 49 19 108 q0 60 -20 109 q-19 50 -56 88 q-38 39 -88 59 q-49 20 -106 20 l0 0 ZM309 69 q-37 0 -68 14 q-32 15 -55 41 q-23 26 -36 61 q-13 35 -13 77 q0 43 13 78 q13 36 36 62 q48 54 123 54 q75 0 123 -53 q23 -26 36 -62 q13 -36 13 -79 q0 -43 -13 -78 q-13 -35 -36 -61 q-48 -54 -123 -54 l0 0 Z" /><glyph glyph-name="" unicode="&#x150;" d="M453 1001 l-87 0 l-67 -171 l47 0 l107 171 ZM592 1001 l-86 0 l-81 -171 l47 0 l120 171 ZM439 -15 q168 0 277 106 q58 57 88 130 q30 73 30 161 q0 88 -31 161 q-30 74 -88 131 q-108 105 -276 105 q-168 0 -276 -105 q-58 -57 -88 -131 q-31 -73 -31 -161 q0 -88 30 -161 q30 -73 88 -130 q109 -106 277 -106 l0 0 ZM438 75 q-124 0 -204 81 q-45 45 -66 102 q-22 57 -22 124 q3 140 83 223 q81 82 209 84 q127 -2 209 -86 q82 -84 85 -221 q0 -67 -21 -124 q-22 -57 -67 -102 q-80 -81 -206 -81 l0 0 Z" /><glyph glyph-name="" unicode="&#x148;" d="M344 591 l96 171 l-60 0 l-84 -112 l-85 112 l-59 0 l96 -171 l96 0 ZM172 291 q0 163 139 163 q63 0 91 -39 q28 -39 27 -120 l0 -295 l93 0 l0 304 q-1 112 -52 171 q-51 60 -143 60 q-86 0 -155 -70 l0 60 l-92 0 l0 -525 l92 0 l0 291 Z" /><glyph glyph-name="" unicode="&#x147;" d="M434 830 l96 171 l-60 0 l-84 -112 l-85 112 l-59 0 l96 -171 l96 0 ZM185 504 q0 66 -16 137 q9 -29 22 -50 q13 -21 26 -39 l387 -552 l81 0 l0 764 l-97 0 l0 -509 q0 -24 5 -54 q4 -31 14 -67 q-26 60 -55 102 l-371 528 l-93 0 l0 -764 l97 0 l0 504 Z" /><glyph glyph-name="" unicode="&#x144;" d="M395 762 l-98 0 l-100 -171 l59 0 l139 171 ZM172 291 q0 163 139 163 q63 0 91 -39 q28 -39 27 -120 l0 -295 l93 0 l0 304 q-1 112 -52 171 q-51 60 -143 60 q-86 0 -155 -70 l0 60 l-92 0 l0 -525 l92 0 l0 291 Z" /><glyph glyph-name="" unicode="&#x143;" d="M485 1001 l-98 0 l-100 -171 l59 0 l139 171 ZM185 504 q0 66 -16 137 q9 -29 22 -50 q13 -21 26 -39 l387 -552 l81 0 l0 764 l-97 0 l0 -509 q0 -24 5 -54 q4 -31 14 -67 q-26 60 -55 102 l-371 528 l-93 0 l0 -764 l97 0 l0 504 Z" /><glyph glyph-name="" unicode="&#x12b;" d="M257 705 l-264 0 l0 -68 l264 0 l0 68 ZM171 525 l-92 0 l0 -525 l92 0 l0 525 Z" /><glyph glyph-name="" unicode="&#x12a;" d="M271 944 l-264 0 l0 -68 l264 0 l0 68 ZM187 764 l-99 0 l0 -764 l99 0 l0 764 Z" /><glyph glyph-name="" unicode="&#x12f;" d="M125 637 q27 1 45 18 q18 18 19 45 q-1 28 -18 46 q-18 17 -46 18 q-27 -1 -45 -19 q-18 -18 -19 -45 q1 -27 19 -45 q18 -17 45 -18 l0 0 ZM160 -146 q-26 0 -37 8 q-10 9 -10 30 q0 26 17 53 q17 26 50 55 l-9 0 l0 525 l-95 0 l0 -525 l64 0 q-45 -35 -68 -67 q-23 -32 -23 -67 q0 -82 110 -82 l42 0 l0 70 l-41 0 Z" /><glyph glyph-name="" unicode="&#x12e;" d="M187 0 l0 764 l-99 0 l0 -764 l38 0 q-45 -35 -68 -67 q-23 -32 -23 -67 q0 -82 110 -82 l42 0 l0 70 l-41 0 q-26 0 -37 8 q-10 9 -10 30 q0 26 17 53 q17 26 50 55 l21 0 Z" /><glyph glyph-name="" unicode="&#x119;" d="M585 239 q0 69 -20 124 q-20 55 -56 94 q-37 39 -87 60 q-51 21 -112 21 q-60 0 -109 -20 q-50 -20 -85 -56 q-36 -37 -56 -88 q-20 -52 -20 -115 q0 -54 18 -102 q18 -47 52 -84 q39 -42 92 -64 q53 -22 116 -22 q75 0 135 27 q59 27 110 87 l-67 54 q-73 -85 -175 -85 q-80 0 -131 45 q-25 21 -40 51 q-15 30 -17 66 l452 0 l0 7 ZM133 306 q4 33 19 60 q15 28 39 48 q48 42 118 42 q69 0 116 -41 q47 -39 57 -109 l-349 0 ZM524 0 q-45 -35 -68 -67 q-23 -32 -23 -67 q0 -82 110 -82 l42 0 l0 70 l-41 0 q-26 0 -37 8 q-10 9 -10 30 q0 26 17 53 q17 26 50 55 l-40 0 Z" /><glyph glyph-name="" unicode="&#x118;" d="M485 674 l0 90 l-397 0 l0 -764 l336 0 q-45 -35 -68 -67 q-23 -32 -23 -67 q0 -82 110 -82 l42 0 l0 70 l-41 0 q-26 0 -37 8 q-10 9 -10 30 q0 26 17 53 q17 26 50 55 l21 0 l0 90 l-298 0 l0 257 l298 0 l0 88 l-298 0 l0 239 l298 0 Z" /><glyph glyph-name="" unicode="&#x11b;" d="M360 591 l96 171 l-60 0 l-84 -112 l-85 112 l-59 0 l96 -171 l96 0 ZM585 239 q0 69 -20 124 q-20 55 -56 94 q-37 39 -87 60 q-51 21 -112 21 q-60 0 -109 -20 q-50 -20 -85 -56 q-36 -37 -56 -88 q-20 -52 -20 -115 q0 -54 18 -102 q18 -47 52 -84 q39 -42 92 -64 q53 -22 116 -22 q75 0 135 27 q59 27 110 87 l-67 54 q-73 -85 -175 -85 q-80 0 -131 45 q-25 21 -40 51 q-15 30 -17 66 l452 0 l0 7 ZM133 306 q4 33 19 60 q15 28 39 48 q48 42 118 42 q69 0 116 -41 q47 -39 57 -109 l-349 0 Z" /><glyph glyph-name="" unicode="&#x11a;" d="M332 830 l96 171 l-60 0 l-84 -112 l-85 112 l-59 0 l96 -171 l96 0 ZM485 90 l-298 0 l0 257 l298 0 l0 88 l-298 0 l0 239 l298 0 l0 90 l-397 0 l0 -764 l397 0 l0 90 Z" /><glyph glyph-name="" unicode="&#x117;" d="M255 671 q0 -25 16 -41 q16 -16 41 -17 q25 1 41 17 q16 16 17 41 q-1 24 -17 41 q-17 16 -41 17 q-24 -1 -40 -17 q-16 -17 -17 -41 l0 0 ZM585 239 q0 69 -20 124 q-20 55 -56 94 q-37 39 -87 60 q-51 21 -112 21 q-60 0 -109 -20 q-50 -20 -85 -56 q-36 -37 -56 -88 q-20 -52 -20 -115 q0 -54 18 -102 q18 -47 52 -84 q39 -42 92 -64 q53 -22 116 -22 q75 0 135 27 q59 27 110 87 l-67 54 q-73 -85 -175 -85 q-80 0 -131 45 q-25 21 -40 51 q-15 30 -17 66 l452 0 l0 7 ZM133 306 q4 33 19 60 q15 28 39 48 q48 42 118 42 q69 0 116 -41 q47 -39 57 -109 l-349 0 Z" /><glyph glyph-name="" unicode="&#x116;" d="M227 910 q0 -25 16 -41 q16 -16 41 -17 q25 1 41 17 q16 16 17 41 q-1 24 -17 41 q-17 16 -41 17 q-24 -1 -40 -17 q-16 -17 -17 -41 l0 0 ZM485 90 l-298 0 l0 257 l298 0 l0 88 l-298 0 l0 239 l298 0 l0 90 l-397 0 l0 -764 l397 0 l0 90 Z" /><glyph glyph-name="" unicode="&#x113;" d="M444 705 l-264 0 l0 -68 l264 0 l0 68 ZM585 239 q0 69 -20 124 q-20 55 -56 94 q-37 39 -87 60 q-51 21 -112 21 q-60 0 -109 -20 q-50 -20 -85 -56 q-36 -37 -56 -88 q-20 -52 -20 -115 q0 -54 18 -102 q18 -47 52 -84 q39 -42 92 -64 q53 -22 116 -22 q75 0 135 27 q59 27 110 87 l-67 54 q-73 -85 -175 -85 q-80 0 -131 45 q-25 21 -40 51 q-15 30 -17 66 l452 0 l0 7 ZM133 306 q4 33 19 60 q15 28 39 48 q48 42 118 42 q69 0 116 -41 q47 -39 57 -109 l-349 0 Z" /><glyph glyph-name="" unicode="&#x112;" d="M416 944 l-264 0 l0 -68 l264 0 l0 68 ZM485 90 l-298 0 l0 257 l298 0 l0 88 l-298 0 l0 239 l298 0 l0 90 l-397 0 l0 -764 l397 0 l0 90 Z" /><glyph glyph-name="" unicode="&#x10f;" d="M769 496 l121 243 l-97 40 l-92 -257 l68 -26 ZM503 450 q-32 40 -80 62 q-47 23 -113 23 q-57 0 -107 -21 q-51 -21 -90 -60 q-75 -75 -75 -190 q0 -60 20 -110 q19 -50 55 -86 q36 -36 86 -55 q50 -20 111 -20 q125 0 201 86 l0 -79 l85 0 l0 759 l-93 0 l0 -309 ZM322 454 q42 0 76 -14 q33 -14 58 -39 q25 -25 38 -59 q14 -35 14 -77 q0 -42 -14 -76 q-13 -34 -38 -60 q-51 -54 -134 -54 q-83 0 -134 54 q-25 26 -38 60 q-14 34 -14 76 q0 42 14 77 q13 34 38 59 q25 25 58 39 q34 14 76 14 l0 0 Z" /><glyph glyph-name="" unicode="&#x10e;" d="M416 830 l96 171 l-60 0 l-84 -112 l-85 112 l-59 0 l96 -171 l96 0 ZM246 0 q218 1 329 98 q110 97 110 284 q0 187 -110 284 q-111 97 -329 98 l-158 0 l0 -764 l158 0 ZM261 674 q323 0 323 -292 q0 -292 -323 -292 l-73 0 l0 584 l73 0 Z" /><glyph glyph-name="" unicode="&#x17a;" d="M338 762 l-98 0 l-100 -171 l59 0 l139 171 ZM52 447 l240 0 l-270 -447 l409 0 l0 79 l-262 0 l272 446 l-389 0 l0 -78 Z" /><glyph glyph-name="" unicode="&#x179;" d="M409 1001 l-98 0 l-100 -171 l59 0 l139 171 ZM575 90 l-412 0 q18 19 32 38 q13 19 25 38 l376 598 l-551 0 l0 -90 l391 0 q-15 -14 -27 -30 q-12 -17 -23 -34 l-381 -610 l570 0 l0 90 Z" /><glyph glyph-name="" unicode="&#x107;" d="M367 762 l-98 0 l-100 -171 l59 0 l139 171 ZM493 471 q-73 67 -183 67 q-60 0 -109 -21 q-50 -20 -86 -57 q-36 -37 -56 -87 q-20 -51 -20 -111 q0 -120 78 -199 q36 -37 85 -56 q48 -20 108 -20 q56 0 102 17 q45 17 86 55 l-60 69 q-45 -58 -128 -58 q-76 0 -124 54 q-23 26 -36 61 q-13 34 -13 77 q0 43 13 78 q13 36 36 62 q48 54 124 54 q38 0 70 -13 q31 -14 54 -40 l59 68 Z" /><glyph glyph-name="" unicode="&#x106;" d="M474 1001 l-98 0 l-100 -171 l59 0 l139 171 ZM707 681 q-53 49 -120 73 q-68 25 -148 25 q-169 0 -277 -105 q-58 -57 -88 -131 q-30 -73 -30 -161 q0 -88 30 -161 q30 -74 88 -131 q108 -105 277 -105 q165 0 275 105 l-66 71 q-77 -86 -209 -86 q-63 0 -116 22 q-54 23 -93 64 q-40 41 -62 97 q-22 55 -22 124 q0 69 23 125 q22 56 62 97 q39 41 92 63 q53 22 116 22 q66 0 116 -21 q49 -21 88 -59 l64 72 Z" /><glyph glyph-name="" unicode="&#x10d;" d="M316 591 l96 171 l-60 0 l-84 -112 l-85 112 l-59 0 l96 -171 l96 0 ZM493 471 q-73 67 -183 67 q-60 0 -109 -21 q-50 -20 -86 -57 q-36 -37 -56 -87 q-20 -51 -20 -111 q0 -120 78 -199 q36 -37 85 -56 q48 -20 108 -20 q56 0 102 17 q45 17 86 55 l-60 69 q-45 -58 -128 -58 q-76 0 -124 54 q-23 26 -36 61 q-13 34 -13 77 q0 43 13 78 q13 36 36 62 q48 54 124 54 q38 0 70 -13 q31 -14 54 -40 l59 68 Z" /><glyph glyph-name="" unicode="&#x10c;" d="M423 830 l96 171 l-60 0 l-84 -112 l-85 112 l-59 0 l96 -171 l96 0 ZM707 681 q-53 49 -120 73 q-68 25 -148 25 q-169 0 -277 -105 q-58 -57 -88 -131 q-30 -73 -30 -161 q0 -88 30 -161 q30 -74 88 -131 q108 -105 277 -105 q165 0 275 105 l-66 71 q-77 -86 -209 -86 q-63 0 -116 22 q-54 23 -93 64 q-40 41 -62 97 q-22 55 -22 124 q0 69 23 125 q22 56 62 97 q39 41 92 63 q53 22 116 22 q66 0 116 -21 q49 -21 88 -59 l64 72 Z" /><glyph glyph-name="" unicode="&#x105;" d="M587 0 l0 525 l-86 0 l0 -86 q-72 96 -197 96 q-60 0 -109 -19 q-49 -20 -84 -55 q-35 -36 -54 -86 q-19 -50 -19 -111 q0 -56 19 -104 q18 -48 55 -86 q39 -39 88 -60 q49 -21 104 -21 q124 0 190 93 l0 -86 l32 0 q-45 -35 -68 -67 q-23 -32 -23 -67 q0 -82 110 -82 l42 0 l0 70 l-41 0 q-26 0 -37 8 q-10 9 -10 30 q0 26 17 53 q17 26 50 55 l21 0 ZM448 127 q-49 -54 -131 -54 q-40 0 -73 14 q-34 14 -58 39 q-24 25 -37 60 q-14 35 -14 77 q0 42 14 77 q13 35 37 60 q24 25 58 39 q33 14 73 14 q40 0 73 -13 q34 -14 58 -40 q24 -26 38 -61 q13 -34 13 -76 q0 -42 -13 -76 q-14 -34 -38 -60 l0 0 Z" /><glyph glyph-name="" unicode="&#x104;" d="M635 -108 q0 26 17 53 q17 26 50 55 l21 0 l-322 765 l-83 0 l-312 -765 l106 0 l68 177 l359 0 l68 -177 l55 0 q-45 -35 -68 -67 q-23 -32 -23 -67 q0 -82 110 -82 l42 0 l0 70 l-41 0 q-26 0 -37 8 q-10 9 -10 30 l0 0 ZM215 267 l122 307 l8 24 l15 47 q9 -31 15 -48 l8 -23 l120 -307 l-288 0 Z" /><glyph glyph-name="" unicode="&#x101;" d="M464 705 l-264 0 l0 -68 l264 0 l0 68 ZM501 525 l0 -86 q-72 96 -197 96 q-60 0 -109 -19 q-49 -20 -84 -55 q-35 -36 -54 -86 q-19 -50 -19 -111 q0 -56 19 -104 q18 -48 55 -86 q39 -39 88 -60 q49 -21 104 -21 q124 0 190 93 l0 -86 l93 0 l0 525 l-86 0 ZM317 73 q-40 0 -73 14 q-34 14 -58 39 q-24 25 -37 60 q-14 35 -14 77 q0 42 14 77 q13 35 37 60 q24 25 58 39 q33 14 73 14 q40 0 73 -13 q34 -14 58 -40 q24 -26 38 -61 q13 -34 13 -76 q0 -42 -13 -76 q-14 -34 -38 -60 q-49 -54 -131 -54 l0 0 Z" /><glyph glyph-name="" unicode="&#x100;" d="M495 944 l-264 0 l0 -68 l264 0 l0 68 ZM180 177 l359 0 l68 -177 l116 0 l-322 765 l-83 0 l-312 -765 l106 0 l68 177 ZM337 574 l8 24 l15 47 q9 -31 15 -48 l8 -23 l120 -307 l-288 0 l122 307 Z" /><glyph glyph-name="" unicode="&#x13d;" d="M187 93 l0 652 l27 -10 l121 243 l-97 40 l-91 -254 l-59 0 l0 -764 l362 0 l0 93 l-263 0 Z" /><glyph glyph-name="" unicode="&#x13e;" d="M345 496 l121 243 l-97 40 l-92 -257 l68 -26 ZM171 759 l-92 0 l0 -759 l92 0 l0 759 Z" /><glyph glyph-name="" unicode="&#x139;" d="M340 1001 l-98 0 l-100 -171 l59 0 l139 171 ZM450 93 l-263 0 l0 671 l-99 0 l0 -764 l362 0 l0 93 Z" /><glyph glyph-name="" unicode="&#x13a;" d="M224 762 l-98 0 l-2 -3 l-45 0 l0 -77 l-53 -91 l53 0 l0 -591 l92 0 l0 697 l53 65 Z" /><glyph glyph-name="" unicode="&#x137;" d="M172 255 l230 -255 l122 0 l-276 285 l266 240 l-112 0 l-230 -222 l0 456 l-92 0 l0 -759 l92 0 l0 255 ZM236 -301 l121 243 l-97 40 l-92 -257 l68 -26 Z" /><glyph glyph-name="" unicode="&#x10b;" d="M210 671 q0 -25 16 -41 q16 -16 41 -17 q25 1 41 17 q16 16 17 41 q-1 24 -17 41 q-17 16 -41 17 q-24 -1 -40 -17 q-16 -17 -17 -41 l0 0 ZM493 471 q-73 67 -183 67 q-60 0 -109 -21 q-50 -20 -86 -57 q-36 -37 -56 -87 q-20 -51 -20 -111 q0 -120 78 -199 q36 -37 85 -56 q48 -20 108 -20 q56 0 102 17 q45 17 86 55 l-60 69 q-45 -58 -128 -58 q-76 0 -124 54 q-23 26 -36 61 q-13 34 -13 77 q0 43 13 78 q13 36 36 62 q48 54 124 54 q38 0 70 -13 q31 -14 54 -40 l59 68 Z" /><glyph glyph-name="" unicode="&#x109;" d="M268 703 l84 -112 l60 0 l-96 171 l-96 0 l-96 -171 l59 0 l85 112 ZM493 471 q-73 67 -183 67 q-60 0 -109 -21 q-50 -20 -86 -57 q-36 -37 -56 -87 q-20 -51 -20 -111 q0 -120 78 -199 q36 -37 85 -56 q48 -20 108 -20 q56 0 102 17 q45 17 86 55 l-60 69 q-45 -58 -128 -58 q-76 0 -124 54 q-23 26 -36 61 q-13 34 -13 77 q0 43 13 78 q13 36 36 62 q48 54 124 54 q38 0 70 -13 q31 -14 54 -40 l59 68 Z" /><glyph glyph-name="" unicode="&#x103;" d="M190 744 q5 -71 39 -104 q34 -32 103 -32 q69 0 103 32 q34 33 39 104 l-53 0 q-5 -68 -89 -68 q-84 0 -89 68 l-53 0 ZM501 525 l0 -86 q-72 96 -197 96 q-60 0 -109 -19 q-49 -20 -84 -55 q-35 -36 -54 -86 q-19 -50 -19 -111 q0 -56 19 -104 q18 -48 55 -86 q39 -39 88 -60 q49 -21 104 -21 q124 0 190 93 l0 -86 l93 0 l0 525 l-86 0 ZM317 73 q-40 0 -73 14 q-34 14 -58 39 q-24 25 -37 60 q-14 35 -14 77 q0 42 14 77 q13 35 37 60 q24 25 58 39 q33 14 73 14 q40 0 73 -13 q34 -14 58 -40 q24 -26 38 -61 q13 -34 13 -76 q0 -42 -13 -76 q-14 -34 -38 -60 q-49 -54 -131 -54 l0 0 Z" /><glyph glyph-name="" unicode="&#x115;" d="M170 744 q5 -71 39 -104 q34 -32 103 -32 q69 0 103 32 q34 33 39 104 l-53 0 q-5 -68 -89 -68 q-84 0 -89 68 l-53 0 ZM585 239 q0 69 -20 124 q-20 55 -56 94 q-37 39 -87 60 q-51 21 -112 21 q-60 0 -109 -20 q-50 -20 -85 -56 q-36 -37 -56 -88 q-20 -52 -20 -115 q0 -54 18 -102 q18 -47 52 -84 q39 -42 92 -64 q53 -22 116 -22 q75 0 135 27 q59 27 110 87 l-67 54 q-73 -85 -175 -85 q-80 0 -131 45 q-25 21 -40 51 q-15 30 -17 66 l452 0 l0 7 ZM133 306 q4 33 19 60 q15 28 39 48 q48 42 118 42 q69 0 116 -41 q47 -39 57 -109 l-349 0 Z" /><glyph glyph-name="" unicode="&#x11f;" d="M190 744 q5 -71 39 -104 q34 -32 103 -32 q69 0 103 32 q34 33 39 104 l-53 0 q-5 -68 -89 -68 q-84 0 -89 68 l-53 0 ZM501 56 q0 -196 -185 -196 q-115 0 -187 90 l-75 -54 q93 -118 258 -118 q284 0 284 297 l0 450 l-85 0 l0 -86 q-72 96 -197 96 q-60 0 -109 -19 q-49 -20 -84 -55 q-36 -36 -55 -86 q-19 -50 -19 -111 q0 -57 19 -104 q19 -48 55 -86 q39 -39 88 -60 q50 -21 105 -21 q125 0 187 93 l0 -30 ZM327 73 q-40 0 -73 14 q-34 14 -58 39 q-24 25 -37 60 q-14 35 -14 77 q0 42 14 77 q13 35 37 60 q24 25 58 39 q33 14 73 14 q40 0 73 -13 q34 -14 58 -40 q24 -26 38 -61 q13 -34 13 -76 q0 -42 -13 -76 q-14 -34 -38 -60 q-49 -54 -131 -54 l0 0 Z" /><glyph glyph-name="" unicode="&#x11d;" d="M332 703 l84 -112 l60 0 l-96 171 l-96 0 l-96 -171 l59 0 l85 112 ZM501 56 q0 -196 -185 -196 q-115 0 -187 90 l-75 -54 q93 -118 258 -118 q284 0 284 297 l0 450 l-85 0 l0 -86 q-72 96 -197 96 q-60 0 -109 -19 q-49 -20 -84 -55 q-36 -36 -55 -86 q-19 -50 -19 -111 q0 -57 19 -104 q19 -48 55 -86 q39 -39 88 -60 q50 -21 105 -21 q125 0 187 93 l0 -30 ZM327 73 q-40 0 -73 14 q-34 14 -58 39 q-24 25 -37 60 q-14 35 -14 77 q0 42 14 77 q13 35 37 60 q24 25 58 39 q33 14 73 14 q40 0 73 -13 q34 -14 58 -40 q24 -26 38 -61 q13 -34 13 -76 q0 -42 -13 -76 q-14 -34 -38 -60 q-49 -54 -131 -54 l0 0 Z" /><glyph glyph-name="" unicode="&#x123;" d="M359 838 l-122 -243 l98 -40 l91 257 l-67 26 ZM501 56 q0 -196 -185 -196 q-115 0 -187 90 l-75 -54 q93 -118 258 -118 q284 0 284 297 l0 450 l-85 0 l0 -86 q-72 96 -197 96 q-60 0 -109 -19 q-49 -20 -84 -55 q-36 -36 -55 -86 q-19 -50 -19 -111 q0 -57 19 -104 q19 -48 55 -86 q39 -39 88 -60 q50 -21 105 -21 q125 0 187 93 l0 -30 ZM327 73 q-40 0 -73 14 q-34 14 -58 39 q-24 25 -37 60 q-14 35 -14 77 q0 42 14 77 q13 35 37 60 q24 25 58 39 q33 14 73 14 q40 0 73 -13 q34 -14 58 -40 q24 -26 38 -61 q13 -34 13 -76 q0 -42 -13 -76 q-14 -34 -38 -60 q-49 -54 -131 -54 l0 0 Z" /><glyph glyph-name="" unicode="&#x121;" d="M274 671 q0 -25 16 -41 q16 -16 41 -17 q25 1 41 17 q16 16 17 41 q-1 24 -17 41 q-17 16 -41 17 q-24 -1 -40 -17 q-16 -17 -17 -41 l0 0 ZM501 56 q0 -196 -185 -196 q-115 0 -187 90 l-75 -54 q93 -118 258 -118 q284 0 284 297 l0 450 l-85 0 l0 -86 q-72 96 -197 96 q-60 0 -109 -19 q-49 -20 -84 -55 q-36 -36 -55 -86 q-19 -50 -19 -111 q0 -57 19 -104 q19 -48 55 -86 q39 -39 88 -60 q50 -21 105 -21 q125 0 187 93 l0 -30 ZM327 73 q-40 0 -73 14 q-34 14 -58 39 q-24 25 -37 60 q-14 35 -14 77 q0 42 14 77 q13 35 37 60 q24 25 58 39 q33 14 73 14 q40 0 73 -13 q34 -14 58 -40 q24 -26 38 -61 q13 -34 13 -76 q0 -42 -13 -76 q-14 -34 -38 -60 q-49 -54 -131 -54 l0 0 Z" /><glyph glyph-name="" unicode="&#x125;" d="M327 535 q-89 0 -152 -70 l0 126 l36 0 l85 112 l84 -112 l60 0 l-96 171 l-96 0 l-73 -130 l0 127 l-95 0 l0 -759 l95 0 l0 291 q0 163 136 163 q62 0 90 -39 q27 -39 26 -120 l0 -295 l95 0 l0 304 q-1 112 -52 171 q-51 60 -143 60 l0 0 Z" /><glyph glyph-name="" unicode="&#x127;" d="M327 535 q-89 0 -152 -70 l0 172 l253 0 l0 68 l-253 0 l0 54 l-95 0 l0 -759 l95 0 l0 291 q0 163 136 163 q62 0 90 -39 q27 -39 26 -120 l0 -295 l95 0 l0 304 q-1 112 -52 171 q-51 60 -143 60 l0 0 Z" /><glyph glyph-name="" unicode="&#x12d;" d="M-17 744 q5 -71 39 -104 q34 -32 103 -32 q69 0 103 32 q34 33 39 104 l-53 0 q-5 -68 -89 -68 q-84 0 -89 68 l-53 0 ZM171 525 l-92 0 l0 -525 l92 0 l0 525 Z" /><glyph glyph-name="" unicode="&#x140;" d="M171 759 l-92 0 l0 -759 l92 0 l0 759 ZM325 368 q1 -27 19 -45 q18 -18 45 -19 q27 1 45 19 q18 18 19 45 q-1 28 -18 46 q-18 17 -46 18 q-27 -1 -45 -19 q-18 -18 -19 -45 l0 0 Z" /><glyph glyph-name="" unicode="&#x129;" d="M225 727 q-14 -36 -46 -36 q-2 0 -8 1 q-7 2 -18 4 l-48 14 q-9 4 -29 4 q-36 0 -60 -26 q-25 -25 -34 -74 l43 0 q13 33 44 33 q5 0 11 0 q5 -1 13 -3 l47 -14 q11 -2 19 -4 q8 -1 13 -1 q77 0 96 102 l-43 0 ZM171 525 l-92 0 l0 -525 l92 0 l0 525 Z" /><glyph glyph-name="" unicode="&#x135;" d="M178 762 l-29 0 q-4 1 -7 1 q-4 1 -9 1 q-6 0 -16 -2 l-35 0 l-96 -171 l59 0 l47 61 q18 -15 41 -15 q21 0 38 12 l43 -58 l60 0 l-96 171 ZM85 -54 q0 -82 -63 -83 l0 -85 q83 3 121 54 q38 50 37 152 l0 541 l-95 0 l0 -579 Z" /><glyph glyph-name="" unicode="&#x15d;" d="M234 703 l84 -112 l60 0 l-96 171 l-96 0 l-96 -171 l59 0 l85 112 ZM44 153 q3 -79 51 -122 q49 -43 140 -44 q43 0 78 12 q34 12 59 34 q50 44 50 116 q0 68 -51 110 q-22 17 -54 28 q-33 11 -75 22 q-52 13 -78 29 q-26 16 -26 50 q0 31 25 51 q24 20 69 21 q84 0 89 -86 l87 0 l0 4 q-1 76 -48 118 q-47 41 -132 42 q-39 0 -72 -11 q-33 -12 -56 -32 q-24 -21 -37 -48 q-13 -28 -13 -60 q0 -59 38 -95 q38 -37 117 -59 l54 -15 q5 -2 11 -3 q6 -2 11 -4 q11 -4 18 -8 q17 -9 26 -21 q8 -13 8 -34 q0 -37 -25 -60 q-26 -22 -74 -23 q-93 0 -99 88 l-91 0 Z" /><glyph glyph-name="" unicode="&#x1e85;" d="M277 671 q1 -24 16 -39 q16 -16 40 -16 q24 0 39 16 q15 15 15 39 q0 24 -15 39 q-15 15 -39 16 q-24 -1 -40 -17 q-15 -16 -16 -38 l0 0 ZM455 671 q1 -24 16 -39 q15 -16 39 -16 q24 0 40 16 q15 15 15 39 q-1 24 -16 39 q-15 15 -39 16 q-24 -1 -39 -17 q-15 -16 -16 -38 l0 0 ZM410 381 q5 14 8 26 q3 12 5 23 q2 -12 5 -25 q3 -12 8 -25 l131 -380 l71 0 l196 525 l-94 0 l-116 -338 q-6 -17 -11 -35 q-5 -17 -7 -35 q-9 38 -21 75 l-114 333 l-93 0 l-113 -338 q-9 -31 -18 -70 q-5 23 -10 43 q-5 19 -10 33 l-115 332 l-98 0 l197 -525 l69 0 l130 381 Z" /><glyph glyph-name="" unicode="&#x175;" d="M421 703 l84 -112 l60 0 l-96 171 l-96 0 l-96 -171 l59 0 l85 112 ZM410 381 q5 14 8 26 q3 12 5 23 q2 -12 5 -25 q3 -12 8 -25 l131 -380 l71 0 l196 525 l-94 0 l-116 -338 q-6 -17 -11 -35 q-5 -17 -7 -35 q-9 38 -21 75 l-114 333 l-93 0 l-113 -338 q-9 -31 -18 -70 q-5 23 -10 43 q-5 19 -10 33 l-115 332 l-98 0 l197 -525 l69 0 l130 381 Z" /><glyph glyph-name="" unicode="&#x1e81;" d="M322 762 l139 -171 l59 0 l-100 171 l-98 0 ZM410 381 q5 14 8 26 q3 12 5 23 q2 -12 5 -25 q3 -12 8 -25 l131 -380 l71 0 l196 525 l-94 0 l-116 -338 q-6 -17 -11 -35 q-5 -17 -7 -35 q-9 38 -21 75 l-114 333 l-93 0 l-113 -338 q-9 -31 -18 -70 q-5 23 -10 43 q-5 19 -10 33 l-115 332 l-98 0 l197 -525 l69 0 l130 381 Z" /><glyph glyph-name="" unicode="&#x1e83;" d="M520 762 l-98 0 l-100 -171 l59 0 l139 171 ZM410 381 q5 14 8 26 q3 12 5 23 q2 -12 5 -25 q3 -12 8 -25 l131 -380 l71 0 l196 525 l-94 0 l-116 -338 q-6 -17 -11 -35 q-5 -17 -7 -35 q-9 38 -21 75 l-114 333 l-93 0 l-113 -338 q-9 -31 -18 -70 q-5 23 -10 43 q-5 19 -10 33 l-115 332 l-98 0 l197 -525 l69 0 l130 381 Z" /><glyph glyph-name="" unicode="&#x177;" d="M278 703 l84 -112 l60 0 l-96 171 l-96 0 l-96 -171 l59 0 l85 112 ZM229 -218 l326 743 l-102 0 l-137 -332 l-12 -34 q-2 -7 -5 -14 q-3 -8 -5 -17 l-14 -42 q-25 94 -33 107 l-135 332 l-104 0 l219 -525 l-92 -218 l94 0 Z" /><glyph glyph-name="" unicode="&#x1ef3;" d="M179 762 l139 -171 l59 0 l-100 171 l-98 0 ZM229 -218 l326 743 l-102 0 l-137 -332 l-12 -34 q-2 -7 -5 -14 q-3 -8 -5 -17 l-14 -42 q-25 94 -33 107 l-135 332 l-104 0 l219 -525 l-92 -218 l94 0 Z" /><glyph glyph-name="" unicode="&#x41e;" d="M439 -15 q168 0 277 106 q58 57 88 130 q30 73 30 161 q0 88 -31 161 q-30 74 -88 131 q-108 105 -276 105 q-168 0 -276 -105 q-58 -57 -88 -131 q-31 -73 -31 -161 q0 -88 30 -161 q30 -73 88 -130 q109 -106 277 -106 l0 0 ZM438 75 q-124 0 -204 81 q-45 45 -66 102 q-22 57 -22 124 q3 140 83 223 q81 82 209 84 q127 -2 209 -86 q82 -84 85 -221 q0 -67 -21 -124 q-22 -57 -67 -102 q-80 -81 -206 -81 l0 0 Z" /><glyph glyph-name="" unicode="&#x420;" d="M187 263 l83 0 q60 0 109 19 q50 18 85 51 q35 33 55 79 q19 46 19 100 q0 57 -20 103 q-19 46 -56 79 q-37 33 -90 52 q-54 18 -121 18 l-163 0 l0 -764 l99 0 l0 263 ZM250 674 q186 0 186 -158 q0 -78 -44 -120 q-44 -42 -126 -42 l-79 0 l0 320 l63 0 Z" /><glyph glyph-name="" unicode="&#x421;" d="M707 681 q-53 49 -120 73 q-68 25 -148 25 q-169 0 -277 -105 q-58 -57 -88 -131 q-30 -73 -30 -161 q0 -88 30 -161 q30 -74 88 -131 q108 -105 277 -105 q165 0 275 105 l-66 71 q-77 -86 -209 -86 q-63 0 -116 22 q-54 23 -93 64 q-40 41 -62 97 q-22 55 -22 124 q0 69 23 125 q22 56 62 97 q39 41 92 63 q53 22 116 22 q66 0 116 -21 q49 -21 88 -59 l64 72 Z" /><glyph glyph-name="" unicode="&#x422;" d="M303 674 l195 0 l0 90 l-489 0 l0 -90 l195 0 l0 -674 l99 0 l0 674 Z" /><glyph glyph-name="" unicode="&#x425;" d="M300 268 q9 13 17 26 q8 13 13 28 q5 -15 13 -28 q7 -13 16 -26 l182 -268 l112 0 l-266 390 l253 374 l-111 0 l-170 -248 q-19 -28 -29 -54 q-5 14 -13 27 q-8 13 -17 27 l-169 248 l-111 0 l253 -375 l-267 -389 l113 0 l181 268 Z" /><glyph glyph-name="" unicode="&#x415;" d="M485 90 l-298 0 l0 257 l298 0 l0 88 l-298 0 l0 239 l298 0 l0 90 l-397 0 l0 -764 l397 0 l0 90 Z" /><glyph glyph-name="" unicode="&#x412;" d="M316 0 q54 0 100 17 q45 16 78 46 q33 29 52 68 q18 38 18 83 q0 149 -145 195 q45 25 68 64 q23 38 23 84 q0 115 -101 175 q-33 20 -80 26 q-48 7 -111 6 l-130 0 l0 -764 l228 0 ZM262 678 q150 0 150 -122 q0 -57 -37 -89 q-36 -32 -106 -32 l-82 0 l0 243 l75 0 ZM292 347 q170 0 170 -128 q0 -63 -43 -96 q-43 -33 -131 -33 l-101 0 l0 257 l105 0 Z" /><glyph glyph-name="" unicode="&#x410;" d="M180 177 l359 0 l68 -177 l116 0 l-322 765 l-83 0 l-312 -765 l106 0 l68 177 ZM337 574 l8 24 l15 47 q9 -31 15 -48 l8 -23 l120 -307 l-288 0 l122 307 Z" /><glyph glyph-name="" unicode="&#x41a;" d="M188 292 q0 24 -2 52 q7 -8 12 -14 q5 -6 9 -11 l9 -12 l278 -307 l139 0 l-332 358 l-5 5 q-2 2 -3 4 q-1 2 -2 3 q-4 6 -15 11 l28 27 l321 356 l-129 0 l-280 -322 l-30 -36 q1 14 1 27 q1 12 1 24 l0 307 l-100 0 l0 -764 l100 0 l0 292 Z" /><glyph glyph-name="" unicode="&#x41c;" d="M182 533 q0 38 -14 87 q6 -20 15 -39 q9 -19 20 -41 l294 -549 l286 535 q23 43 42 101 q-13 -70 -13 -108 l-7 -519 l100 0 l0 764 l-101 0 l-290 -545 q-15 -28 -18 -63 q-4 38 -19 63 l-291 545 l-98 0 l0 -764 l99 0 l-5 533 Z" /><glyph glyph-name="" unicode="&#x41d;" d="M187 349 l401 0 l0 -349 l99 0 l0 764 l-99 0 l0 -325 l-401 0 l0 325 l-99 0 l0 -764 l99 0 l0 349 Z" /><glyph glyph-name="" unicode="&#x406;" d="M187 764 l-99 0 l0 -764 l99 0 l0 764 Z" /><glyph glyph-name="" unicode="&#x407;" d="M-5 910 q1 -24 16 -39 q16 -16 40 -16 q24 0 39 16 q15 15 15 39 q0 24 -15 39 q-15 15 -39 16 q-24 -1 -40 -17 q-15 -16 -16 -38 l0 0 ZM173 910 q1 -24 16 -39 q15 -16 39 -16 q24 0 40 16 q15 15 15 39 q-1 24 -16 39 q-15 15 -39 16 q-24 -1 -39 -17 q-15 -16 -16 -38 l0 0 ZM187 764 l-99 0 l0 -764 l99 0 l0 764 Z" /><glyph glyph-name="" unicode="&#x408;" d="M54 -15 q3 -1 8 -1 l8 0 q319 0 319 273 l0 507 l-340 0 l0 -90 l241 0 l0 -378 q0 -30 -1 -55 q-1 -26 -6 -47 q-5 -21 -15 -38 q-10 -17 -28 -31 q-33 -26 -77 -36 q-45 -10 -105 -10 l-20 0 l0 -94 l16 0 Z" /><glyph glyph-name="" unicode="&#x40c;" d="M426 1001 l-98 0 l-100 -171 l59 0 l139 171 ZM188 292 q0 24 -2 52 q7 -8 12 -14 q5 -6 9 -11 l9 -12 l278 -307 l139 0 l-332 358 l-5 5 q-2 2 -3 4 q-1 2 -2 3 q-4 6 -15 11 l28 27 l321 356 l-129 0 l-280 -322 l-30 -36 q1 14 1 27 q1 12 1 24 l0 307 l-100 0 l0 -764 l100 0 l0 292 Z" /><glyph glyph-name="" unicode="&#x443;" d="M229 -218 l326 743 l-102 0 l-137 -332 l-12 -34 q-2 -7 -5 -14 q-3 -8 -5 -17 l-14 -42 q-25 94 -33 107 l-135 332 l-104 0 l219 -525 l-92 -218 l94 0 Z" /><glyph glyph-name="" unicode="&#x440;" d="M170 86 q66 -93 190 -93 q55 0 105 21 q49 21 88 60 q73 76 73 190 q0 61 -19 111 q-19 50 -54 86 q-35 35 -84 55 q-49 19 -109 19 q-125 0 -197 -96 l0 86 l-85 0 l0 -743 l92 0 l0 304 ZM347 73 q-82 0 -131 54 q-24 26 -37 60 q-14 34 -14 76 q0 42 14 76 q13 35 37 61 q50 53 131 53 q40 0 73 -14 q34 -14 58 -39 q24 -25 38 -60 q13 -35 13 -77 q0 -42 -13 -77 q-14 -35 -38 -60 q-24 -25 -58 -39 q-33 -14 -73 -14 l0 0 Z" /><glyph glyph-name="" unicode="&#x43e;" d="M309 538 q-57 0 -106 -20 q-49 -21 -87 -59 q-77 -77 -77 -197 q0 -59 19 -108 q20 -50 58 -88 q38 -38 87 -59 q49 -20 106 -20 q57 0 106 20 q49 21 87 59 q38 38 58 88 q19 49 19 108 q0 60 -20 109 q-19 50 -56 88 q-38 39 -88 59 q-49 20 -106 20 l0 0 ZM309 69 q-37 0 -68 14 q-32 15 -55 41 q-23 26 -36 61 q-13 35 -13 77 q0 43 13 78 q13 36 36 62 q48 54 123 54 q75 0 123 -53 q23 -26 36 -62 q13 -36 13 -79 q0 -43 -13 -78 q-13 -35 -36 -61 q-48 -54 -123 -54 l0 0 Z" /><glyph glyph-name="" unicode="&#x435;" d="M585 239 q0 69 -20 124 q-20 55 -56 94 q-37 39 -87 60 q-51 21 -112 21 q-60 0 -109 -20 q-50 -20 -85 -56 q-36 -37 -56 -88 q-20 -52 -20 -115 q0 -54 18 -102 q18 -47 52 -84 q39 -42 92 -64 q53 -22 116 -22 q75 0 135 27 q59 27 110 87 l-67 54 q-73 -85 -175 -85 q-80 0 -131 45 q-25 21 -40 51 q-15 30 -17 66 l452 0 l0 7 ZM133 306 q4 33 19 60 q15 28 39 48 q48 42 118 42 q69 0 116 -41 q47 -39 57 -109 l-349 0 Z" /><glyph glyph-name="" unicode="&#x451;" d="M168 671 q1 -24 16 -39 q16 -16 40 -16 q24 0 39 16 q15 15 15 39 q0 24 -15 39 q-15 15 -39 16 q-24 -1 -40 -17 q-15 -16 -16 -38 l0 0 ZM346 671 q1 -24 16 -39 q15 -16 39 -16 q24 0 40 16 q15 15 15 39 q-1 24 -16 39 q-15 15 -39 16 q-24 -1 -39 -17 q-15 -16 -16 -38 l0 0 ZM585 239 q0 69 -20 124 q-20 55 -56 94 q-37 39 -87 60 q-51 21 -112 21 q-60 0 -109 -20 q-50 -20 -85 -56 q-36 -37 -56 -88 q-20 -52 -20 -115 q0 -54 18 -102 q18 -47 52 -84 q39 -42 92 -64 q53 -22 116 -22 q75 0 135 27 q59 27 110 87 l-67 54 q-73 -85 -175 -85 q-80 0 -131 45 q-25 21 -40 51 q-15 30 -17 66 l452 0 l0 7 ZM133 306 q4 33 19 60 q15 28 39 48 q48 42 118 42 q69 0 116 -41 q47 -39 57 -109 l-349 0 Z" /><glyph glyph-name="" unicode="&#x430;" d="M501 525 l0 -86 q-72 96 -197 96 q-60 0 -109 -19 q-49 -20 -84 -55 q-35 -36 -54 -86 q-19 -50 -19 -111 q0 -56 19 -104 q18 -48 55 -86 q39 -39 88 -60 q49 -21 104 -21 q124 0 190 93 l0 -86 l93 0 l0 525 l-86 0 ZM317 73 q-40 0 -73 14 q-34 14 -58 39 q-24 25 -37 60 q-14 35 -14 77 q0 42 14 77 q13 35 37 60 q24 25 58 39 q33 14 73 14 q40 0 73 -13 q34 -14 58 -40 q24 -26 38 -61 q13 -34 13 -76 q0 -42 -13 -76 q-14 -34 -38 -60 q-49 -54 -131 -54 l0 0 Z" /><glyph glyph-name="" unicode="&#x441;" d="M493 471 q-73 67 -183 67 q-60 0 -109 -21 q-50 -20 -86 -57 q-36 -37 -56 -87 q-20 -51 -20 -111 q0 -120 78 -199 q36 -37 85 -56 q48 -20 108 -20 q56 0 102 17 q45 17 86 55 l-60 69 q-45 -58 -128 -58 q-76 0 -124 54 q-23 26 -36 61 q-13 34 -13 77 q0 43 13 78 q13 36 36 62 q48 54 124 54 q38 0 70 -13 q31 -14 54 -40 l59 68 Z" /><glyph glyph-name="" unicode="&#x445;" d="M278 203 l152 -203 l121 0 l-224 268 l214 257 l-123 0 l-143 -193 l-146 193 l-117 0 l213 -255 l-223 -270 l121 0 l155 203 Z" /><glyph glyph-name="" unicode="&#x455;" d="M44 153 q3 -79 51 -122 q49 -43 140 -44 q43 0 78 12 q34 12 59 34 q50 44 50 116 q0 68 -51 110 q-22 17 -54 28 q-33 11 -75 22 q-52 13 -78 29 q-26 16 -26 50 q0 31 25 51 q24 20 69 21 q84 0 89 -86 l87 0 l0 4 q-1 76 -48 118 q-47 41 -132 42 q-39 0 -72 -11 q-33 -12 -56 -32 q-24 -21 -37 -48 q-13 -28 -13 -60 q0 -59 38 -95 q38 -37 117 -59 l54 -15 q5 -2 11 -3 q6 -2 11 -4 q11 -4 18 -8 q17 -9 26 -21 q8 -13 8 -34 q0 -37 -25 -60 q-26 -22 -74 -23 q-93 0 -99 88 l-91 0 Z" /><glyph glyph-name="" unicode="&#x456;" d="M61 700 q1 -27 19 -45 q18 -17 45 -18 q27 1 45 18 q18 18 19 45 q-1 28 -18 46 q-18 17 -46 18 q-27 -1 -45 -19 q-18 -18 -19 -45 l0 0 ZM171 525 l-95 0 l0 -525 l95 0 l0 525 Z" /><glyph glyph-name="" unicode="&#x457;" d="M214 726 q-15 0 -28 -8 q-5 21 -21 33 q-16 13 -40 13 q-21 0 -38 -12 q-17 -12 -23 -33 q-10 7 -27 7 q-24 -1 -40 -17 q-15 -16 -16 -38 q1 -24 16 -39 q16 -16 40 -16 q18 0 31 9 q14 9 19 24 q8 -5 18 -9 q9 -3 20 -3 q11 0 21 3 q9 4 17 9 q6 -15 20 -24 q13 -9 31 -9 q24 0 40 16 q15 15 15 39 q-1 24 -16 39 q-15 15 -39 16 l0 0 ZM76 0 l95 0 l0 525 l-95 0 l0 -525 Z" /><glyph glyph-name="" unicode="&#x458;" d="M70 700 q1 -27 18 -45 q18 -17 45 -18 q27 1 45 18 q18 18 19 45 q-1 28 -18 46 q-18 17 -46 18 q-27 -1 -45 -19 q-17 -18 -18 -45 l0 0 ZM85 -54 q0 -82 -63 -83 l0 -85 q83 3 121 54 q38 50 37 152 l0 541 l-95 0 l0 -579 Z" /><glyph glyph-name="" unicode="&#x45e;" d="M136 744 q5 -71 39 -104 q34 -32 103 -32 q69 0 103 32 q34 33 39 104 l-53 0 q-5 -68 -89 -68 q-84 0 -89 68 l-53 0 ZM229 -218 l326 743 l-102 0 l-137 -332 l-12 -34 q-2 -7 -5 -14 q-3 -8 -5 -17 l-14 -42 q-25 94 -33 107 l-135 332 l-104 0 l219 -525 l-92 -218 l94 0 Z" /><glyph glyph-name="" unicode="&#x2215;" d="M-87 -9 l420 754 l-79 0 l-421 -754 l80 0 Z" /><glyph glyph-name="" unicode="&#x37e;" d="M73 475 q1 -27 18 -45 q18 -18 45 -19 q27 1 45 19 q18 18 19 45 q-1 28 -18 45 q-18 17 -46 18 q-27 -1 -45 -18 q-17 -18 -18 -45 l0 0 ZM80 -168 l126 254 l-92 43 l-94 -267 l60 -30 Z" /><glyph glyph-name="" unicode="&#x384;" d="M378 762 l-98 0 l-100 -171 l59 0 l139 171 Z" /><glyph glyph-name="" unicode="&#x387;" d="M75 368 q1 -27 19 -45 q18 -18 45 -19 q27 1 45 19 q18 18 19 45 q-1 28 -18 46 q-18 17 -46 18 q-27 -1 -45 -19 q-18 -18 -19 -45 l0 0 Z" /><glyph glyph-name="" unicode="&#x2113;" d="M248 248 q14 13 28 27 q14 14 27 29 q37 45 63 96 q26 52 35 117 q-1 7 -1 13 q-1 7 0 13 q1 11 -2 24 q-5 24 -15 47 q-11 23 -28 41 q-18 17 -41 28 q-23 10 -52 10 q-32 -1 -62 -13 q-29 -12 -53 -38 q-24 -26 -38 -66 q-15 -40 -15 -97 l0 -260 q-11 -8 -22 -15 q-11 -7 -21 -15 q-10 -8 -20 -15 q-10 -7 -20 -14 l15 -30 q3 -8 7 -14 q4 -7 9 -12 q7 4 14 7 q6 4 13 9 q11 8 26 15 q6 -34 18 -61 q12 -27 32 -46 q20 -19 49 -29 q28 -10 70 -10 q55 0 100 25 q45 25 82 75 q-13 15 -26 28 q-13 12 -27 18 q-22 -25 -49 -41 q-27 -16 -62 -19 q-26 0 -43 10 q-17 10 -28 27 q-11 17 -15 39 q-4 21 -4 45 l56 52 ZM244 621 q14 0 25 -3 q11 -3 19 -8 q14 -11 20 -27 q6 -16 7 -34 q0 -18 1 -32 q0 -32 -11 -61 q-10 -29 -28 -58 q-18 -29 -40 -56 q-22 -26 -45 -50 l0 224 q0 13 3 29 q2 16 8 31 q6 15 16 27 q10 12 25 18 l0 0 Z" /><glyph glyph-name="" unicode="&#x146;" d="M172 291 q0 163 139 163 q63 0 91 -39 q28 -39 27 -120 l0 -295 l93 0 l0 304 q-1 112 -52 171 q-51 60 -143 60 q-86 0 -155 -70 l0 60 l-92 0 l0 -525 l92 0 l0 291 ZM260 -306 l121 243 l-97 40 l-92 -257 l68 -26 Z" /><glyph glyph-name="" unicode="&#x13c;" d="M171 759 l-92 0 l0 -759 l92 0 l0 759 ZM93 -307 l121 243 l-97 40 l-92 -257 l68 -26 Z" /><glyph glyph-name="" unicode="&#x157;" d="M172 294 q0 150 119 150 q19 0 46 -6 l0 94 q-10 2 -16 2 l-16 0 q-90 0 -137 -80 l0 71 l-88 0 l0 -525 l92 0 l0 294 ZM96 -309 l121 243 l-97 40 l-92 -257 l68 -26 Z" /><glyph glyph-name="" unicode="&#x16d;" d="M147 744 q5 -71 39 -104 q34 -32 103 -32 q69 0 103 32 q34 33 39 104 l-53 0 q-5 -68 -89 -68 q-84 0 -89 68 l-53 0 ZM70 228 q1 -115 58 -178 q57 -62 161 -63 q104 1 161 63 q58 63 59 178 l0 297 l-93 0 l0 -291 q0 -81 -33 -123 q-34 -42 -94 -42 q-60 0 -93 42 q-34 42 -34 123 l0 291 l-92 0 l0 -297 Z" /><glyph glyph-name="" unicode="&#x219;" d="M44 153 q3 -79 51 -122 q49 -43 140 -44 q43 0 78 12 q34 12 59 34 q50 44 50 116 q0 68 -51 110 q-22 17 -54 28 q-33 11 -75 22 q-52 13 -78 29 q-26 16 -26 50 q0 31 25 51 q24 20 69 21 q84 0 89 -86 l87 0 l0 4 q-1 76 -48 118 q-47 41 -132 42 q-39 0 -72 -11 q-33 -12 -56 -32 q-24 -21 -37 -48 q-13 -28 -13 -60 q0 -59 38 -95 q38 -37 117 -59 l54 -15 q5 -2 11 -3 q6 -2 11 -4 q11 -4 18 -8 q17 -9 26 -21 q8 -13 8 -34 q0 -37 -25 -60 q-26 -22 -74 -23 q-93 0 -99 88 l-91 0 ZM184 -322 l121 243 l-97 40 l-92 -257 l68 -26 Z" /><glyph glyph-name="" unicode="&#x15f;" d="M371 259 q-22 17 -54 28 q-33 11 -75 22 q-52 13 -78 29 q-26 16 -26 50 q0 31 25 51 q24 20 69 21 q84 0 89 -86 l87 0 l0 4 q-1 76 -48 118 q-47 41 -132 42 q-39 0 -72 -11 q-33 -12 -56 -32 q-24 -21 -37 -48 q-13 -28 -13 -60 q0 -59 38 -95 q38 -37 117 -59 l54 -15 q5 -2 11 -3 q6 -2 11 -4 q11 -4 18 -8 q17 -9 26 -21 q8 -13 8 -34 q0 -37 -25 -60 q-26 -22 -74 -23 q-93 0 -99 88 l-91 0 q2 -71 41 -113 q39 -42 113 -51 l0 -86 q3 1 8 1 l6 0 l12 0 q65 0 65 -42 q0 -40 -58 -40 q-16 0 -46 4 q-30 4 -75 15 l0 -49 q39 -11 71 -17 q32 -5 55 -5 q60 0 92 24 q31 23 31 68 q0 88 -109 88 l-14 0 l0 37 q43 0 77 12 q34 12 59 34 q50 44 50 116 q0 68 -51 110 l0 0 Z" /><glyph glyph-name="" unicode="&#x14f;" d="M167 744 q5 -71 39 -104 q34 -32 103 -32 q69 0 103 32 q34 33 39 104 l-53 0 q-5 -68 -89 -68 q-84 0 -89 68 l-53 0 ZM309 538 q-57 0 -106 -20 q-49 -21 -87 -59 q-77 -77 -77 -197 q0 -59 19 -108 q20 -50 58 -88 q38 -38 87 -59 q49 -20 106 -20 q57 0 106 20 q49 21 87 59 q38 38 58 88 q19 49 19 108 q0 60 -20 109 q-19 50 -56 88 q-38 39 -88 59 q-49 20 -106 20 l0 0 ZM309 69 q-37 0 -68 14 q-32 15 -55 41 q-23 26 -36 61 q-13 35 -13 77 q0 43 13 78 q13 36 36 62 q48 54 123 54 q75 0 123 -53 q23 -26 36 -62 q13 -36 13 -79 q0 -43 -13 -78 q-13 -35 -36 -61 q-48 -54 -123 -54 l0 0 Z" /><glyph glyph-name="" unicode="&#x133;" d="M61 700 q1 -27 19 -45 q18 -17 45 -18 q27 1 45 18 q18 18 19 45 q-1 28 -18 46 q-18 17 -46 18 q-27 -1 -45 -19 q-18 -18 -19 -45 l0 0 ZM320 700 q1 -27 18 -45 q18 -17 45 -18 q27 1 45 18 q18 18 19 45 q-1 28 -18 46 q-18 17 -46 18 q-27 -1 -45 -19 q-17 -18 -18 -45 l0 0 ZM171 525 l-95 0 l0 -525 l95 0 l0 525 ZM335 -54 q0 -82 -63 -83 l0 -85 q83 3 121 54 q38 50 37 152 l0 541 l-95 0 l0 -579 Z" /><glyph glyph-name="" unicode="&#x2116;" d="M987 771 q-43 0 -80 -14 q-37 -14 -64 -40 q-28 -26 -43 -62 q-16 -36 -16 -78 q2 -84 60 -137 q57 -53 143 -55 q42 0 79 14 q37 15 65 41 q27 26 43 61 q15 34 15 76 q0 42 -15 77 q-16 36 -43 62 q-27 26 -64 41 q-37 14 -80 14 l0 0 ZM167 503 q0 66 -16 137 q9 -29 22 -50 q13 -21 26 -39 l387 -552 l81 0 l0 764 l-97 0 l0 -509 q0 -24 5 -54 q4 -31 14 -67 q-26 60 -55 102 l-371 528 l-93 0 l0 -764 l97 0 l0 504 ZM987 442 q-57 1 -93 38 q-35 36 -36 97 q1 61 36 98 q36 37 93 38 q56 0 92 -38 q17 -18 27 -43 q10 -25 10 -55 q0 -30 -10 -55 q-10 -25 -27 -42 q-36 -38 -92 -38 l0 0 ZM1171 291 l-364 0 l0 -65 l364 0 l0 65 Z" /><glyph glyph-name="" unicode="&#x418;" d="M221 236 q-29 -42 -55 -102 q10 36 14 67 q5 30 5 54 l0 509 l-97 0 l0 -764 l81 0 l387 552 q13 18 26 39 q13 21 22 50 q-16 -71 -16 -137 l0 -504 l97 0 l0 764 l-93 0 l-371 -528 Z" /><glyph glyph-name="" unicode="&#x419;" d="M244 975 q5 -71 39 -104 q34 -32 103 -32 q69 0 103 32 q34 33 39 104 l-53 0 q-5 -68 -89 -68 q-84 0 -89 68 l-53 0 ZM221 236 q-29 -42 -55 -102 q10 36 14 67 q5 30 5 54 l0 509 l-97 0 l0 -764 l81 0 l387 552 q13 18 26 39 q13 21 22 50 q-16 -71 -16 -137 l0 -504 l97 0 l0 764 l-93 0 l-371 -528 Z" /><glyph glyph-name="" unicode="&#x401;" d="M140 910 q1 -24 16 -39 q16 -16 40 -16 q24 0 39 16 q15 15 15 39 q0 24 -15 39 q-15 15 -39 16 q-24 -1 -40 -17 q-15 -16 -16 -38 l0 0 ZM318 910 q1 -24 16 -39 q15 -16 39 -16 q24 0 40 16 q15 15 15 39 q-1 24 -16 39 q-15 15 -39 16 q-24 -1 -39 -17 q-15 -16 -16 -38 l0 0 ZM485 90 l-298 0 l0 257 l298 0 l0 88 l-298 0 l0 239 l298 0 l0 90 l-397 0 l0 -764 l397 0 l0 90 Z" /><glyph glyph-name="" unicode="&#x41f;" d="M584 764 q-22 -1 -46 -1 l-52 0 l-114 0 q-14 -1 -29 -1 q-15 0 -29 0 l-57 0 l-178 0 l2 -777 l100 0 l3 688 l382 0 l0 -688 l100 0 l-1 779 l-81 0 Z" /><glyph glyph-name="" unicode="&#x423;" d="M645 761 l-112 0 l-189 -418 l-9 -19 l-8 -21 q-4 10 -6 22 q-1 11 -6 18 l-204 418 l-116 0 l275 -552 l-96 -212 l102 0 l369 764 Z" /><glyph glyph-name="" unicode="&#x424;" d="M477 98 l61 2 q29 2 61 6 q31 5 60 14 q30 9 57 29 q42 31 68 65 q26 34 38 68 q12 33 16 65 q4 32 4 60 q0 70 -28 125 q-28 54 -79 91 q-51 36 -117 54 q-66 18 -142 15 l0 78 q-24 0 -48 1 q-12 0 -24 -1 q-13 0 -27 -1 l0 -75 q-70 1 -134 -17 q-64 -17 -116 -53 q-52 -36 -83 -89 q-31 -54 -32 -126 q-1 -34 4 -69 q5 -36 22 -71 q24 -54 58 -86 q35 -33 79 -51 q44 -18 95 -25 q50 -7 108 -7 l0 -48 q-1 -24 0 -51 l99 0 l0 97 ZM477 603 q36 0 73 -5 q37 -5 72 -18 q36 -13 63 -37 q27 -25 42 -65 q9 -24 11 -48 q1 -24 1 -48 q-1 -62 -26 -101 q-25 -38 -65 -59 q-40 -21 -85 -28 q-45 -8 -86 -5 l0 414 ZM377 190 q-63 -8 -112 5 q-48 13 -82 43 q-34 30 -51 71 q-18 41 -18 90 q0 54 20 92 q19 38 55 63 q35 25 83 36 q48 12 105 12 l0 -412 Z" /><glyph glyph-name="" unicode="&#x426;" d="M179 91 l0 673 l-96 0 l0 -764 l592 0 l0 -145 q0 -2 1 -2 l0 -1 l92 0 l0 239 l-89 0 l0 673 l-99 0 l0 -673 l-401 0 Z" /><glyph glyph-name="" unicode="&#x427;" d="M414 440 q-16 -11 -37 -20 q-22 -8 -46 -15 q-50 -14 -89 -14 q-19 0 -40 7 q-20 7 -38 20 q-18 13 -29 32 q-12 19 -12 42 l0 271 l-102 0 l0 -20 q0 -9 1 -12 l0 -11 l0 -21 q-1 -8 -1 -18 q0 -9 0 -21 q0 -25 -1 -67 q-1 -44 0 -72 q0 -28 2 -46 q2 -18 5 -29 q3 -11 7 -22 q12 -30 32 -53 q19 -23 44 -38 q25 -16 54 -23 q28 -8 62 -8 q20 0 45 3 q25 3 51 10 q26 6 50 15 q24 9 42 21 l0 -352 l97 0 l0 764 l-97 0 l0 -323 Z" /><glyph glyph-name="" unicode="&#x428;" d="M397 88 l-273 0 l0 674 l-97 0 l0 -764 l845 0 l-2 764 l-96 0 l0 -674 l-274 0 l0 674 l-103 0 l0 -674 Z" /><glyph glyph-name="" unicode="&#x429;" d="M578 766 l-102 0 l0 -673 l-274 0 l0 673 l-96 0 l0 -764 l839 0 l0 -145 l1 -2 l1 -1 l92 0 l0 239 l-90 0 l0 673 l-98 0 l0 -673 l-273 0 l0 673 Z" /><glyph glyph-name="" unicode="&#x42a;" d="M212 1 q17 -1 34 -1 q16 0 33 0 q42 0 77 2 q34 2 64 9 q30 7 57 20 q26 13 50 35 q22 20 34 40 q13 20 19 42 q6 21 8 44 q2 23 4 49 q0 6 -2 16 q-3 7 -3 16 l0 7 q0 3 -3 12 q-4 9 -9 20 q-5 11 -11 22 q-6 10 -11 17 q-30 42 -82 65 q-53 23 -113 23 l-19 0 q-5 -1 -10 -1 q-5 0 -10 0 l-39 0 q-10 -1 -19 0 q-9 0 -19 2 l0 322 q-17 1 -41 1 l-54 0 l-45 0 q-22 0 -40 0 q-19 -1 -32 -1 q-7 -1 -11 -1 q-4 0 -6 0 l0 -88 l132 0 l0 -672 l67 0 ZM243 350 q12 0 25 1 l24 0 q24 0 51 -2 q27 -2 54 -8 q32 -8 51 -23 q18 -15 27 -35 q9 -20 12 -41 q2 -20 2 -39 q-1 -29 -15 -50 q-15 -21 -37 -35 q-22 -15 -48 -22 q-26 -7 -48 -7 q-24 0 -48 1 l-50 0 l0 260 Z" /><glyph glyph-name="" unicode="&#x413;" d="M187 671 l263 0 l0 93 l-362 0 l0 -764 l99 0 l0 671 Z" /><glyph glyph-name="" unicode="&#x40e;" d="M164 983 q5 -71 39 -104 q34 -32 103 -32 q69 0 103 32 q34 33 39 104 l-53 0 q-5 -68 -89 -68 q-84 0 -89 68 l-53 0 ZM645 761 l-112 0 l-189 -418 l-9 -19 l-8 -21 q-4 10 -6 22 q-1 11 -6 18 l-204 418 l-116 0 l275 -552 l-96 -212 l102 0 l369 764 Z" /><glyph glyph-name="" unicode="&#x403;" d="M340 1001 l-98 0 l-100 -171 l59 0 l139 171 ZM187 671 l263 0 l0 93 l-362 0 l0 -764 l99 0 l0 671 Z" /><glyph glyph-name="" unicode="&#x404;" d="M707 681 q-53 49 -120 73 q-68 25 -148 25 q-169 0 -277 -105 q-58 -57 -88 -131 q-30 -73 -30 -161 q0 -88 30 -161 q30 -74 88 -131 q108 -105 277 -105 q165 0 275 105 l-66 71 q-77 -86 -209 -86 q-63 0 -113 21 q-51 20 -89 56 q-38 36 -61 85 q-22 48 -28 103 l344 0 l0 84 l-344 0 q6 54 29 103 q23 48 61 84 q38 36 88 57 q50 21 113 21 q66 0 116 -21 q49 -21 88 -59 l64 72 Z" /><glyph glyph-name="" unicode="&#x405;" d="M47 215 q10 -110 76 -169 q65 -60 178 -61 q55 0 100 16 q46 17 79 46 q33 29 52 68 q18 38 18 83 q0 45 -14 82 q-14 35 -43 62 q-28 27 -71 48 q-44 21 -89 37 q-45 16 -78 27 q-17 5 -35 13 q-17 8 -32 22 q-15 14 -24 34 q-10 19 -10 49 q1 56 37 89 q35 34 99 35 q130 0 148 -147 l100 0 q-6 110 -71 169 q-65 60 -178 61 q-54 0 -96 -15 q-43 -15 -73 -42 q-30 -27 -46 -64 q-16 -38 -16 -86 q0 -100 65 -153 q40 -32 82 -48 q42 -17 84 -30 q39 -12 69 -25 q30 -13 50 -30 q20 -17 31 -39 q10 -22 10 -54 q0 -53 -38 -85 q-38 -33 -108 -34 q-73 0 -113 38 q-41 38 -42 107 l-101 -4 Z" /><glyph glyph-name="" unicode="&#x42f;" d="M377 764 q-143 -1 -216 -62 q-73 -60 -73 -170 q0 -51 17 -93 q16 -43 47 -75 q30 -32 73 -50 q42 -17 93 -17 l6 0 l-269 -297 l125 0 l272 311 l0 -311 l99 0 l0 764 l-174 0 ZM380 372 q-94 0 -142 41 q-48 41 -48 116 q0 70 48 107 q48 38 147 38 l67 0 l0 -302 l-72 0 Z" /><glyph glyph-name="" unicode="&#x41b;" d="M337 574 l8 24 l15 47 q9 -31 15 -48 l8 -23 l224 -574 l116 0 l-322 765 l-83 0 l-312 -765 l106 0 l225 574 Z" /><glyph glyph-name="" unicode="&#x416;" d="M887 760 l-118 0 l-260 -356 l0 356 l-96 0 l0 -354 l-259 355 l-122 0 l295 -383 l-299 -379 l5 -4 l123 0 l255 343 l0 -342 l98 0 l2 341 l256 -341 l129 0 l-300 384 l286 371 l5 9 Z" /><glyph glyph-name="" unicode="&#x411;" d="M187 680 l346 0 l0 84 l-444 0 l0 -765 l80 0 q20 -1 39 -1 q19 0 39 0 l41 0 q21 -1 42 0 q21 1 41 4 q19 3 35 10 q79 34 118 85 q39 50 39 133 q-1 58 -25 98 q-25 40 -65 65 q-41 25 -88 36 q-48 11 -94 11 l-104 0 l0 240 ZM304 88 q-14 0 -29 0 q-15 0 -29 1 q-29 2 -59 0 l0 261 q38 0 74 -1 q37 0 76 -4 q24 -2 46 -11 q23 -9 40 -23 q17 -15 28 -34 q10 -20 10 -43 q0 -38 -12 -66 q-12 -27 -33 -45 q-21 -18 -50 -26 q-28 -9 -62 -9 l0 0 Z" /><glyph glyph-name="" unicode="&#x42e;" d="M271 348 q12 -81 43 -148 q30 -67 76 -115 q45 -48 103 -74 q58 -25 127 -25 q105 2 180 36 q74 35 122 93 q48 58 71 128 q23 70 23 143 q-1 85 -30 156 q-29 70 -81 122 q-51 52 -118 82 q-66 31 -142 34 q-85 -3 -150 -30 q-66 -28 -112 -76 q-46 -48 -72 -108 q-27 -61 -34 -127 l-91 0 l0 323 l-96 0 l0 -764 l97 0 l0 350 l84 0 ZM913 383 q0 -58 -17 -113 q-17 -56 -53 -99 q-36 -43 -91 -69 q-55 -26 -133 -27 q-51 1 -95 29 q-45 27 -78 73 q-33 46 -52 98 q-19 52 -19 102 q0 53 19 108 q19 54 54 101 q35 47 84 75 q48 29 109 30 q60 -1 110 -26 q50 -25 86 -68 q36 -43 56 -98 q20 -55 20 -116 l0 0 Z" /><glyph glyph-name="" unicode="&#x42d;" d="M115 609 q39 38 89 59 q49 21 115 21 q63 0 113 -21 q51 -21 89 -57 q38 -36 61 -84 q22 -49 28 -103 l-337 0 l0 -84 l337 0 q-6 -55 -28 -103 q-22 -49 -60 -85 q-38 -36 -89 -56 q-51 -21 -114 -21 q-132 0 -209 86 l-66 -71 q109 -105 275 -105 q169 0 277 105 q58 57 88 131 q30 73 30 161 q0 88 -30 161 q-30 74 -88 131 q-108 105 -277 105 q-80 0 -147 -25 q-68 -24 -121 -73 l64 -72 Z" /><glyph glyph-name="" unicode="&#x42c;" d="M251 0 q67 0 121 19 q53 18 90 51 q37 33 56 79 q20 46 20 103 q0 54 -19 100 q-20 46 -55 79 q-35 33 -85 52 q-49 18 -109 18 l-83 0 l0 263 l-99 0 l0 -764 l163 0 ZM266 410 q82 0 126 -42 q44 -42 44 -120 q0 -158 -186 -158 l-63 0 l0 320 l79 0 Z" /><glyph glyph-name="" unicode="&#x42b;" d="M251 0 q67 0 121 19 q53 18 90 51 q37 33 56 79 q20 46 20 103 q0 54 -19 100 q-20 46 -55 79 q-35 33 -85 52 q-49 18 -109 18 l-83 0 l0 263 l-99 0 l0 -764 l163 0 ZM731 761 l-92 0 l0 -759 l92 0 l0 759 ZM266 410 q82 0 126 -42 q44 -42 44 -120 q0 -158 -186 -158 l-63 0 l0 320 l79 0 Z" /><glyph glyph-name="" unicode="&#x490;" d="M186 -2 l0 674 l280 0 l0 238 l-98 0 l0 -148 l-280 0 l0 -764 l98 0 Z" /><glyph glyph-name="" unicode="&#x491;" d="M337 641 l-87 0 l0 -106 l-170 0 l0 -535 l92 0 l0 444 l166 0 l-1 91 l0 106 Z" /><glyph glyph-name="" unicode="&#x44e;" d="M37 -2 q24 1 47 1 q23 -1 48 0 l0 231 l60 0 q-1 -3 -1 -10 q0 -15 4 -28 q5 -13 10 -27 q26 -79 89 -129 q30 -24 67 -38 q37 -14 79 -14 q18 0 37 2 q18 1 26 4 q14 7 30 11 q18 5 30 13 q22 14 45 33 q23 19 41 44 q31 45 42 90 q10 44 9 92 q0 11 -1 22 q-1 10 -3 18 l-8 40 q-15 49 -40 84 q-25 36 -57 59 q-32 23 -70 34 q-38 11 -78 11 q-58 0 -101 -19 q-43 -18 -73 -51 q-31 -33 -50 -74 q-19 -42 -29 -88 l-59 0 l0 218 l-94 0 l0 -529 ZM600 266 q0 -37 -9 -72 q-9 -36 -29 -64 q-20 -28 -50 -45 q-30 -18 -72 -18 q-15 0 -32 6 q-17 6 -32 15 q-26 13 -43 33 q-17 20 -27 44 q-10 23 -14 48 q-5 25 -5 48 q0 17 2 34 q2 16 6 33 q3 13 14 35 q10 21 28 43 q17 22 42 37 q25 14 57 15 q51 0 83 -18 q31 -18 49 -48 q17 -30 24 -63 q6 -33 8 -63 l0 0 Z" /><glyph glyph-name="" unicode="&#x44d;" d="M101 401 q23 26 55 40 q31 13 69 13 q68 -1 112 -39 q45 -39 57 -109 l-222 0 l1 -76 l224 -2 q-7 -70 -55 -114 q-23 -22 -52 -34 q-30 -12 -65 -12 q-83 0 -128 58 l-60 -69 q41 -38 87 -55 q45 -17 101 -17 q60 0 109 20 q48 19 84 56 q78 79 78 199 q0 60 -20 111 q-20 50 -56 87 q-36 37 -85 57 q-50 21 -110 21 q-109 0 -183 -67 l59 -68 Z" /><glyph glyph-name="" unicode="&#x44f;" d="M423 533 q-13 1 -25 1 l-23 0 l-163 0 q-15 1 -42 -4 q-28 -4 -58 -21 q-30 -17 -51 -54 q-21 -37 -22 -102 q0 -31 9 -58 q9 -28 29 -49 q20 -21 52 -35 q31 -13 76 -17 l-179 -194 l119 0 l186 214 l0 -215 l92 0 l0 534 ZM331 377 q-1 -10 -1 -18 q0 -8 0 -16 l0 -28 l0 -11 q0 -7 1 -10 l0 -16 q0 -4 -2 -5 q-3 -2 -8 -3 q-13 -1 -32 -6 l-33 0 q-66 1 -97 28 q-31 27 -31 71 q0 49 33 74 q33 25 98 26 l72 1 l0 -87 Z" /><glyph glyph-name="" unicode="&#x433;" d="M80 535 l0 -535 l92 0 l0 444 l166 0 l-1 91 l-257 0 Z" /><glyph glyph-name="" unicode="&#x453;" d="M277 762 l-98 0 l-100 -171 l59 0 l139 171 ZM80 535 l0 -535 l92 0 l0 444 l166 0 l-1 91 l-257 0 Z" /><glyph glyph-name="" unicode="&#x454;" d="M491 469 q-73 67 -183 67 q-60 0 -109 -21 q-50 -20 -86 -57 q-36 -37 -56 -87 q-20 -51 -20 -111 q0 -120 78 -199 q36 -37 85 -56 q48 -20 108 -20 q56 0 102 17 q45 17 86 55 l-60 69 q-45 -58 -128 -58 q-35 0 -64 12 q-30 12 -53 34 q-48 44 -55 114 l224 2 l1 76 l-222 0 q12 70 57 109 q44 38 112 39 q38 0 70 -13 q31 -14 54 -40 l59 68 Z" /><glyph glyph-name="" unicode="&#x436;" d="M507 408 q-46 -60 -96 -122 l0 241 l-90 0 l0 -242 q-23 29 -46 60 l-48 63 q-24 32 -49 62 q-25 30 -52 57 l-103 0 q3 0 -3 -2 l215 -261 q-29 -32 -56 -64 q-28 -32 -54 -66 q-52 -67 -114 -132 l116 0 q26 28 50 57 q24 29 47 58 q48 60 97 118 l0 -234 l91 0 l0 231 q24 -29 48 -58 q24 -29 47 -58 q23 -29 47 -57 q24 -29 48 -58 q30 0 59 1 l58 0 q-55 66 -114 132 q-29 32 -56 66 q-27 33 -53 68 q53 59 106 122 q52 63 109 137 l-109 0 l-95 -119 Z" /><glyph glyph-name="" unicode="&#x438;" d="M184 184 q-11 -15 -20 -32 q-9 -18 -17 -38 l6 21 l2 8 l2 7 q3 13 3 28 l0 349 l-87 0 l0 -524 l76 0 l245 358 q7 14 17 27 q8 14 15 34 q-2 -13 -4 -22 q-2 -9 -4 -16 q-3 -13 -3 -36 l0 -345 l90 0 l0 524 l-87 0 l-234 -343 Z" /><glyph glyph-name="" unicode="&#x439;" d="M136 762 q5 -71 39 -104 q34 -32 103 -32 q69 0 103 32 q34 33 39 104 l-53 0 q-5 -68 -89 -68 q-84 0 -89 68 l-53 0 ZM184 184 q-11 -15 -20 -32 q-9 -18 -17 -38 l6 21 l2 8 l2 7 q3 13 3 28 l0 349 l-87 0 l0 -524 l76 0 l245 358 q7 14 17 27 q8 14 15 34 q-2 -13 -4 -22 q-2 -9 -4 -16 q-3 -13 -3 -36 l0 -345 l90 0 l0 524 l-87 0 l-234 -343 Z" /><glyph glyph-name="" unicode="&#x43b;" d="M258 363 q4 10 10 25 q6 16 13 39 q6 -20 11 -34 q4 -14 8 -24 l150 -369 l99 0 l-230 525 l-76 0 l-232 -525 l103 0 l144 363 Z" /><glyph glyph-name="" unicode="&#x43a;" d="M172 255 l230 -255 l122 0 l-276 285 l266 240 l-112 0 l-230 -222 l0 223 l-92 0 l0 -526 l92 0 l0 255 Z" /><glyph glyph-name="" unicode="&#x45c;" d="M370 762 l-98 0 l-100 -171 l59 0 l139 171 ZM172 255 l230 -255 l122 0 l-276 285 l266 240 l-112 0 l-230 -222 l0 223 l-92 0 l0 -526 l92 0 l0 255 Z" /><glyph glyph-name="" unicode="&#x442;" d="M36 460 l167 0 l0 -457 l85 0 l0 457 l167 0 l0 75 l-419 0 l0 -75 Z" /><glyph glyph-name="" unicode="&#x444;" d="M427 -1 q2 -1 6 -1 q57 1 104 23 q46 23 80 60 q33 37 52 81 q18 44 19 89 q0 70 -21 124 q-20 55 -56 93 q-73 77 -183 77 l-1 0 q0 -1 -1 -1 q-1 0 -2 4 q-1 3 -2 10 q-2 14 -3 36 q0 22 0 49 l0 51 q0 24 1 43 l0 27 l-93 0 l0 -220 l-16 0 q-46 0 -90 -20 q-44 -20 -81 -56 q-37 -36 -58 -83 q-22 -48 -23 -102 q0 -17 1 -38 q2 -20 7 -41 q21 -65 52 -104 q30 -40 66 -60 q36 -21 72 -30 q37 -10 70 -13 l0 -203 l94 0 l0 205 l6 0 ZM327 79 q-1 -1 -2 -1 q-2 0 -6 0 q-4 0 -10 1 q-7 2 -15 4 q-8 2 -15 4 q-7 2 -10 4 q-58 30 -86 77 q-28 48 -28 106 q0 16 8 47 q8 31 27 64 q18 33 49 56 q30 22 78 23 l10 0 l0 -385 ZM421 464 q37 -1 68 -16 q32 -15 55 -39 q23 -24 36 -55 q12 -31 12 -65 q0 -6 -1 -8 q-2 -6 -2 -9 q0 -4 2 -10 q1 -4 1 -13 q0 -19 -5 -36 q-6 -17 -15 -34 q-11 -27 -25 -44 q-14 -17 -32 -28 q-19 -12 -42 -18 q-23 -7 -52 -12 l0 387 Z" /><glyph glyph-name="" unicode="&#x44b;" d="M591 535 l-92 0 l0 -537 l92 0 l0 537 ZM82 -1 q2 -2 11 -2 q5 -1 10 -1 q5 0 10 0 q5 0 11 0 q6 0 11 1 l16 0 q11 0 23 1 l22 0 l21 0 q11 -1 21 -1 q40 0 73 11 q33 10 61 32 q27 20 42 49 q15 29 15 65 q0 10 -2 27 q-3 17 -11 35 q-8 18 -21 35 q-12 16 -31 28 q-24 13 -51 21 q-27 9 -55 9 q-19 0 -42 -1 q-19 -1 -39 2 l0 219 l-95 0 l0 -530 ZM178 231 q11 0 23 1 l23 0 q16 0 36 -2 q19 -2 35 -10 q16 -8 27 -23 q11 -15 11 -39 q0 -25 -9 -41 q-9 -16 -24 -25 q-15 -10 -33 -13 q-18 -4 -36 -4 q-5 0 -9 0 q-4 0 -8 1 l-18 0 l-9 0 q-3 -1 -9 -1 l0 156 Z" /><glyph glyph-name="" unicode="&#x44a;" d="M500 168 q0 32 -14 58 q-14 26 -38 45 q-24 19 -53 29 q-30 10 -60 10 l-16 0 q-5 -1 -9 -1 q-4 0 -9 0 q-13 0 -25 1 l-26 0 l0 219 l-189 0 l0 -37 q-1 -10 0 -20 q0 -10 1 -21 l93 0 l0 -447 q38 -2 78 -3 q39 0 78 0 q-1 0 3 0 q3 0 10 1 q15 2 35 6 q21 5 46 13 q24 9 46 24 q21 15 35 37 q14 23 14 55 l0 9 q-1 3 -1 9 q0 10 1 13 l0 0 ZM377 95 q-13 -9 -29 -13 q-17 -4 -33 -4 q-8 0 -15 0 q-8 0 -16 1 l-33 0 l0 154 q34 0 62 0 q29 -1 50 -9 q20 -8 31 -25 q11 -17 11 -47 q0 -20 -8 -34 q-8 -14 -20 -23 l0 0 Z" /><glyph glyph-name="" unicode="&#x44c;" d="M82 -1 q2 -2 11 -2 q5 -1 10 -1 q5 0 10 0 q5 0 11 0 q6 0 11 1 l16 0 q11 0 23 1 l22 0 l21 0 q11 -1 21 -1 q40 0 73 11 q33 10 61 32 q27 20 42 49 q15 29 15 65 q0 10 -2 27 q-3 17 -11 35 q-8 18 -21 35 q-12 16 -31 28 q-24 13 -51 21 q-27 9 -55 9 q-19 0 -42 -1 q-19 -1 -39 2 l0 219 l-95 0 l0 -530 ZM178 231 q11 0 23 1 l23 0 q16 0 36 -2 q19 -2 35 -10 q16 -8 27 -23 q11 -15 11 -39 q0 -25 -9 -41 q-9 -16 -24 -25 q-15 -10 -33 -13 q-18 -4 -36 -4 q-5 0 -9 0 q-4 0 -8 1 l-18 0 l-9 0 q-3 -1 -9 -1 l0 156 Z" /><glyph glyph-name="" unicode="&#x448;" d="M79 -3 l631 0 l0 538 l-96 0 l0 -459 q-22 -1 -49 -1 q-27 -1 -52 -1 q-25 0 -44 1 q-20 1 -27 2 l0 459 l-96 0 l0 -461 l-171 0 l0 460 l-96 0 l0 -538 Z" /><glyph glyph-name="" unicode="&#x43d;" d="M70 -13 l92 0 l0 244 l254 0 l0 -244 l93 0 l0 538 l-93 0 l0 -231 l-254 0 l0 231 l-92 0 l0 -538 Z" /><glyph glyph-name="" unicode="&#x449;" d="M344 81 l-171 0 l0 459 l-96 0 l0 -537 l620 0 l0 -127 l92 0 l0 205 l-83 0 l0 459 l-96 0 l0 -459 l-171 0 l0 459 l-95 0 l0 -459 Z" /><glyph glyph-name="" unicode="&#x43f;" d="M416 -13 l93 0 l0 538 l-439 0 l0 -538 l92 0 l0 456 l254 0 l0 -456 Z" /><glyph glyph-name="" unicode="&#x446;" d="M70 -13 l437 0 l1 -114 l89 0 l-1 196 l-87 0 l0 456 l-93 0 l0 -456 l-254 0 l0 456 l-92 0 l0 -538 Z" /><glyph glyph-name="" unicode="&#x437;" d="M202 242 q39 -3 64 -10 q25 -7 40 -18 q15 -12 21 -28 q6 -16 6 -38 q0 -37 -25 -60 q-26 -22 -74 -23 q-93 0 -99 88 l-91 0 q3 -79 51 -122 q49 -43 140 -44 q43 0 78 12 q34 12 59 34 q50 44 50 116 q0 68 -51 110 q-5 4 -11 8 q-5 4 -12 8 q60 40 60 112 q0 32 -13 60 q-13 27 -36 48 q-24 20 -57 32 q-33 11 -72 11 q-85 -1 -132 -42 q-47 -42 -48 -118 l0 -4 l87 0 q5 86 89 86 q45 -1 70 -21 q24 -20 24 -51 q0 -42 -29 -60 q-28 -19 -89 -21 q-2 1 -2 1 q3 -6 4 -16 q0 -11 0 -22 l0 -19 q-2 -9 -2 -9 l0 0 Z" /><glyph glyph-name="" unicode="&#x447;" d="M344 306 q-9 -5 -22 -10 q-14 -5 -29 -10 q-16 -5 -31 -8 q-15 -2 -26 -2 q-40 0 -57 25 q-18 24 -22 61 q-5 36 -2 81 q1 22 1 42 q1 20 1 40 l-96 0 l0 -36 q-1 -18 -1 -35 q0 -10 1 -15 l0 -16 l0 -21 q-1 -5 -1 -11 q0 -6 0 -11 q1 -93 42 -137 q40 -44 113 -44 q33 0 65 7 q32 6 65 19 l0 -236 l58 0 l17 0 q4 0 8 0 q4 0 8 1 l0 536 l-92 0 l0 -220 Z" /><glyph glyph-name="" unicode="&#x40a;" d="M187 349 l401 0 l0 -349 l14 0 l0 -2 l26 0 l18 0 l16 0 l21 0 l156 0 l23 0 q12 0 17 1 q24 1 42 14 q9 6 19 15 q11 10 25 24 q28 27 47 71 q19 43 20 109 q0 45 -13 82 q-14 37 -46 66 q-15 13 -29 24 q-15 12 -35 20 q-20 8 -46 13 q-26 4 -62 4 q0 -1 -114 -1 l0 324 l-99 0 l0 -325 l-401 0 l0 325 l-99 0 l0 -764 l99 0 l0 349 ZM788 354 q43 0 73 -10 q30 -11 50 -29 q20 -18 29 -43 q8 -24 8 -52 q0 -66 -41 -101 q-40 -34 -125 -32 l-95 2 l0 265 q0 3 26 1 q26 -1 75 -1 l0 0 Z" /><glyph glyph-name="" unicode="&#x45a;" d="M70 -13 l92 0 l0 244 l254 0 l0 -244 l203 0 l16 0 q9 0 12 1 q18 1 41 9 q23 9 44 29 q21 20 34 51 q13 30 13 78 q0 31 -9 58 q-10 27 -33 47 q-22 20 -57 32 q-36 11 -88 11 q0 -1 -83 -1 l0 223 l-93 0 l0 -231 l-254 0 l0 231 l-92 0 l0 -538 ZM509 232 q3 1 69 1 q61 -1 89 -24 q29 -24 29 -64 q0 -45 -30 -65 q-30 -21 -91 -21 l-66 -1 l0 174 Z" /><glyph glyph-name="" unicode="&#x40b;" d="M109 676 l0 -676 l95 0 l0 291 q0 163 136 163 q62 0 90 -39 q27 -39 26 -120 l0 -295 l95 0 l0 304 q-1 112 -52 171 q-51 60 -143 60 q-89 0 -152 -70 l0 211 l130 0 l0 84 l-335 0 l0 -84 l110 0 Z" /><glyph glyph-name="" unicode="&#x45b;" d="M80 581 l0 -581 l95 0 l0 291 q0 163 136 163 q62 0 90 -39 q27 -39 26 -120 l0 -295 l95 0 l0 304 q-1 112 -52 171 q-51 60 -143 60 q-89 0 -152 -70 l0 116 l158 0 l0 84 l-158 0 l0 94 l-95 0 l0 -94 l-82 0 l0 -84 l82 0 Z" /><glyph glyph-name="" unicode="&#x414;" d="M288 768 q-23 -107 -45 -196 q-22 -90 -47 -170 q-25 -80 -55 -157 q-30 -76 -69 -154 l-55 0 l0 -239 l90 0 q2 0 3 18 q1 18 1 43 l0 49 l0 39 l483 0 l0 -149 l98 0 l0 240 l-90 0 l0 676 l-314 0 ZM175 92 q22 55 48 124 q26 70 52 148 q26 79 48 159 q22 81 37 154 l144 0 l0 -585 l-329 0 Z" /><glyph glyph-name="" unicode="&#x138;" d="M172 255 l230 -255 l122 0 l-276 285 l266 240 l-112 0 l-230 -222 l0 223 l-92 0 l0 -526 l92 0 l0 255 Z" /><glyph glyph-name="" unicode="&#x149;" d="M0 559 l121 243 l-97 40 l-92 -257 l68 -26 ZM172 291 q0 163 139 163 q63 0 91 -39 q28 -39 27 -120 l0 -295 l93 0 l0 304 q-1 112 -52 171 q-51 60 -143 60 q-86 0 -155 -70 l0 60 l-92 0 l0 -525 l92 0 l0 291 Z" /><glyph glyph-name="" unicode="¹" d="M232 742 l-154 -79 l0 -56 l93 48 l0 -361 l61 0 l0 448 Z" /><glyph glyph-name="" unicode="²" d="M315 350 l-171 0 l138 184 q20 26 32 50 q11 24 11 51 q-1 49 -37 77 q-36 28 -100 29 q-64 0 -101 -32 q-37 -32 -39 -90 l64 0 l0 2 q0 33 21 52 q21 18 57 18 q34 0 54 -16 q20 -17 20 -44 q0 -14 -8 -30 q-8 -17 -22 -37 l-200 -270 l281 0 l0 56 Z" /><glyph glyph-name="" unicode="³" d="M28 366 q23 -39 60 -58 q37 -19 85 -19 q72 0 117 42 q22 20 34 47 q13 26 13 58 q0 28 -10 52 q-11 24 -29 42 q-19 17 -45 27 q-27 10 -58 11 l128 168 l-270 0 l0 -53 l169 3 l-146 -181 l11 -7 q20 14 41 21 q20 7 42 7 q49 -1 77 -26 q28 -26 29 -69 q-1 -41 -29 -67 q-29 -26 -75 -27 q-28 0 -51 14 q-24 14 -40 42 l-53 -27 Z" /><glyph glyph-name="" unicode="&#x21a;" d="M303 674 l195 0 l0 90 l-489 0 l0 -90 l195 0 l0 -674 l99 0 l0 674 ZM212 -320 l125 254 l-91 43 l-95 -267 l61 -30 Z" /><glyph glyph-name="" unicode="&#x21b;" d="M87 109 q-1 -65 29 -94 q31 -29 101 -28 l52 0 l0 88 l-49 0 q-40 0 -40 45 l0 327 l89 0 l0 78 l-89 0 l0 128 l-93 0 l0 -128 l-69 0 l0 -78 l69 0 l0 -338 ZM116 -323 l125 254 l-91 43 l-95 -267 l61 -30 Z" /><glyph glyph-name="" unicode="&#x417;" d="M534 248 q-4 28 -17 50 q-14 23 -32 41 q-18 18 -39 33 q-20 14 -39 27 q22 11 42 27 q20 16 35 40 q15 24 24 57 q9 33 9 78 q-4 46 -32 82 q-29 37 -75 60 q-46 23 -96 28 q-50 5 -96 -10 q-73 -25 -113 -77 q-40 -52 -38 -133 l96 0 q0 21 6 44 q6 24 20 45 q14 21 35 34 q20 13 50 13 q29 0 56 -7 q26 -7 47 -22 q21 -15 33 -39 q12 -24 12 -59 q0 -32 -12 -55 q-12 -23 -31 -37 q-19 -15 -43 -22 q-24 -7 -48 -7 q-5 0 -9 0 q-5 0 -10 1 q-5 1 -10 1 q-5 0 -10 0 l-3 0 l0 -25 q-1 -16 -1 -30 q0 -8 0 -14 q0 -6 1 -11 q0 -11 1 -11 q11 0 22 3 q11 2 23 2 q28 0 54 -9 q26 -10 47 -28 q21 -18 33 -43 q12 -25 12 -56 q0 -54 -38 -95 q-19 -20 -45 -32 q-26 -12 -57 -12 q-36 0 -64 11 q-28 12 -48 32 q-40 41 -40 99 q0 0 -13 -2 q-15 -1 -34 -2 q-18 -1 -36 -1 l-17 0 q0 -51 21 -92 q20 -42 54 -72 q34 -31 79 -47 q45 -15 94 -12 q57 1 104 18 q47 18 80 51 q33 33 48 79 q14 46 8 106 l0 0 Z" /><glyph glyph-name="" unicode="&#x402;" d="M529 338 q0 11 -1 14 q-14 82 -53 124 q-39 41 -103 57 l-7 0 q-1 -1 -6 -1 q-5 0 -9 0 q-5 0 -10 1 l-20 0 q-43 -1 -76 -19 q-33 -18 -64 -45 q0 5 0 12 q0 7 -1 17 q-1 10 -1 20 q0 10 0 21 q0 11 0 20 q0 9 1 17 q2 17 4 18 l181 0 l0 77 l-185 0 l0 89 l-95 0 l0 -89 q-7 0 -18 1 q-12 1 -23 1 q-12 0 -22 0 q-10 -1 -13 -4 l0 -76 l77 0 l0 -597 l95 0 l0 106 q-1 52 -1 106 q0 8 0 18 q0 9 -1 19 q-1 10 -1 19 q0 9 0 19 q0 19 2 36 q1 17 5 30 q12 36 27 56 q15 21 34 30 q19 9 41 12 q23 3 50 5 q28 0 46 -13 q19 -12 30 -31 q11 -19 16 -42 q5 -24 5 -45 l0 -162 q0 -42 0 -82 q0 -40 1 -81 q0 -20 -3 -39 q-3 -19 -11 -37 q-6 -18 -13 -29 q-7 -11 -18 -18 q-11 -7 -28 -11 q-16 -5 -43 -9 l0 -81 q3 -1 9 -1 l8 0 q34 0 68 13 q34 13 62 38 q28 24 46 59 q17 35 18 78 l0 8 q-1 3 -1 8 q0 46 0 91 q0 45 1 91 l0 181 Z" /><glyph glyph-name="" unicode="&#x409;" d="M527 2 q10 -1 20 -1 q10 0 21 0 q11 0 23 1 l23 0 l32 0 q8 -1 16 -1 q8 0 16 0 q28 0 58 4 q12 2 31 6 q18 4 36 10 q18 6 34 15 q15 8 24 20 q18 11 32 29 q15 18 26 40 q11 21 16 44 q5 23 6 44 q0 54 -18 96 q-18 42 -50 72 q-32 29 -75 45 q-43 16 -94 16 l-18 0 q-5 -1 -9 -1 q-4 0 -9 0 q-19 0 -39 1 l-39 0 l0 324 l-158 0 q-2 -4 -3 -7 q-1 -4 -2 -6 q-1 -2 -3 -6 q-2 -3 -5 -7 q-25 -39 -48 -81 l-45 -83 q-45 -79 -90 -162 q-45 -83 -90 -165 q-32 -61 -67 -123 l-70 -124 l106 0 q90 150 168 295 q77 145 149 288 l11 22 q8 15 16 31 q8 15 16 27 q8 12 12 12 l0 -675 l40 0 ZM591 352 q7 0 13 0 q6 0 13 1 l25 0 q20 0 39 -1 q19 -2 39 -4 q55 -5 87 -41 q31 -37 32 -90 q0 -39 -17 -63 q-16 -25 -43 -39 q-27 -14 -58 -19 q-31 -5 -61 -5 l-69 0 l0 261 Z" /><glyph glyph-name="" unicode="&#x40f;" d="M575 762 l0 -674 l-403 0 l0 674 l-97 0 q-1 -7 -1 -19 q0 -13 0 -33 l0 -95 q-1 -55 0 -121 l0 -134 q0 -34 0 -66 q0 -33 1 -65 l0 -114 q0 -26 0 -46 q0 -20 1 -36 q0 -33 1 -36 l250 0 l0 -148 l94 0 l0 148 l251 0 l0 765 l-97 0 Z" /><glyph glyph-name="" unicode="&#x432;" d="M257 2 q18 0 36 3 q17 3 37 7 q19 7 38 20 q20 12 35 28 q15 16 25 36 q9 19 9 41 q1 34 -6 59 q-7 24 -27 49 q-3 6 -11 11 q-8 5 -17 10 q-9 5 -18 10 q-9 4 -15 10 q9 4 15 11 q6 7 12 14 q18 18 23 38 q6 21 5 48 q0 40 -17 65 q-16 26 -43 41 q-27 15 -56 21 q-29 5 -54 5 l-23 0 q-12 -1 -23 -1 q-14 0 -27 0 q-12 0 -25 1 l-52 0 l0 -527 l179 0 ZM172 455 q5 0 11 0 q6 0 11 1 l22 0 q45 0 69 -18 q24 -19 24 -54 q0 -6 -1 -8 q-7 -27 -18 -41 q-21 -25 -66 -25 l-52 0 l0 145 ZM264 233 q18 0 33 -7 q15 -7 25 -18 q21 -24 21 -52 q0 -33 -16 -49 q-16 -17 -40 -23 q-25 -6 -55 -5 l-60 0 l0 154 l92 0 Z" /><glyph glyph-name="" unicode="&#x434;" d="M213 527 q-6 -18 -13 -38 q-6 -21 -9 -42 q-2 -25 -9 -52 q-7 -28 -16 -52 q-22 -74 -45 -139 q-24 -64 -49 -127 l-47 0 q-1 -18 -1 -41 q-1 -23 -1 -48 q0 -20 0 -37 q0 -17 1 -33 q2 -33 3 -40 l83 0 l0 123 l347 0 l0 -123 l89 0 l0 200 l-81 0 l0 449 l-252 0 ZM370 79 l-200 0 q1 6 3 12 q1 6 5 11 l8 21 q23 59 38 112 q14 52 28 105 q1 4 2 10 q1 6 3 15 q4 18 8 36 q5 18 10 33 q5 15 9 16 l86 0 l0 -371 Z" /><glyph glyph-name="" unicode="&#x43c;" d="M169 364 l220 -384 l212 382 l1 -365 l93 0 l0 540 l-94 0 l-199 -354 q-7 -13 -9 -31 q-3 -17 -4 -29 q-2 14 -6 34 q-4 19 -12 30 l-197 350 l-93 0 l0 -540 l93 0 l-5 367 Z" /><glyph glyph-name="" unicode="&#x452;" d="M322 -220 q37 0 70 9 q25 7 49 24 q23 18 42 42 q18 24 29 53 q11 28 11 58 l0 376 q0 30 -9 57 q-8 26 -20 47 q-27 51 -71 71 q-45 20 -102 19 q-23 0 -41 -4 q-18 -5 -35 -13 q-17 -9 -34 -20 q-16 -12 -35 -26 l0 120 q0 2 23 3 q22 1 52 1 l61 0 l48 0 l0 76 l-184 0 l0 89 l-94 0 l0 -89 l-72 0 q-2 0 -2 -10 q-1 -5 -1 -11 q0 -5 0 -12 l0 -26 l0 -18 l76 0 l0 -592 l93 0 l0 305 q0 24 9 50 q8 25 27 47 q18 22 48 36 q29 14 72 14 q27 0 45 -13 q19 -12 30 -31 q11 -19 16 -42 q5 -23 5 -44 q1 -41 1 -81 q1 -40 0 -80 q-1 -40 0 -80 q0 -40 1 -81 q0 -21 -3 -39 q-4 -18 -12 -37 q-6 -17 -13 -28 q-6 -11 -17 -19 q-11 -8 -28 -12 q-17 -5 -44 -7 l0 -82 l9 0 Z" /><glyph glyph-name="" unicode="&#x459;" d="M326 537 q-20 -35 -40 -69 q-20 -33 -40 -67 q-20 -34 -39 -67 q-19 -33 -38 -66 q-20 -33 -39 -66 q-19 -33 -39 -67 q-20 -34 -40 -67 q-20 -34 -40 -69 l103 0 q32 54 63 113 q16 29 32 59 q16 29 33 59 q33 60 68 118 q34 57 71 109 l0 -456 q0 -2 24 -2 q24 -1 55 -1 l60 0 l37 0 q74 0 123 45 q24 21 38 52 q13 30 13 67 q-1 51 -24 83 q-24 32 -63 49 q-39 17 -83 21 q-44 4 -84 -2 l0 224 l-151 0 ZM529 234 q27 0 50 -6 q24 -6 38 -24 q15 -18 15 -53 q-1 -27 -16 -43 q-15 -15 -39 -22 q-24 -6 -51 -8 q-26 -1 -48 -1 l0 157 l51 0 Z" /><glyph glyph-name="" unicode="&#x45f;" d="M333 -13 l176 0 l0 538 l-93 0 l0 -456 l-254 0 l0 456 l-92 0 l0 -538 l177 0 l0 -115 l86 0 l0 115 Z" /><glyph glyph-name="" unicode="&#x111;" d="M725 678 l-129 0 l0 81 l-93 0 l0 -81 l-278 0 l0 -63 l278 0 l0 -165 q-32 40 -80 62 q-47 23 -113 23 q-57 0 -107 -21 q-51 -21 -90 -60 q-75 -75 -75 -190 q0 -60 20 -110 q19 -50 55 -86 q36 -36 86 -55 q50 -20 111 -20 q125 0 201 86 l0 -79 l85 0 l0 615 l129 0 l0 63 ZM456 129 q-51 -54 -134 -54 q-83 0 -134 54 q-25 26 -38 60 q-14 34 -14 76 q0 42 14 77 q13 34 38 59 q25 25 58 39 q34 14 76 14 q42 0 76 -14 q33 -14 58 -39 q25 -25 38 -59 q14 -35 14 -77 q0 -42 -14 -76 q-13 -34 -38 -60 l0 0 Z" /><glyph glyph-name="" unicode="&#x168;" d="M474 966 q-14 -36 -46 -36 q-2 0 -8 1 q-7 2 -18 4 l-48 14 q-9 4 -29 4 q-36 0 -60 -26 q-25 -25 -34 -74 l43 0 q13 33 44 33 q5 0 11 0 q5 -1 13 -3 l47 -14 q11 -2 19 -4 q8 -1 13 -1 q77 0 96 102 l-43 0 ZM81 287 q0 -70 22 -126 q21 -56 60 -95 q38 -39 92 -60 q53 -21 119 -21 q66 0 119 21 q53 21 92 60 q39 39 60 95 q21 56 21 126 l0 477 l-100 0 l0 -471 q0 -109 -49 -163 q-49 -54 -143 -54 q-91 0 -142 56 q-50 55 -51 161 l0 471 l-100 0 l0 -477 Z" /><glyph glyph-name="" unicode="&#x174;" d="M486 942 l84 -112 l60 0 l-96 171 l-96 0 l-96 -171 l59 0 l85 112 ZM463 556 q5 17 11 38 q6 21 11 48 q2 -19 7 -40 q5 -21 12 -45 l165 -557 l84 0 l228 764 l-101 0 l-146 -527 q-1 -10 -5 -21 l-6 -22 q-7 -23 -12 -50 l-9 36 q-2 8 -3 15 q-2 6 -4 12 q-7 21 -9 31 l-153 526 l-93 0 l-157 -536 q-12 -40 -19 -84 q-4 25 -8 48 q-5 24 -12 47 l-148 525 l-105 0 l235 -764 l74 0 l163 556 Z" /><glyph glyph-name="" unicode="&#x218;" d="M47 215 q10 -110 76 -169 q65 -60 178 -61 q55 0 100 16 q46 17 79 46 q33 29 52 68 q18 38 18 83 q0 45 -14 82 q-14 35 -43 62 q-28 27 -71 48 q-44 21 -89 37 q-45 16 -78 27 q-17 5 -35 13 q-17 8 -32 22 q-15 14 -24 34 q-10 19 -10 49 q1 56 37 89 q35 34 99 35 q130 0 148 -147 l100 0 q-6 110 -71 169 q-65 60 -178 61 q-54 0 -96 -15 q-43 -15 -73 -42 q-30 -27 -46 -64 q-16 -38 -16 -86 q0 -100 65 -153 q40 -32 82 -48 q42 -17 84 -30 q39 -12 69 -25 q30 -13 50 -30 q20 -17 31 -39 q10 -22 10 -54 q0 -53 -38 -85 q-38 -33 -108 -34 q-73 0 -113 38 q-41 38 -42 107 l-101 -4 Z" /><glyph glyph-name="" unicode="&#x15e;" d="M536 280 q-14 35 -43 62 q-28 27 -71 48 q-44 21 -89 37 q-45 16 -78 27 q-17 5 -35 13 q-17 8 -32 22 q-15 14 -24 34 q-10 19 -10 49 q1 56 37 89 q35 34 99 35 q130 0 148 -147 l100 0 q-6 110 -71 169 q-65 60 -178 61 q-54 0 -96 -15 q-43 -15 -73 -42 q-30 -27 -46 -64 q-16 -38 -16 -86 q0 -100 65 -153 q40 -32 82 -48 q42 -17 84 -30 q39 -12 69 -25 q30 -13 50 -30 q20 -17 31 -39 q10 -22 10 -54 q0 -53 -38 -85 q-38 -33 -108 -34 q-73 0 -113 38 q-41 38 -42 107 l-101 -4 q9 -103 67 -161 q57 -59 157 -68 l0 -83 q3 1 8 1 l6 0 l12 0 q65 0 65 -42 q0 -40 -58 -40 q-16 0 -46 4 q-30 4 -75 15 l0 -49 q39 -11 71 -17 q32 -5 55 -5 q60 0 92 24 q31 23 31 68 q0 88 -109 88 l-14 0 l0 35 q107 4 171 62 q33 29 52 68 q18 38 18 83 q0 45 -14 82 l0 0 Z" /><glyph glyph-name="" unicode="&#x15c;" d="M308 942 l84 -112 l60 0 l-96 171 l-96 0 l-96 -171 l59 0 l85 112 ZM47 215 q10 -110 76 -169 q65 -60 178 -61 q55 0 100 16 q46 17 79 46 q33 29 52 68 q18 38 18 83 q0 45 -14 82 q-14 35 -43 62 q-28 27 -71 48 q-44 21 -89 37 q-45 16 -78 27 q-17 5 -35 13 q-17 8 -32 22 q-15 14 -24 34 q-10 19 -10 49 q1 56 37 89 q35 34 99 35 q130 0 148 -147 l100 0 q-6 110 -71 169 q-65 60 -178 61 q-54 0 -96 -15 q-43 -15 -73 -42 q-30 -27 -46 -64 q-16 -38 -16 -86 q0 -100 65 -153 q40 -32 82 -48 q42 -17 84 -30 q39 -12 69 -25 q30 -13 50 -30 q20 -17 31 -39 q10 -22 10 -54 q0 -53 -38 -85 q-38 -33 -108 -34 q-73 0 -113 38 q-41 38 -42 107 l-101 -4 Z" /><glyph glyph-name="" unicode="&#x166;" d="M503 461 l-200 0 l0 213 l195 0 l0 90 l-489 0 l0 -90 l195 0 l0 -213 l-201 0 l0 -63 l201 0 l0 -398 l99 0 l0 398 l200 0 l0 63 Z" /><glyph glyph-name="" unicode="&#x16c;" d="M232 983 q5 -71 39 -104 q34 -32 103 -32 q69 0 103 32 q34 33 39 104 l-53 0 q-5 -68 -89 -68 q-84 0 -89 68 l-53 0 ZM81 287 q0 -70 22 -126 q21 -56 60 -95 q38 -39 92 -60 q53 -21 119 -21 q66 0 119 21 q53 21 92 60 q39 39 60 95 q21 56 21 126 l0 477 l-100 0 l0 -471 q0 -109 -49 -163 q-49 -54 -143 -54 q-91 0 -142 56 q-50 55 -51 161 l0 471 l-100 0 l0 -477 Z" /><glyph glyph-name="" unicode="&#x1ef2;" d="M207 1001 l139 -171 l59 0 l-100 171 l-98 0 ZM359 308 l255 456 l-112 0 l-177 -330 q-12 -18 -16 -37 q-4 11 -8 20 q-4 9 -8 17 l-178 330 l-116 0 l260 -455 l0 -309 l100 0 l0 308 Z" /><glyph glyph-name="" unicode="&#x176;" d="M306 942 l84 -112 l60 0 l-96 171 l-96 0 l-96 -171 l59 0 l85 112 ZM359 308 l255 456 l-112 0 l-177 -330 q-12 -18 -16 -37 q-4 11 -8 20 q-4 9 -8 17 l-178 330 l-116 0 l260 -455 l0 -309 l100 0 l0 308 Z" /><glyph glyph-name="" unicode="&#x1e80;" d="M387 1001 l139 -171 l59 0 l-100 171 l-98 0 ZM463 556 q5 17 11 38 q6 21 11 48 q2 -19 7 -40 q5 -21 12 -45 l165 -557 l84 0 l228 764 l-101 0 l-146 -527 q-1 -10 -5 -21 l-6 -22 q-7 -23 -12 -50 l-9 36 q-2 8 -3 15 q-2 6 -4 12 q-7 21 -9 31 l-153 526 l-93 0 l-157 -536 q-12 -40 -19 -84 q-4 25 -8 48 q-5 24 -12 47 l-148 525 l-105 0 l235 -764 l74 0 l163 556 Z" /><glyph glyph-name="" unicode="&#x1e84;" d="M342 910 q1 -24 16 -39 q16 -16 40 -16 q24 0 39 16 q15 15 15 39 q0 24 -15 39 q-15 15 -39 16 q-24 -1 -40 -17 q-15 -16 -16 -38 l0 0 ZM520 910 q1 -24 16 -39 q15 -16 39 -16 q24 0 40 16 q15 15 15 39 q-1 24 -16 39 q-15 15 -39 16 q-24 -1 -39 -17 q-15 -16 -16 -38 l0 0 ZM463 556 q5 17 11 38 q6 21 11 48 q2 -19 7 -40 q5 -21 12 -45 l165 -557 l84 0 l228 764 l-101 0 l-146 -527 q-1 -10 -5 -21 l-6 -22 q-7 -23 -12 -50 l-9 36 q-2 8 -3 15 q-2 6 -4 12 q-7 21 -9 31 l-153 526 l-93 0 l-157 -536 q-12 -40 -19 -84 q-4 25 -8 48 q-5 24 -12 47 l-148 525 l-105 0 l235 -764 l74 0 l163 556 Z" /><glyph glyph-name="" unicode="&#x1e82;" d="M585 1001 l-98 0 l-100 -171 l59 0 l139 171 ZM463 556 q5 17 11 38 q6 21 11 48 q2 -19 7 -40 q5 -21 12 -45 l165 -557 l84 0 l228 764 l-101 0 l-146 -527 q-1 -10 -5 -21 l-6 -22 q-7 -23 -12 -50 l-9 36 q-2 8 -3 15 q-2 6 -4 12 q-7 21 -9 31 l-153 526 l-93 0 l-157 -536 q-12 -40 -19 -84 q-4 25 -8 48 q-5 24 -12 47 l-148 525 l-105 0 l235 -764 l74 0 l163 556 Z" /><glyph glyph-name="" unicode="&#x128;" d="M239 966 q-14 -36 -46 -36 q-2 0 -8 1 q-7 2 -18 4 l-48 14 q-9 4 -29 4 q-36 0 -60 -26 q-25 -25 -34 -74 l43 0 q13 33 44 33 q5 0 11 0 q5 -1 13 -3 l47 -14 q11 -2 19 -4 q8 -1 13 -1 q77 0 96 102 l-43 0 ZM187 764 l-99 0 l0 -764 l99 0 l0 764 Z" /><glyph glyph-name="" unicode="&#x130;" d="M82 910 q0 -25 16 -41 q16 -16 41 -17 q25 1 41 17 q16 16 17 41 q-1 24 -17 41 q-17 16 -41 17 q-24 -1 -40 -17 q-16 -17 -17 -41 l0 0 ZM187 764 l-99 0 l0 -764 l99 0 l0 764 Z" /><glyph glyph-name="" unicode="&#x124;" d="M387 942 l84 -112 l60 0 l-96 171 l-96 0 l-96 -171 l59 0 l85 112 ZM187 349 l401 0 l0 -349 l99 0 l0 764 l-99 0 l0 -325 l-401 0 l0 325 l-99 0 l0 -764 l99 0 l0 349 Z" /><glyph glyph-name="" unicode="&#x12c;" d="M-3 983 q5 -71 39 -104 q34 -32 103 -32 q69 0 103 32 q34 33 39 104 l-53 0 q-5 -68 -89 -68 q-84 0 -89 68 l-53 0 ZM187 764 l-99 0 l0 -764 l99 0 l0 764 Z" /><glyph glyph-name="" unicode="&#x114;" d="M142 983 q5 -71 39 -104 q34 -32 103 -32 q69 0 103 32 q34 33 39 104 l-53 0 q-5 -68 -89 -68 q-84 0 -89 68 l-53 0 ZM485 90 l-298 0 l0 257 l298 0 l0 88 l-298 0 l0 239 l298 0 l0 90 l-397 0 l0 -764 l397 0 l0 90 Z" /><glyph glyph-name="" unicode="&#x11e;" d="M295 983 q5 -71 39 -104 q34 -32 103 -32 q69 0 103 32 q34 33 39 104 l-53 0 q-5 -68 -89 -68 q-84 0 -89 68 l-53 0 ZM713 676 q-52 52 -120 77 q-69 26 -154 26 q-169 0 -277 -105 q-58 -57 -88 -131 q-30 -73 -30 -161 q0 -88 30 -161 q30 -74 88 -131 q108 -105 277 -105 q117 0 202 49 q87 48 139 140 q52 93 53 230 l0 22 l-377 0 l0 -91 l273 0 q-9 -61 -34 -109 q-25 -49 -63 -82 q-78 -69 -196 -69 q-63 0 -115 22 q-53 23 -92 64 q-39 41 -61 97 q-22 55 -22 124 q0 69 23 125 q22 56 65 101 q79 81 202 81 q63 0 115 -20 q53 -21 91 -63 l71 70 Z" /><glyph glyph-name="" unicode="&#x11c;" d="M437 942 l84 -112 l60 0 l-96 171 l-96 0 l-96 -171 l59 0 l85 112 ZM713 676 q-52 52 -120 77 q-69 26 -154 26 q-169 0 -277 -105 q-58 -57 -88 -131 q-30 -73 -30 -161 q0 -88 30 -161 q30 -74 88 -131 q108 -105 277 -105 q117 0 202 49 q87 48 139 140 q52 93 53 230 l0 22 l-377 0 l0 -91 l273 0 q-9 -61 -34 -109 q-25 -49 -63 -82 q-78 -69 -196 -69 q-63 0 -115 22 q-53 23 -92 64 q-39 41 -61 97 q-22 55 -22 124 q0 69 23 125 q22 56 65 101 q79 81 202 81 q63 0 115 -20 q53 -21 91 -63 l71 70 Z" /><glyph glyph-name="" unicode="&#x122;" d="M713 676 q-52 52 -120 77 q-69 26 -154 26 q-169 0 -277 -105 q-58 -57 -88 -131 q-30 -73 -30 -161 q0 -88 30 -161 q30 -74 88 -131 q108 -105 277 -105 q117 0 202 49 q87 48 139 140 q52 93 53 230 l0 22 l-377 0 l0 -91 l273 0 q-9 -61 -34 -109 q-25 -49 -63 -82 q-78 -69 -196 -69 q-63 0 -115 22 q-53 23 -92 64 q-39 41 -61 97 q-22 55 -22 124 q0 69 23 125 q22 56 65 101 q79 81 202 81 q63 0 115 -20 q53 -21 91 -63 l71 70 Z" /><glyph glyph-name="" unicode="&#x120;" d="M380 910 q0 -25 16 -41 q16 -16 41 -17 q25 1 41 17 q16 16 17 41 q-1 24 -17 41 q-17 16 -41 17 q-24 -1 -40 -17 q-16 -17 -17 -41 l0 0 ZM713 676 q-52 52 -120 77 q-69 26 -154 26 q-169 0 -277 -105 q-58 -57 -88 -131 q-30 -73 -30 -161 q0 -88 30 -161 q30 -74 88 -131 q108 -105 277 -105 q117 0 202 49 q87 48 139 140 q52 93 53 230 l0 22 l-377 0 l0 -91 l273 0 q-9 -61 -34 -109 q-25 -49 -63 -82 q-78 -69 -196 -69 q-63 0 -115 22 q-53 23 -92 64 q-39 41 -61 97 q-22 55 -22 124 q0 69 23 125 q22 56 65 101 q79 81 202 81 q63 0 115 -20 q53 -21 91 -63 l71 70 Z" /><glyph glyph-name="" unicode="&#x126;" d="M588 764 l0 -152 l-401 0 l0 152 l-99 0 l0 -764 l99 0 l0 349 l401 0 l0 -349 l99 0 l0 764 l-99 0 ZM187 439 l0 110 l401 0 l0 -110 l-401 0 Z" /><glyph glyph-name="" unicode="&#x108;" d="M375 942 l84 -112 l60 0 l-96 171 l-96 0 l-96 -171 l59 0 l85 112 ZM707 681 q-53 49 -120 73 q-68 25 -148 25 q-169 0 -277 -105 q-58 -57 -88 -131 q-30 -73 -30 -161 q0 -88 30 -161 q30 -74 88 -131 q108 -105 277 -105 q165 0 275 105 l-66 71 q-77 -86 -209 -86 q-63 0 -116 22 q-54 23 -93 64 q-40 41 -62 97 q-22 55 -22 124 q0 69 23 125 q22 56 62 97 q39 41 92 63 q53 22 116 22 q66 0 116 -21 q49 -21 88 -59 l64 72 Z" /><glyph glyph-name="" unicode="&#x10a;" d="M317 910 q0 -25 16 -41 q16 -16 41 -17 q25 1 41 17 q16 16 17 41 q-1 24 -17 41 q-17 16 -41 17 q-24 -1 -40 -17 q-16 -17 -17 -41 l0 0 ZM707 681 q-53 49 -120 73 q-68 25 -148 25 q-169 0 -277 -105 q-58 -57 -88 -131 q-30 -73 -30 -161 q0 -88 30 -161 q30 -74 88 -131 q108 -105 277 -105 q165 0 275 105 l-66 71 q-77 -86 -209 -86 q-63 0 -116 22 q-54 23 -93 64 q-40 41 -62 97 q-22 55 -22 124 q0 69 23 125 q22 56 62 97 q39 41 92 63 q53 22 116 22 q66 0 116 -21 q49 -21 88 -59 l64 72 Z" /><glyph glyph-name="" unicode="&#x102;" d="M221 983 q5 -71 39 -104 q34 -32 103 -32 q69 0 103 32 q34 33 39 104 l-53 0 q-5 -68 -89 -68 q-84 0 -89 68 l-53 0 ZM180 177 l359 0 l68 -177 l116 0 l-322 765 l-83 0 l-312 -765 l106 0 l68 177 ZM337 574 l8 24 l15 47 q9 -31 15 -48 l8 -23 l120 -307 l-288 0 l122 307 Z" /><glyph glyph-name="" unicode="&#x1fc;" d="M541 1001 l-98 0 l-100 -171 l59 0 l139 171 ZM800 90 l-298 0 l0 257 l298 0 l0 88 l-298 0 l0 239 l298 0 l0 90 l-448 0 l-383 -764 l101 0 l86 177 l253 0 l0 -177 l391 0 l0 90 ZM409 260 l-212 0 l212 440 l0 -440 Z" /><glyph glyph-name="" unicode="&#x136;" d="M188 292 q0 24 -2 52 q7 -8 12 -14 q5 -6 9 -11 l9 -12 l278 -307 l139 0 l-332 358 l-5 5 q-2 2 -3 4 q-1 2 -2 3 q-4 6 -15 11 l28 27 l321 356 l-129 0 l-280 -322 l-30 -36 q1 14 1 27 q1 12 1 24 l0 307 l-100 0 l0 -764 l100 0 l0 292 Z" /><glyph glyph-name="" unicode="&#x134;" d="M239 942 l84 -112 l60 0 l-96 171 l-96 0 l-96 -171 l59 0 l85 112 ZM54 -15 q3 -1 8 -1 l8 0 q319 0 319 273 l0 507 l-340 0 l0 -90 l241 0 l0 -378 q0 -30 -1 -55 q-1 -26 -6 -47 q-5 -21 -15 -38 q-10 -17 -28 -31 q-33 -26 -77 -36 q-45 -10 -105 -10 l-20 0 l0 -94 l16 0 Z" /><glyph glyph-name="" unicode="&#x132;" d="M187 764 l-99 0 l0 -764 l99 0 l0 764 ZM332 -15 q3 -1 8 -1 l8 0 q319 0 319 273 l0 507 l-340 0 l0 -90 l241 0 l0 -378 q0 -30 -1 -55 q-1 -26 -6 -47 q-5 -21 -15 -38 q-10 -17 -28 -31 q-33 -26 -77 -36 q-45 -10 -105 -10 l-20 0 l0 -94 l16 0 Z" /><glyph glyph-name="" unicode="&#x13b;" d="M450 93 l-263 0 l0 671 l-99 0 l0 -764 l362 0 l0 93 Z" /><glyph glyph-name="" unicode="&#x13f;" d="M187 93 l0 478 q9 -13 22 -20 q14 -8 31 -8 q27 1 45 19 q18 18 19 45 q-1 28 -18 46 q-18 17 -46 18 q-17 0 -31 -8 q-13 -7 -22 -20 l0 121 l-99 0 l0 -764 l362 0 l0 93 l-263 0 Z" /><glyph glyph-name="" unicode="&#x156;" d="M187 311 l272 -311 l125 0 l-269 297 l6 0 q51 0 94 17 q42 18 73 50 q30 32 47 75 q16 42 16 93 q0 110 -73 170 q-73 61 -216 62 l-174 0 l0 -764 l99 0 l0 311 ZM254 674 q99 0 147 -38 q48 -37 48 -107 q0 -75 -48 -116 q-48 -41 -142 -41 l-72 0 l0 302 l67 0 Z" /><glyph glyph-name="" unicode="&#x14e;" d="M303 983 q5 -71 39 -104 q34 -32 103 -32 q69 0 103 32 q34 33 39 104 l-53 0 q-5 -68 -89 -68 q-84 0 -89 68 l-53 0 ZM439 -15 q168 0 277 106 q58 57 88 130 q30 73 30 161 q0 88 -31 161 q-30 74 -88 131 q-108 105 -276 105 q-168 0 -276 -105 q-58 -57 -88 -131 q-31 -73 -31 -161 q0 -88 30 -161 q30 -73 88 -130 q109 -106 277 -106 l0 0 ZM438 75 q-124 0 -204 81 q-45 45 -66 102 q-22 57 -22 124 q3 140 83 223 q81 82 209 84 q127 -2 209 -86 q82 -84 85 -221 q0 -67 -21 -124 q-22 -57 -67 -102 q-80 -81 -206 -81 l0 0 Z" /><glyph glyph-name="" unicode="&#x145;" d="M185 504 q0 66 -16 137 q9 -29 22 -50 q13 -21 26 -39 l387 -552 l81 0 l0 764 l-97 0 l0 -509 q0 -24 5 -54 q4 -31 14 -67 q-26 60 -55 102 l-371 528 l-93 0 l0 -764 l97 0 l0 504 Z" /><glyph glyph-name="" unicode="&#x162;" d="M303 674 l195 0 l0 90 l-489 0 l0 -90 l195 0 l0 -674 l99 0 l0 674 Z" /><glyph glyph-name="" unicode="&#x167;" d="M274 295 l0 68 l-94 0 l0 84 l89 0 l0 78 l-89 0 l0 128 l-93 0 l0 -128 l-69 0 l0 -78 l69 0 l0 -84 l-77 0 l0 -68 l77 0 l0 -186 q-1 -65 29 -94 q31 -29 101 -28 l52 0 l0 88 l-49 0 q-40 0 -40 45 l0 175 l94 0 Z" /><glyph glyph-name="" unicode="&#x20a4;" d="M486 109 q-37 -21 -72 -21 q-17 0 -34 6 q-16 5 -34 12 q-18 6 -37 12 q-20 5 -44 5 q-17 0 -38 -3 q-21 -4 -46 -9 q28 26 45 54 q18 27 25 56 l147 0 l0 83 l-147 0 q-1 11 -5 21 l114 0 l0 65 l-139 0 q-14 33 -26 61 q-12 27 -20 49 q-16 39 -16 62 q1 46 31 73 q29 26 81 27 q55 0 86 -31 q31 -30 32 -85 l0 -5 l96 0 q0 48 -15 85 q-16 37 -43 64 q-28 26 -67 41 q-39 14 -87 14 q-98 -1 -152 -48 q-54 -47 -55 -129 q1 -38 16 -81 q16 -43 40 -97 l-74 0 l0 -65 l102 0 q6 -10 9 -21 l-2 0 l0 -83 l4 0 q-18 -74 -108 -152 l45 -71 q53 43 123 43 q15 0 30 -3 q14 -4 27 -9 l43 -18 q18 -8 37 -13 q20 -5 46 -5 q31 0 59 9 q28 9 57 28 l-34 79 Z" /></font>
</defs>
</svg>
